G04 #@! TF.FileFunction,Legend,Bot*
%FSLAX46Y46*%
G04 Gerber Fmt 4.6, Leading zero omitted, Abs format (unit mm)*
G04 Created by KiCad (PCBNEW 4.0.2-stable) date Monday, 09 May 2016 'amt' 09:58:14*
%MOMM*%
G01*
G04 APERTURE LIST*
%ADD10C,0.100000*%
%ADD11C,0.150000*%
%ADD12C,0.300000*%
%ADD13R,1.900000X1.650000*%
%ADD14R,1.650000X1.900000*%
%ADD15R,1.598880X1.598880*%
%ADD16R,1.700000X1.900000*%
%ADD17R,1.900000X1.700000*%
%ADD18R,2.127200X4.464000*%
%ADD19O,2.127200X4.464000*%
%ADD20R,1.851600X0.551600*%
G04 APERTURE END LIST*
D10*
D11*
X162583903Y-113040121D02*
X162458903Y-112040121D01*
X162155331Y-113040121D02*
X162089854Y-112516311D01*
X162125569Y-112421073D01*
X162214854Y-112373454D01*
X162357712Y-112373454D01*
X162458903Y-112421073D01*
X162512474Y-112468692D01*
X161738664Y-112373454D02*
X161357712Y-112373454D01*
X161554141Y-112040121D02*
X161661283Y-112897264D01*
X161625569Y-112992502D01*
X161536284Y-113040121D01*
X161441046Y-113040121D01*
X161167235Y-112373454D02*
X160786283Y-112373454D01*
X160982712Y-112040121D02*
X161089854Y-112897264D01*
X161054140Y-112992502D01*
X160964855Y-113040121D01*
X160869617Y-113040121D01*
X160452949Y-112373454D02*
X160577949Y-113373454D01*
X160458902Y-112421073D02*
X160357711Y-112373454D01*
X160167234Y-112373454D01*
X160077949Y-112421073D01*
X160036282Y-112468692D01*
X160000568Y-112563930D01*
X160036282Y-112849645D01*
X160095806Y-112944883D01*
X160149377Y-112992502D01*
X160250568Y-113040121D01*
X160441045Y-113040121D01*
X160530330Y-112992502D01*
X159673187Y-112992502D02*
X159583902Y-113040121D01*
X159393426Y-113040121D01*
X159292234Y-112992502D01*
X159232710Y-112897264D01*
X159226758Y-112849645D01*
X159262472Y-112754407D01*
X159351759Y-112706788D01*
X159494616Y-112706788D01*
X159583902Y-112659169D01*
X159619616Y-112563930D01*
X159613663Y-112516311D01*
X159554140Y-112421073D01*
X159452949Y-112373454D01*
X159310092Y-112373454D01*
X159220806Y-112421073D01*
X158810092Y-112944883D02*
X158768425Y-112992502D01*
X158821997Y-113040121D01*
X158863663Y-112992502D01*
X158810092Y-112944883D01*
X158821997Y-113040121D01*
X158744616Y-112421073D02*
X158702949Y-112468692D01*
X158756520Y-112516311D01*
X158798187Y-112468692D01*
X158744616Y-112421073D01*
X158756520Y-112516311D01*
X157500568Y-111992502D02*
X158518426Y-113278216D01*
X156452949Y-111992502D02*
X157470807Y-113278216D01*
X155738663Y-112373454D02*
X155839854Y-113182978D01*
X155899378Y-113278216D01*
X155952949Y-113325835D01*
X156054140Y-113373454D01*
X156196997Y-113373454D01*
X156286283Y-113325835D01*
X155816044Y-112992502D02*
X155917235Y-113040121D01*
X156107712Y-113040121D01*
X156196997Y-112992502D01*
X156238664Y-112944883D01*
X156274378Y-112849645D01*
X156238664Y-112563930D01*
X156179140Y-112468692D01*
X156125569Y-112421073D01*
X156024378Y-112373454D01*
X155833901Y-112373454D01*
X155744616Y-112421073D01*
X155345807Y-113040121D02*
X155262473Y-112373454D01*
X155220807Y-112040121D02*
X155274378Y-112087740D01*
X155232711Y-112135359D01*
X155179140Y-112087740D01*
X155220807Y-112040121D01*
X155232711Y-112135359D01*
X154929140Y-112373454D02*
X154548188Y-112373454D01*
X154744617Y-112040121D02*
X154851759Y-112897264D01*
X154816045Y-112992502D01*
X154726760Y-113040121D01*
X154631522Y-113040121D01*
X154298188Y-113040121D02*
X154173188Y-112040121D01*
X153869616Y-113040121D02*
X153804139Y-112516311D01*
X153839854Y-112421073D01*
X153929139Y-112373454D01*
X154071997Y-112373454D01*
X154173188Y-112421073D01*
X154226759Y-112468692D01*
X152881520Y-112373454D02*
X152964854Y-113040121D01*
X153310092Y-112373454D02*
X153375568Y-112897264D01*
X153339854Y-112992502D01*
X153250569Y-113040121D01*
X153107711Y-113040121D01*
X153006520Y-112992502D01*
X152952949Y-112944883D01*
X152488664Y-113040121D02*
X152363664Y-112040121D01*
X152411283Y-112421073D02*
X152310092Y-112373454D01*
X152119615Y-112373454D01*
X152030330Y-112421073D01*
X151988663Y-112468692D01*
X151952949Y-112563930D01*
X151988663Y-112849645D01*
X152048187Y-112944883D01*
X152101758Y-112992502D01*
X152202949Y-113040121D01*
X152393426Y-113040121D01*
X152482711Y-112992502D01*
X151571997Y-112944883D02*
X151530330Y-112992502D01*
X151583902Y-113040121D01*
X151625568Y-112992502D01*
X151571997Y-112944883D01*
X151583902Y-113040121D01*
X150673187Y-112992502D02*
X150774378Y-113040121D01*
X150964855Y-113040121D01*
X151054140Y-112992502D01*
X151095807Y-112944883D01*
X151131521Y-112849645D01*
X151095807Y-112563930D01*
X151036283Y-112468692D01*
X150982712Y-112421073D01*
X150881521Y-112373454D01*
X150691044Y-112373454D01*
X150601759Y-112421073D01*
X150107712Y-113040121D02*
X150196997Y-112992502D01*
X150238664Y-112944883D01*
X150274378Y-112849645D01*
X150238664Y-112563930D01*
X150179140Y-112468692D01*
X150125569Y-112421073D01*
X150024378Y-112373454D01*
X149881520Y-112373454D01*
X149792235Y-112421073D01*
X149750568Y-112468692D01*
X149714854Y-112563930D01*
X149750568Y-112849645D01*
X149810092Y-112944883D01*
X149863663Y-112992502D01*
X149964854Y-113040121D01*
X150107712Y-113040121D01*
X149345807Y-113040121D02*
X149262473Y-112373454D01*
X149274378Y-112468692D02*
X149220807Y-112421073D01*
X149119616Y-112373454D01*
X148976758Y-112373454D01*
X148887473Y-112421073D01*
X148851758Y-112516311D01*
X148917235Y-113040121D01*
X148851758Y-112516311D02*
X148792235Y-112421073D01*
X148691044Y-112373454D01*
X148548187Y-112373454D01*
X148458902Y-112421073D01*
X148423187Y-112516311D01*
X148488664Y-113040121D01*
X147167235Y-111992502D02*
X148185093Y-113278216D01*
X147024378Y-112373454D02*
X146643426Y-112373454D01*
X146839855Y-112040121D02*
X146946997Y-112897264D01*
X146911283Y-112992502D01*
X146821998Y-113040121D01*
X146726760Y-113040121D01*
X146393426Y-113040121D02*
X146268426Y-112040121D01*
X145964854Y-113040121D02*
X145899377Y-112516311D01*
X145935092Y-112421073D01*
X146024377Y-112373454D01*
X146167235Y-112373454D01*
X146268426Y-112421073D01*
X146321997Y-112468692D01*
X145101758Y-112992502D02*
X145202949Y-113040121D01*
X145393426Y-113040121D01*
X145482711Y-112992502D01*
X145518425Y-112897264D01*
X145470806Y-112516311D01*
X145411283Y-112421073D01*
X145310092Y-112373454D01*
X145119615Y-112373454D01*
X145030330Y-112421073D01*
X144994615Y-112516311D01*
X145006520Y-112611550D01*
X145494616Y-112706788D01*
X144202949Y-113040121D02*
X144137472Y-112516311D01*
X144173187Y-112421073D01*
X144262472Y-112373454D01*
X144452949Y-112373454D01*
X144554140Y-112421073D01*
X144196996Y-112992502D02*
X144298187Y-113040121D01*
X144536283Y-113040121D01*
X144625568Y-112992502D01*
X144661282Y-112897264D01*
X144649378Y-112802026D01*
X144589854Y-112706788D01*
X144488664Y-112659169D01*
X144250568Y-112659169D01*
X144149377Y-112611550D01*
X143643425Y-112373454D02*
X143768425Y-113373454D01*
X143649378Y-112421073D02*
X143548187Y-112373454D01*
X143357710Y-112373454D01*
X143268425Y-112421073D01*
X143226758Y-112468692D01*
X143191044Y-112563930D01*
X143226758Y-112849645D01*
X143286282Y-112944883D01*
X143339853Y-112992502D01*
X143441044Y-113040121D01*
X143631521Y-113040121D01*
X143720806Y-112992502D01*
X142821997Y-113040121D02*
X142738663Y-112373454D01*
X142696997Y-112040121D02*
X142750568Y-112087740D01*
X142708901Y-112135359D01*
X142655330Y-112087740D01*
X142696997Y-112040121D01*
X142708901Y-112135359D01*
X141500568Y-111992502D02*
X142518426Y-113278216D01*
X141357711Y-112373454D02*
X140976759Y-112373454D01*
X141173188Y-112040121D02*
X141280330Y-112897264D01*
X141244616Y-112992502D01*
X141155331Y-113040121D01*
X141060093Y-113040121D01*
X140583902Y-113040121D02*
X140673187Y-112992502D01*
X140714854Y-112944883D01*
X140750568Y-112849645D01*
X140714854Y-112563930D01*
X140655330Y-112468692D01*
X140601759Y-112421073D01*
X140500568Y-112373454D01*
X140357710Y-112373454D01*
X140268425Y-112421073D01*
X140226758Y-112468692D01*
X140191044Y-112563930D01*
X140226758Y-112849645D01*
X140286282Y-112944883D01*
X140339853Y-112992502D01*
X140441044Y-113040121D01*
X140583902Y-113040121D01*
X139310091Y-112373454D02*
X139393425Y-113040121D01*
X139738663Y-112373454D02*
X139804139Y-112897264D01*
X139768425Y-112992502D01*
X139679140Y-113040121D01*
X139536282Y-113040121D01*
X139435091Y-112992502D01*
X139381520Y-112944883D01*
X138482710Y-112992502D02*
X138583901Y-113040121D01*
X138774378Y-113040121D01*
X138863663Y-112992502D01*
X138905330Y-112944883D01*
X138941044Y-112849645D01*
X138905330Y-112563930D01*
X138845806Y-112468692D01*
X138792235Y-112421073D01*
X138691044Y-112373454D01*
X138500567Y-112373454D01*
X138411282Y-112421073D01*
X138060092Y-113040121D02*
X137935092Y-112040121D01*
X137631520Y-113040121D02*
X137566043Y-112516311D01*
X137601758Y-112421073D01*
X137691043Y-112373454D01*
X137833901Y-112373454D01*
X137935092Y-112421073D01*
X137988663Y-112468692D01*
X137405329Y-113135359D02*
X136643424Y-113135359D01*
X136452948Y-112373454D02*
X136071996Y-112373454D01*
X136268425Y-112040121D02*
X136375567Y-112897264D01*
X136339853Y-112992502D01*
X136250568Y-113040121D01*
X136155330Y-113040121D01*
X135821996Y-113040121D02*
X135738662Y-112373454D01*
X135696996Y-112040121D02*
X135750567Y-112087740D01*
X135708900Y-112135359D01*
X135655329Y-112087740D01*
X135696996Y-112040121D01*
X135708900Y-112135359D01*
X135345806Y-113040121D02*
X135262472Y-112373454D01*
X135274377Y-112468692D02*
X135220806Y-112421073D01*
X135119615Y-112373454D01*
X134976757Y-112373454D01*
X134887472Y-112421073D01*
X134851757Y-112516311D01*
X134917234Y-113040121D01*
X134851757Y-112516311D02*
X134792234Y-112421073D01*
X134691043Y-112373454D01*
X134548186Y-112373454D01*
X134458901Y-112421073D01*
X134423186Y-112516311D01*
X134488663Y-113040121D01*
X133625567Y-112992502D02*
X133726758Y-113040121D01*
X133917235Y-113040121D01*
X134006520Y-112992502D01*
X134042234Y-112897264D01*
X133994615Y-112516311D01*
X133935092Y-112421073D01*
X133833901Y-112373454D01*
X133643424Y-112373454D01*
X133554139Y-112421073D01*
X133518424Y-112516311D01*
X133530329Y-112611550D01*
X134018425Y-112706788D01*
X133155330Y-113040121D02*
X133071996Y-112373454D01*
X133095806Y-112563930D02*
X133036282Y-112468692D01*
X132982711Y-112421073D01*
X132881520Y-112373454D01*
X132786281Y-112373454D01*
X160607713Y-114590121D02*
X160482713Y-113590121D01*
X160464856Y-114209169D02*
X160226760Y-114590121D01*
X160143426Y-113923454D02*
X160571998Y-114304407D01*
X159798189Y-114590121D02*
X159714855Y-113923454D01*
X159673189Y-113590121D02*
X159726760Y-113637740D01*
X159685093Y-113685359D01*
X159631522Y-113637740D01*
X159673189Y-113590121D01*
X159685093Y-113685359D01*
X158887474Y-114542502D02*
X158988665Y-114590121D01*
X159179142Y-114590121D01*
X159268427Y-114542502D01*
X159310094Y-114494883D01*
X159345808Y-114399645D01*
X159310094Y-114113930D01*
X159250570Y-114018692D01*
X159196999Y-113971073D01*
X159095808Y-113923454D01*
X158905331Y-113923454D01*
X158816046Y-113971073D01*
X158036284Y-114590121D02*
X157970807Y-114066311D01*
X158006522Y-113971073D01*
X158095807Y-113923454D01*
X158286284Y-113923454D01*
X158387475Y-113971073D01*
X158030331Y-114542502D02*
X158131522Y-114590121D01*
X158369618Y-114590121D01*
X158458903Y-114542502D01*
X158494617Y-114447264D01*
X158482713Y-114352026D01*
X158423189Y-114256788D01*
X158321999Y-114209169D01*
X158083903Y-114209169D01*
X157982712Y-114161550D01*
X157131522Y-114590121D02*
X157006522Y-113590121D01*
X157125569Y-114542502D02*
X157226760Y-114590121D01*
X157417237Y-114590121D01*
X157506522Y-114542502D01*
X157548189Y-114494883D01*
X157583903Y-114399645D01*
X157548189Y-114113930D01*
X157488665Y-114018692D01*
X157435094Y-113971073D01*
X157333903Y-113923454D01*
X157143426Y-113923454D01*
X157054141Y-113971073D01*
X155810093Y-113542502D02*
X156827951Y-114828216D01*
X155220807Y-114542502D02*
X155321998Y-114590121D01*
X155512475Y-114590121D01*
X155601760Y-114542502D01*
X155637474Y-114447264D01*
X155589855Y-114066311D01*
X155530332Y-113971073D01*
X155429141Y-113923454D01*
X155238664Y-113923454D01*
X155149379Y-113971073D01*
X155113664Y-114066311D01*
X155125569Y-114161550D01*
X155613665Y-114256788D01*
X154845808Y-114590121D02*
X154238664Y-113923454D01*
X154762474Y-113923454D02*
X154321998Y-114590121D01*
X153857712Y-113923454D02*
X153982712Y-114923454D01*
X153863665Y-113971073D02*
X153762474Y-113923454D01*
X153571997Y-113923454D01*
X153482712Y-113971073D01*
X153441045Y-114018692D01*
X153405331Y-114113930D01*
X153441045Y-114399645D01*
X153500569Y-114494883D01*
X153554140Y-114542502D01*
X153655331Y-114590121D01*
X153845808Y-114590121D01*
X153935093Y-114542502D01*
X152649378Y-114542502D02*
X152750569Y-114590121D01*
X152941046Y-114590121D01*
X153030331Y-114542502D01*
X153066045Y-114447264D01*
X153018426Y-114066311D01*
X152958903Y-113971073D01*
X152857712Y-113923454D01*
X152667235Y-113923454D01*
X152577950Y-113971073D01*
X152542235Y-114066311D01*
X152554140Y-114161550D01*
X153042236Y-114256788D01*
X152179141Y-114590121D02*
X152095807Y-113923454D01*
X152119617Y-114113930D02*
X152060093Y-114018692D01*
X152006522Y-113971073D01*
X151905331Y-113923454D01*
X151810092Y-113923454D01*
X151560093Y-114590121D02*
X151476759Y-113923454D01*
X151435093Y-113590121D02*
X151488664Y-113637740D01*
X151446997Y-113685359D01*
X151393426Y-113637740D01*
X151435093Y-113590121D01*
X151446997Y-113685359D01*
X151083903Y-114590121D02*
X151000569Y-113923454D01*
X151012474Y-114018692D02*
X150958903Y-113971073D01*
X150857712Y-113923454D01*
X150714854Y-113923454D01*
X150625569Y-113971073D01*
X150589854Y-114066311D01*
X150655331Y-114590121D01*
X150589854Y-114066311D02*
X150530331Y-113971073D01*
X150429140Y-113923454D01*
X150286283Y-113923454D01*
X150196998Y-113971073D01*
X150161283Y-114066311D01*
X150226760Y-114590121D01*
X149363664Y-114542502D02*
X149464855Y-114590121D01*
X149655332Y-114590121D01*
X149744617Y-114542502D01*
X149780331Y-114447264D01*
X149732712Y-114066311D01*
X149673189Y-113971073D01*
X149571998Y-113923454D01*
X149381521Y-113923454D01*
X149292236Y-113971073D01*
X149256521Y-114066311D01*
X149268426Y-114161550D01*
X149756522Y-114256788D01*
X148810093Y-113923454D02*
X148893427Y-114590121D01*
X148821998Y-114018692D02*
X148768427Y-113971073D01*
X148667236Y-113923454D01*
X148524378Y-113923454D01*
X148435093Y-113971073D01*
X148399378Y-114066311D01*
X148464855Y-114590121D01*
X148048188Y-113923454D02*
X147667236Y-113923454D01*
X147863665Y-113590121D02*
X147970807Y-114447264D01*
X147935093Y-114542502D01*
X147845808Y-114590121D01*
X147750570Y-114590121D01*
X147458902Y-114542502D02*
X147369617Y-114590121D01*
X147179141Y-114590121D01*
X147077949Y-114542502D01*
X147018425Y-114447264D01*
X147012473Y-114399645D01*
X147048187Y-114304407D01*
X147137474Y-114256788D01*
X147280331Y-114256788D01*
X147369617Y-114209169D01*
X147405331Y-114113930D01*
X147399378Y-114066311D01*
X147339855Y-113971073D01*
X147238664Y-113923454D01*
X147095807Y-113923454D01*
X147006521Y-113971073D01*
X145762473Y-113542502D02*
X146780331Y-114828216D01*
X145125568Y-114542502D02*
X145226759Y-114590121D01*
X145417236Y-114590121D01*
X145506521Y-114542502D01*
X145548188Y-114494883D01*
X145583902Y-114399645D01*
X145548188Y-114113930D01*
X145488664Y-114018692D01*
X145435093Y-113971073D01*
X145333902Y-113923454D01*
X145143425Y-113923454D01*
X145054140Y-113971073D01*
X144560093Y-114590121D02*
X144649378Y-114542502D01*
X144685092Y-114447264D01*
X144577950Y-113590121D01*
X144036283Y-114590121D02*
X144125568Y-114542502D01*
X144167235Y-114494883D01*
X144202949Y-114399645D01*
X144167235Y-114113930D01*
X144107711Y-114018692D01*
X144054140Y-113971073D01*
X143952949Y-113923454D01*
X143810091Y-113923454D01*
X143720806Y-113971073D01*
X143679139Y-114018692D01*
X143643425Y-114113930D01*
X143679139Y-114399645D01*
X143738663Y-114494883D01*
X143792234Y-114542502D01*
X143893425Y-114590121D01*
X144036283Y-114590121D01*
X142839853Y-114542502D02*
X142941044Y-114590121D01*
X143131521Y-114590121D01*
X143220806Y-114542502D01*
X143262473Y-114494883D01*
X143298187Y-114399645D01*
X143262473Y-114113930D01*
X143202949Y-114018692D01*
X143149378Y-113971073D01*
X143048187Y-113923454D01*
X142857710Y-113923454D01*
X142768425Y-113971073D01*
X142417235Y-114590121D02*
X142292235Y-113590121D01*
X142274378Y-114209169D02*
X142036282Y-114590121D01*
X141952948Y-113923454D02*
X142381520Y-114304407D01*
X141667234Y-113923454D02*
X141286282Y-113923454D01*
X141607711Y-114590121D02*
X141500568Y-113732978D01*
X141441044Y-113637740D01*
X141339854Y-113590121D01*
X141244616Y-113590121D01*
X140607710Y-114590121D02*
X140542233Y-114066311D01*
X140577948Y-113971073D01*
X140667233Y-113923454D01*
X140857710Y-113923454D01*
X140958901Y-113971073D01*
X140601757Y-114542502D02*
X140702948Y-114590121D01*
X140941044Y-114590121D01*
X141030329Y-114542502D01*
X141066043Y-114447264D01*
X141054139Y-114352026D01*
X140994615Y-114256788D01*
X140893425Y-114209169D01*
X140655329Y-114209169D01*
X140554138Y-114161550D01*
X139696995Y-114542502D02*
X139798186Y-114590121D01*
X139988663Y-114590121D01*
X140077948Y-114542502D01*
X140119615Y-114494883D01*
X140155329Y-114399645D01*
X140119615Y-114113930D01*
X140060091Y-114018692D01*
X140006520Y-113971073D01*
X139905329Y-113923454D01*
X139714852Y-113923454D01*
X139625567Y-113971073D01*
X138887471Y-114542502D02*
X138988662Y-114590121D01*
X139179139Y-114590121D01*
X139268424Y-114542502D01*
X139304138Y-114447264D01*
X139256519Y-114066311D01*
X139196996Y-113971073D01*
X139095805Y-113923454D01*
X138905328Y-113923454D01*
X138816043Y-113971073D01*
X138780328Y-114066311D01*
X138792233Y-114161550D01*
X139280329Y-114256788D01*
X137667233Y-113923454D02*
X137512472Y-114590121D01*
X137191042Y-113923454D01*
X136369614Y-114590121D02*
X136941043Y-114590121D01*
X136655329Y-114590121D02*
X136530329Y-113590121D01*
X136643424Y-113732978D01*
X136750566Y-113828216D01*
X136851757Y-113875835D01*
X135929138Y-114494883D02*
X135887471Y-114542502D01*
X135941043Y-114590121D01*
X135982709Y-114542502D01*
X135929138Y-114494883D01*
X135941043Y-114590121D01*
X135149377Y-113590121D02*
X135054138Y-113590121D01*
X134964852Y-113637740D01*
X134923185Y-113685359D01*
X134887471Y-113780597D01*
X134863662Y-113971073D01*
X134893424Y-114209169D01*
X134964852Y-114399645D01*
X135024376Y-114494883D01*
X135077947Y-114542502D01*
X135179138Y-114590121D01*
X135274377Y-114590121D01*
X135363662Y-114542502D01*
X135405329Y-114494883D01*
X135441043Y-114399645D01*
X135464853Y-114209169D01*
X135435091Y-113971073D01*
X135363662Y-113780597D01*
X135304138Y-113685359D01*
X135250567Y-113637740D01*
X135149377Y-113590121D01*
X127915307Y-75063442D02*
X127969245Y-74971635D01*
X128089055Y-74893830D01*
X128234801Y-74855960D01*
X128366545Y-74883963D01*
X128458352Y-74937901D01*
X128602029Y-75071713D01*
X128679835Y-75191524D01*
X128743639Y-75377205D01*
X128755573Y-75483014D01*
X128727570Y-75614757D01*
X128633694Y-75732500D01*
X128553821Y-75784370D01*
X128408076Y-75822239D01*
X128342204Y-75808238D01*
X128160658Y-75528681D01*
X128320404Y-75424941D01*
X128034644Y-76121528D02*
X127490005Y-75282857D01*
X127555404Y-76432750D01*
X127010765Y-75594080D01*
X127156037Y-76692102D02*
X126611398Y-75853431D01*
X126411715Y-75983107D01*
X126317839Y-76100850D01*
X126289836Y-76232593D01*
X126301770Y-76338402D01*
X126365574Y-76524084D01*
X126443380Y-76643894D01*
X126587057Y-76777706D01*
X126678864Y-76831644D01*
X126810608Y-76859647D01*
X126956354Y-76821778D01*
X127156037Y-76692102D01*
X131093822Y-75784370D02*
X130549183Y-74945699D01*
X130694455Y-76043722D02*
X130149816Y-75205051D01*
X130215214Y-76354944D01*
X129670575Y-75516274D01*
X129391019Y-75697820D02*
X128911778Y-76009042D01*
X129696038Y-76692101D02*
X129151399Y-75853431D01*
X136153475Y-75575854D02*
X136059600Y-75693597D01*
X135859916Y-75823273D01*
X135754108Y-75835207D01*
X135688236Y-75821205D01*
X135596429Y-75767267D01*
X135544559Y-75687394D01*
X135532625Y-75581585D01*
X135546626Y-75515713D01*
X135600564Y-75423906D01*
X135734376Y-75280228D01*
X135788314Y-75188421D01*
X135802316Y-75122549D01*
X135790382Y-75016740D01*
X135738512Y-74936867D01*
X135646705Y-74882929D01*
X135580833Y-74868927D01*
X135475025Y-74880861D01*
X135275341Y-75010538D01*
X135181466Y-75128280D01*
X135340740Y-76160430D02*
X134796101Y-75321760D01*
X134596417Y-75451435D01*
X134502542Y-75569178D01*
X134474539Y-75700922D01*
X134486472Y-75806730D01*
X134550276Y-75992412D01*
X134628083Y-76112223D01*
X134771760Y-76246034D01*
X134863567Y-76299972D01*
X134995310Y-76327975D01*
X135141056Y-76290106D01*
X135340740Y-76160430D01*
X134386395Y-76439514D02*
X133987027Y-76698866D01*
X134621879Y-76627264D02*
X133797683Y-75970139D01*
X134062765Y-76990357D01*
X133720506Y-75588822D02*
X133626632Y-75706564D01*
X133426947Y-75836241D01*
X133321139Y-75848174D01*
X133255267Y-75834173D01*
X133163460Y-75780235D01*
X133111590Y-75700362D01*
X133099656Y-75594553D01*
X133113658Y-75528681D01*
X133167595Y-75436873D01*
X133301408Y-75293196D01*
X133355346Y-75201389D01*
X133369347Y-75135517D01*
X133357413Y-75029708D01*
X133305543Y-74949835D01*
X133213736Y-74895897D01*
X133147864Y-74881895D01*
X133042056Y-74893829D01*
X132842372Y-75023505D01*
X132748497Y-75141248D01*
X132376660Y-76404747D02*
X132442532Y-76418749D01*
X132588277Y-76380880D01*
X132668150Y-76329010D01*
X132762026Y-76211267D01*
X132790029Y-76079523D01*
X132778095Y-75973715D01*
X132714291Y-75788033D01*
X132636485Y-75668222D01*
X132492808Y-75534411D01*
X132401001Y-75480473D01*
X132269257Y-75452470D01*
X132123511Y-75490339D01*
X132043638Y-75542209D01*
X131949763Y-75659951D01*
X131935762Y-75725823D01*
X131669733Y-76977389D02*
X132069100Y-76718037D01*
X131524461Y-75879366D01*
X139026116Y-75527921D02*
X138407068Y-75527921D01*
X138740402Y-75908873D01*
X138597544Y-75908873D01*
X138502306Y-75956492D01*
X138454687Y-76004111D01*
X138407068Y-76099350D01*
X138407068Y-76337445D01*
X138454687Y-76432683D01*
X138502306Y-76480302D01*
X138597544Y-76527921D01*
X138883259Y-76527921D01*
X138978497Y-76480302D01*
X139026116Y-76432683D01*
X138073735Y-75861254D02*
X137835640Y-76527921D01*
X137597544Y-75861254D01*
X137311830Y-75527921D02*
X136692782Y-75527921D01*
X137026116Y-75908873D01*
X136883258Y-75908873D01*
X136788020Y-75956492D01*
X136740401Y-76004111D01*
X136692782Y-76099350D01*
X136692782Y-76337445D01*
X136740401Y-76432683D01*
X136788020Y-76480302D01*
X136883258Y-76527921D01*
X137168973Y-76527921D01*
X137264211Y-76480302D01*
X137311830Y-76432683D01*
X158528640Y-93765740D02*
X157528640Y-93765740D01*
X157528640Y-92065740D02*
X158528640Y-92065740D01*
X166322640Y-92145740D02*
X166322640Y-91145740D01*
X168022640Y-91145740D02*
X168022640Y-92145740D01*
X167883640Y-75504740D02*
X165183640Y-75504740D01*
X167883640Y-74004740D02*
X165183640Y-74004740D01*
X166383640Y-74904740D02*
X166383640Y-74654740D01*
X166383640Y-74654740D02*
X166533640Y-74804740D01*
X166633640Y-74404740D02*
X166633640Y-75104740D01*
X166283640Y-74754740D02*
X165933640Y-74754740D01*
X166633640Y-74754740D02*
X166283640Y-74404740D01*
X166283640Y-74404740D02*
X166283640Y-75104740D01*
X166283640Y-75104740D02*
X166633640Y-74754740D01*
X162586640Y-75608740D02*
X162586640Y-74408740D01*
X160836640Y-74408740D02*
X160836640Y-75608740D01*
X147014640Y-101410740D02*
X148214640Y-101410740D01*
X148214640Y-99660740D02*
X147014640Y-99660740D01*
X147268640Y-87186740D02*
X148468640Y-87186740D01*
X148468640Y-85436740D02*
X147268640Y-85436740D01*
X147268640Y-84392740D02*
X148468640Y-84392740D01*
X148468640Y-82642740D02*
X147268640Y-82642740D01*
X147014640Y-103696740D02*
X148214640Y-103696740D01*
X148214640Y-101946740D02*
X147014640Y-101946740D01*
X136438640Y-72316340D02*
X136438640Y-70309740D01*
X139258040Y-72036940D02*
X139258040Y-70030340D01*
X139258640Y-70029740D02*
X137708640Y-70029740D01*
X136438640Y-72341740D02*
X136438640Y-74881740D01*
X137708640Y-75161740D02*
X139258640Y-75161740D01*
X139258640Y-75161740D02*
X139258640Y-72061740D01*
X144826000Y-99178000D02*
X144826000Y-98528000D01*
X150576000Y-99178000D02*
X150576000Y-98528000D01*
X150576000Y-88528000D02*
X150576000Y-89178000D01*
X144826000Y-88528000D02*
X144826000Y-89178000D01*
X144826000Y-99178000D02*
X150576000Y-99178000D01*
X144826000Y-88528000D02*
X150576000Y-88528000D01*
X144826000Y-98528000D02*
X143226000Y-98528000D01*
X158195306Y-95372883D02*
X158242925Y-95420502D01*
X158385782Y-95468121D01*
X158481020Y-95468121D01*
X158623878Y-95420502D01*
X158719116Y-95325264D01*
X158766735Y-95230026D01*
X158814354Y-95039550D01*
X158814354Y-94896692D01*
X158766735Y-94706216D01*
X158719116Y-94610978D01*
X158623878Y-94515740D01*
X158481020Y-94468121D01*
X158385782Y-94468121D01*
X158242925Y-94515740D01*
X158195306Y-94563359D01*
X157242925Y-95468121D02*
X157814354Y-95468121D01*
X157528640Y-95468121D02*
X157528640Y-94468121D01*
X157623878Y-94610978D01*
X157719116Y-94706216D01*
X157814354Y-94753835D01*
X159544497Y-90209121D02*
X159449258Y-90209121D01*
X159354020Y-90256740D01*
X159306401Y-90304359D01*
X159258782Y-90399597D01*
X159211163Y-90590073D01*
X159211163Y-90828169D01*
X159258782Y-91018645D01*
X159306401Y-91113883D01*
X159354020Y-91161502D01*
X159449258Y-91209121D01*
X159544497Y-91209121D01*
X159639735Y-91161502D01*
X159687354Y-91113883D01*
X159734973Y-91018645D01*
X159782592Y-90828169D01*
X159782592Y-90590073D01*
X159734973Y-90399597D01*
X159687354Y-90304359D01*
X159639735Y-90256740D01*
X159544497Y-90209121D01*
X158782592Y-91113883D02*
X158734973Y-91161502D01*
X158782592Y-91209121D01*
X158830211Y-91161502D01*
X158782592Y-91113883D01*
X158782592Y-91209121D01*
X157782592Y-91209121D02*
X158354021Y-91209121D01*
X158068307Y-91209121D02*
X158068307Y-90209121D01*
X158163545Y-90351978D01*
X158258783Y-90447216D01*
X158354021Y-90494835D01*
X156925449Y-90542454D02*
X156925449Y-91209121D01*
X157354021Y-90542454D02*
X157354021Y-91066264D01*
X157306402Y-91161502D01*
X157211164Y-91209121D01*
X157068306Y-91209121D01*
X156973068Y-91161502D01*
X156925449Y-91113883D01*
X156115925Y-90685311D02*
X156449259Y-90685311D01*
X156449259Y-91209121D02*
X156449259Y-90209121D01*
X155973068Y-90209121D01*
X165180306Y-91494883D02*
X165227925Y-91542502D01*
X165370782Y-91590121D01*
X165466020Y-91590121D01*
X165608878Y-91542502D01*
X165704116Y-91447264D01*
X165751735Y-91352026D01*
X165799354Y-91161550D01*
X165799354Y-91018692D01*
X165751735Y-90828216D01*
X165704116Y-90732978D01*
X165608878Y-90637740D01*
X165466020Y-90590121D01*
X165370782Y-90590121D01*
X165227925Y-90637740D01*
X165180306Y-90685359D01*
X164799354Y-90685359D02*
X164751735Y-90637740D01*
X164656497Y-90590121D01*
X164418401Y-90590121D01*
X164323163Y-90637740D01*
X164275544Y-90685359D01*
X164227925Y-90780597D01*
X164227925Y-90875835D01*
X164275544Y-91018692D01*
X164846973Y-91590121D01*
X164227925Y-91590121D01*
X165196068Y-93114121D02*
X165767497Y-93114121D01*
X165481783Y-93114121D02*
X165481783Y-92114121D01*
X165577021Y-92256978D01*
X165672259Y-92352216D01*
X165767497Y-92399835D01*
X164577021Y-92114121D02*
X164481782Y-92114121D01*
X164386544Y-92161740D01*
X164338925Y-92209359D01*
X164291306Y-92304597D01*
X164243687Y-92495073D01*
X164243687Y-92733169D01*
X164291306Y-92923645D01*
X164338925Y-93018883D01*
X164386544Y-93066502D01*
X164481782Y-93114121D01*
X164577021Y-93114121D01*
X164672259Y-93066502D01*
X164719878Y-93018883D01*
X164767497Y-92923645D01*
X164815116Y-92733169D01*
X164815116Y-92495073D01*
X164767497Y-92304597D01*
X164719878Y-92209359D01*
X164672259Y-92161740D01*
X164577021Y-92114121D01*
X163386544Y-92447454D02*
X163386544Y-93114121D01*
X163815116Y-92447454D02*
X163815116Y-92971264D01*
X163767497Y-93066502D01*
X163672259Y-93114121D01*
X163529401Y-93114121D01*
X163434163Y-93066502D01*
X163386544Y-93018883D01*
X162577020Y-92590311D02*
X162910354Y-92590311D01*
X162910354Y-93114121D02*
X162910354Y-92114121D01*
X162434163Y-92114121D01*
X166894735Y-76858121D02*
X166894735Y-75858121D01*
X166656640Y-75858121D01*
X166513782Y-75905740D01*
X166418544Y-76000978D01*
X166370925Y-76096216D01*
X166323306Y-76286692D01*
X166323306Y-76429550D01*
X166370925Y-76620026D01*
X166418544Y-76715264D01*
X166513782Y-76810502D01*
X166656640Y-76858121D01*
X166894735Y-76858121D01*
X165370925Y-76858121D02*
X165942354Y-76858121D01*
X165656640Y-76858121D02*
X165656640Y-75858121D01*
X165751878Y-76000978D01*
X165847116Y-76096216D01*
X165942354Y-76143835D01*
X159719306Y-74826121D02*
X160052640Y-74349930D01*
X160290735Y-74826121D02*
X160290735Y-73826121D01*
X159909782Y-73826121D01*
X159814544Y-73873740D01*
X159766925Y-73921359D01*
X159719306Y-74016597D01*
X159719306Y-74159454D01*
X159766925Y-74254692D01*
X159814544Y-74302311D01*
X159909782Y-74349930D01*
X160290735Y-74349930D01*
X158766925Y-74826121D02*
X159338354Y-74826121D01*
X159052640Y-74826121D02*
X159052640Y-73826121D01*
X159147878Y-73968978D01*
X159243116Y-74064216D01*
X159338354Y-74111835D01*
X160092259Y-75778692D02*
X160187497Y-75731073D01*
X160235116Y-75683454D01*
X160282735Y-75588216D01*
X160282735Y-75540597D01*
X160235116Y-75445359D01*
X160187497Y-75397740D01*
X160092259Y-75350121D01*
X159901782Y-75350121D01*
X159806544Y-75397740D01*
X159758925Y-75445359D01*
X159711306Y-75540597D01*
X159711306Y-75588216D01*
X159758925Y-75683454D01*
X159806544Y-75731073D01*
X159901782Y-75778692D01*
X160092259Y-75778692D01*
X160187497Y-75826311D01*
X160235116Y-75873930D01*
X160282735Y-75969169D01*
X160282735Y-76159645D01*
X160235116Y-76254883D01*
X160187497Y-76302502D01*
X160092259Y-76350121D01*
X159901782Y-76350121D01*
X159806544Y-76302502D01*
X159758925Y-76254883D01*
X159711306Y-76159645D01*
X159711306Y-75969169D01*
X159758925Y-75873930D01*
X159806544Y-75826311D01*
X159901782Y-75778692D01*
X159330354Y-75445359D02*
X159282735Y-75397740D01*
X159187497Y-75350121D01*
X158949401Y-75350121D01*
X158854163Y-75397740D01*
X158806544Y-75445359D01*
X158758925Y-75540597D01*
X158758925Y-75635835D01*
X158806544Y-75778692D01*
X159377973Y-76350121D01*
X158758925Y-76350121D01*
X158139878Y-75350121D02*
X158044639Y-75350121D01*
X157949401Y-75397740D01*
X157901782Y-75445359D01*
X157854163Y-75540597D01*
X157806544Y-75731073D01*
X157806544Y-75969169D01*
X157854163Y-76159645D01*
X157901782Y-76254883D01*
X157949401Y-76302502D01*
X158044639Y-76350121D01*
X158139878Y-76350121D01*
X158235116Y-76302502D01*
X158282735Y-76254883D01*
X158330354Y-76159645D01*
X158377973Y-75969169D01*
X158377973Y-75731073D01*
X158330354Y-75540597D01*
X158282735Y-75445359D01*
X158235116Y-75397740D01*
X158139878Y-75350121D01*
X144098306Y-100988121D02*
X144431640Y-100511930D01*
X144669735Y-100988121D02*
X144669735Y-99988121D01*
X144288782Y-99988121D01*
X144193544Y-100035740D01*
X144145925Y-100083359D01*
X144098306Y-100178597D01*
X144098306Y-100321454D01*
X144145925Y-100416692D01*
X144193544Y-100464311D01*
X144288782Y-100511930D01*
X144669735Y-100511930D01*
X143717354Y-100083359D02*
X143669735Y-100035740D01*
X143574497Y-99988121D01*
X143336401Y-99988121D01*
X143241163Y-100035740D01*
X143193544Y-100083359D01*
X143145925Y-100178597D01*
X143145925Y-100273835D01*
X143193544Y-100416692D01*
X143764973Y-100988121D01*
X143145925Y-100988121D01*
X152718307Y-100083359D02*
X152670688Y-100035740D01*
X152575450Y-99988121D01*
X152337354Y-99988121D01*
X152242116Y-100035740D01*
X152194497Y-100083359D01*
X152146878Y-100178597D01*
X152146878Y-100273835D01*
X152194497Y-100416692D01*
X152765926Y-100988121D01*
X152146878Y-100988121D01*
X151527831Y-99988121D02*
X151432592Y-99988121D01*
X151337354Y-100035740D01*
X151289735Y-100083359D01*
X151242116Y-100178597D01*
X151194497Y-100369073D01*
X151194497Y-100607169D01*
X151242116Y-100797645D01*
X151289735Y-100892883D01*
X151337354Y-100940502D01*
X151432592Y-100988121D01*
X151527831Y-100988121D01*
X151623069Y-100940502D01*
X151670688Y-100892883D01*
X151718307Y-100797645D01*
X151765926Y-100607169D01*
X151765926Y-100369073D01*
X151718307Y-100178597D01*
X151670688Y-100083359D01*
X151623069Y-100035740D01*
X151527831Y-99988121D01*
X150765926Y-100988121D02*
X150765926Y-99988121D01*
X150670688Y-100607169D02*
X150384973Y-100988121D01*
X150384973Y-100321454D02*
X150765926Y-100702407D01*
X144479306Y-86764121D02*
X144812640Y-86287930D01*
X145050735Y-86764121D02*
X145050735Y-85764121D01*
X144669782Y-85764121D01*
X144574544Y-85811740D01*
X144526925Y-85859359D01*
X144479306Y-85954597D01*
X144479306Y-86097454D01*
X144526925Y-86192692D01*
X144574544Y-86240311D01*
X144669782Y-86287930D01*
X145050735Y-86287930D01*
X144145973Y-85764121D02*
X143526925Y-85764121D01*
X143860259Y-86145073D01*
X143717401Y-86145073D01*
X143622163Y-86192692D01*
X143574544Y-86240311D01*
X143526925Y-86335550D01*
X143526925Y-86573645D01*
X143574544Y-86668883D01*
X143622163Y-86716502D01*
X143717401Y-86764121D01*
X144003116Y-86764121D01*
X144098354Y-86716502D01*
X144145973Y-86668883D01*
X152892973Y-86764121D02*
X153464402Y-86764121D01*
X153178688Y-86764121D02*
X153178688Y-85764121D01*
X153273926Y-85906978D01*
X153369164Y-86002216D01*
X153464402Y-86049835D01*
X152464402Y-86668883D02*
X152416783Y-86716502D01*
X152464402Y-86764121D01*
X152512021Y-86716502D01*
X152464402Y-86668883D01*
X152464402Y-86764121D01*
X151845355Y-86192692D02*
X151940593Y-86145073D01*
X151988212Y-86097454D01*
X152035831Y-86002216D01*
X152035831Y-85954597D01*
X151988212Y-85859359D01*
X151940593Y-85811740D01*
X151845355Y-85764121D01*
X151654878Y-85764121D01*
X151559640Y-85811740D01*
X151512021Y-85859359D01*
X151464402Y-85954597D01*
X151464402Y-86002216D01*
X151512021Y-86097454D01*
X151559640Y-86145073D01*
X151654878Y-86192692D01*
X151845355Y-86192692D01*
X151940593Y-86240311D01*
X151988212Y-86287930D01*
X152035831Y-86383169D01*
X152035831Y-86573645D01*
X151988212Y-86668883D01*
X151940593Y-86716502D01*
X151845355Y-86764121D01*
X151654878Y-86764121D01*
X151559640Y-86716502D01*
X151512021Y-86668883D01*
X151464402Y-86573645D01*
X151464402Y-86383169D01*
X151512021Y-86287930D01*
X151559640Y-86240311D01*
X151654878Y-86192692D01*
X151035831Y-86764121D02*
X151035831Y-85764121D01*
X150940593Y-86383169D02*
X150654878Y-86764121D01*
X150654878Y-86097454D02*
X151035831Y-86478407D01*
X144479306Y-83970121D02*
X144812640Y-83493930D01*
X145050735Y-83970121D02*
X145050735Y-82970121D01*
X144669782Y-82970121D01*
X144574544Y-83017740D01*
X144526925Y-83065359D01*
X144479306Y-83160597D01*
X144479306Y-83303454D01*
X144526925Y-83398692D01*
X144574544Y-83446311D01*
X144669782Y-83493930D01*
X145050735Y-83493930D01*
X143622163Y-83303454D02*
X143622163Y-83970121D01*
X143860259Y-82922502D02*
X144098354Y-83636788D01*
X143479306Y-83636788D01*
X152892973Y-83970121D02*
X153464402Y-83970121D01*
X153178688Y-83970121D02*
X153178688Y-82970121D01*
X153273926Y-83112978D01*
X153369164Y-83208216D01*
X153464402Y-83255835D01*
X152464402Y-83874883D02*
X152416783Y-83922502D01*
X152464402Y-83970121D01*
X152512021Y-83922502D01*
X152464402Y-83874883D01*
X152464402Y-83970121D01*
X151845355Y-83398692D02*
X151940593Y-83351073D01*
X151988212Y-83303454D01*
X152035831Y-83208216D01*
X152035831Y-83160597D01*
X151988212Y-83065359D01*
X151940593Y-83017740D01*
X151845355Y-82970121D01*
X151654878Y-82970121D01*
X151559640Y-83017740D01*
X151512021Y-83065359D01*
X151464402Y-83160597D01*
X151464402Y-83208216D01*
X151512021Y-83303454D01*
X151559640Y-83351073D01*
X151654878Y-83398692D01*
X151845355Y-83398692D01*
X151940593Y-83446311D01*
X151988212Y-83493930D01*
X152035831Y-83589169D01*
X152035831Y-83779645D01*
X151988212Y-83874883D01*
X151940593Y-83922502D01*
X151845355Y-83970121D01*
X151654878Y-83970121D01*
X151559640Y-83922502D01*
X151512021Y-83874883D01*
X151464402Y-83779645D01*
X151464402Y-83589169D01*
X151512021Y-83493930D01*
X151559640Y-83446311D01*
X151654878Y-83398692D01*
X151035831Y-83970121D02*
X151035831Y-82970121D01*
X150940593Y-83589169D02*
X150654878Y-83970121D01*
X150654878Y-83303454D02*
X151035831Y-83684407D01*
X144098306Y-103274121D02*
X144431640Y-102797930D01*
X144669735Y-103274121D02*
X144669735Y-102274121D01*
X144288782Y-102274121D01*
X144193544Y-102321740D01*
X144145925Y-102369359D01*
X144098306Y-102464597D01*
X144098306Y-102607454D01*
X144145925Y-102702692D01*
X144193544Y-102750311D01*
X144288782Y-102797930D01*
X144669735Y-102797930D01*
X143193544Y-102274121D02*
X143669735Y-102274121D01*
X143717354Y-102750311D01*
X143669735Y-102702692D01*
X143574497Y-102655073D01*
X143336401Y-102655073D01*
X143241163Y-102702692D01*
X143193544Y-102750311D01*
X143145925Y-102845550D01*
X143145925Y-103083645D01*
X143193544Y-103178883D01*
X143241163Y-103226502D01*
X143336401Y-103274121D01*
X143574497Y-103274121D01*
X143669735Y-103226502D01*
X143717354Y-103178883D01*
X152734211Y-102607454D02*
X152734211Y-103274121D01*
X152972307Y-102226502D02*
X153210402Y-102940788D01*
X152591354Y-102940788D01*
X152210402Y-103178883D02*
X152162783Y-103226502D01*
X152210402Y-103274121D01*
X152258021Y-103226502D01*
X152210402Y-103178883D01*
X152210402Y-103274121D01*
X151829450Y-102274121D02*
X151162783Y-102274121D01*
X151591355Y-103274121D01*
X150781831Y-103274121D02*
X150781831Y-102274121D01*
X150686593Y-102893169D02*
X150400878Y-103274121D01*
X150400878Y-102607454D02*
X150781831Y-102988407D01*
X141240735Y-72794121D02*
X141240735Y-71794121D01*
X140859782Y-71794121D01*
X140764544Y-71841740D01*
X140716925Y-71889359D01*
X140669306Y-71984597D01*
X140669306Y-72127454D01*
X140716925Y-72222692D01*
X140764544Y-72270311D01*
X140859782Y-72317930D01*
X141240735Y-72317930D01*
X139716925Y-72794121D02*
X140288354Y-72794121D01*
X140002640Y-72794121D02*
X140002640Y-71794121D01*
X140097878Y-71936978D01*
X140193116Y-72032216D01*
X140288354Y-72079835D01*
X148630545Y-97448121D02*
X148630545Y-98257645D01*
X148582926Y-98352883D01*
X148535307Y-98400502D01*
X148440069Y-98448121D01*
X148249592Y-98448121D01*
X148154354Y-98400502D01*
X148106735Y-98352883D01*
X148059116Y-98257645D01*
X148059116Y-97448121D01*
X147630545Y-97543359D02*
X147582926Y-97495740D01*
X147487688Y-97448121D01*
X147249592Y-97448121D01*
X147154354Y-97495740D01*
X147106735Y-97543359D01*
X147059116Y-97638597D01*
X147059116Y-97733835D01*
X147106735Y-97876692D01*
X147678164Y-98448121D01*
X147059116Y-98448121D01*
%LPC*%
D12*
X146090639Y-98051169D02*
X145947782Y-98194026D01*
X146090639Y-98336883D01*
X146233496Y-98194026D01*
X146090639Y-98051169D01*
X146090639Y-98336883D01*
X144058640Y-99039454D02*
X143987212Y-99110883D01*
X144058640Y-99182311D01*
X144130069Y-99110883D01*
X144058640Y-99039454D01*
X144058640Y-99182311D01*
D13*
X156778640Y-92915740D03*
X159278640Y-92915740D03*
D14*
X167172640Y-90395740D03*
X167172640Y-92895740D03*
D15*
X165234620Y-74754740D03*
X167332660Y-74754740D03*
D16*
X161711640Y-73658740D03*
X161711640Y-76358740D03*
D17*
X148964640Y-100535740D03*
X146264640Y-100535740D03*
X149218640Y-86311740D03*
X146518640Y-86311740D03*
X149218640Y-83517740D03*
X146518640Y-83517740D03*
X148964640Y-102821740D03*
X146264640Y-102821740D03*
D18*
X137708640Y-72595740D03*
D19*
X135168640Y-72595740D03*
X132628640Y-72595740D03*
X130088640Y-72595740D03*
X127548640Y-72595740D03*
D20*
X144101000Y-98078000D03*
X144101000Y-97428000D03*
X144101000Y-96778000D03*
X144101000Y-96128000D03*
X144101000Y-95478000D03*
X144101000Y-94828000D03*
X144101000Y-94178000D03*
X144101000Y-93528000D03*
X144101000Y-92878000D03*
X144101000Y-92228000D03*
X144101000Y-91578000D03*
X144101000Y-90928000D03*
X144101000Y-90278000D03*
X144101000Y-89628000D03*
X151301000Y-89628000D03*
X151301000Y-90278000D03*
X151301000Y-90928000D03*
X151301000Y-91578000D03*
X151301000Y-92228000D03*
X151301000Y-92878000D03*
X151301000Y-93528000D03*
X151301000Y-94178000D03*
X151301000Y-94828000D03*
X151301000Y-95478000D03*
X151301000Y-96128000D03*
X151301000Y-96778000D03*
X151301000Y-97428000D03*
X151301000Y-98078000D03*
M02*
