G04 #@! TF.FileFunction,Copper,L2,Bot,Signal*
%FSLAX46Y46*%
G04 Gerber Fmt 4.6, Leading zero omitted, Abs format (unit mm)*
G04 Created by KiCad (PCBNEW 4.0.2-stable) date Monday, 09 May 2016 'pmt' 13:51:59*
%MOMM*%
G01*
G04 APERTURE LIST*
%ADD10C,0.100000*%
%ADD11C,1.000000*%
%ADD12C,15.000000*%
%ADD13C,8.000000*%
%ADD14C,0.750000*%
%ADD15C,0.406000*%
%ADD16C,0.305000*%
%ADD17C,0.254000*%
G04 APERTURE END LIST*
D10*
D11*
X160885779Y-80024500D03*
X138711579Y-79465700D03*
X138914779Y-102249500D03*
X161393779Y-102122500D03*
D12*
X150090779Y-90819500D03*
D13*
X150090779Y-70819500D03*
X140090780Y-73498992D03*
X132770271Y-80819500D03*
X130090779Y-90819500D03*
X132770271Y-100819499D03*
X140090780Y-108140008D03*
X150090779Y-110819500D03*
X160090779Y-108140008D03*
X167411287Y-100819500D03*
X170090779Y-90819500D03*
X167411287Y-80819500D03*
X160090779Y-73498992D03*
D14*
X158092140Y-98948240D03*
X142090140Y-98948240D03*
X157965140Y-82692240D03*
X142217140Y-82692240D03*
X157151979Y-77890900D03*
X162866979Y-83454240D03*
X164848179Y-90794100D03*
X162791140Y-98059240D03*
X157393640Y-103595700D03*
X150027640Y-105602300D03*
X142978779Y-103671900D03*
X137264140Y-97551240D03*
X135358779Y-90820240D03*
X137454640Y-83301100D03*
X142902579Y-78017900D03*
X158726589Y-90819690D03*
X150027640Y-76087500D03*
D15*
X161393779Y-102122500D02*
X161266400Y-102122500D01*
X161266400Y-102122500D02*
X158092140Y-98948240D01*
X138914779Y-102249500D02*
X138914779Y-102123601D01*
X138914779Y-102123601D02*
X142090140Y-98948240D01*
X157965140Y-82692240D02*
X160632880Y-80024500D01*
X160632880Y-80024500D02*
X160885779Y-80024500D01*
X138990600Y-79465700D02*
X142217140Y-82692240D01*
X138711579Y-79465700D02*
X138990600Y-79465700D01*
X160885779Y-80279601D02*
X160885779Y-80024500D01*
X138533779Y-79643500D02*
X138533779Y-79135500D01*
X138914779Y-102249500D02*
X138661880Y-102249500D01*
D16*
X157151979Y-77890900D02*
X160090779Y-74952100D01*
X160090779Y-74952100D02*
X160090779Y-73498992D01*
X162866979Y-83454240D02*
X165501719Y-80819500D01*
X165501719Y-80819500D02*
X167411287Y-80819500D01*
X164873579Y-90819500D02*
X170090779Y-90819500D01*
X164848179Y-90794100D02*
X164873579Y-90819500D01*
X170065379Y-90794100D02*
X170090779Y-90819500D01*
X162791140Y-98059240D02*
X165551400Y-100819500D01*
X165551400Y-100819500D02*
X167411287Y-100819500D01*
X165754979Y-100819500D02*
X167411287Y-100819500D01*
X157393640Y-103595700D02*
X160090779Y-106292839D01*
X160090779Y-106292839D02*
X160090779Y-108140008D01*
X150090779Y-110819500D02*
X150090779Y-105665439D01*
X150090779Y-105665439D02*
X150027640Y-105602300D01*
X140090780Y-106559899D02*
X142978779Y-103671900D01*
X140090780Y-106559899D02*
X140090780Y-108140008D01*
X137264140Y-97551240D02*
X133995881Y-100819499D01*
X133995881Y-100819499D02*
X132770271Y-100819499D01*
X133943980Y-100819499D02*
X132770271Y-100819499D01*
X130090779Y-90819500D02*
X135358039Y-90819500D01*
X135358039Y-90819500D02*
X135358779Y-90820240D01*
X130116179Y-90794100D02*
X130090779Y-90819500D01*
X137454640Y-83301100D02*
X134973040Y-80819500D01*
X134973040Y-80819500D02*
X132770271Y-80819500D01*
X142902579Y-78017900D02*
X140090780Y-75206101D01*
X140090780Y-75206101D02*
X140090780Y-73498992D01*
X150090779Y-90819500D02*
X158726399Y-90819500D01*
X158726399Y-90819500D02*
X158726589Y-90819690D01*
X150090779Y-70819500D02*
X150090779Y-76024361D01*
X150090779Y-76024361D02*
X150027640Y-76087500D01*
D17*
G36*
X147468692Y-66887847D02*
X146163708Y-68190555D01*
X145456585Y-69893497D01*
X145454976Y-71737414D01*
X146159126Y-73441587D01*
X147461834Y-74746571D01*
X149164776Y-75453694D01*
X149232890Y-75453753D01*
X149171903Y-75514634D01*
X149017816Y-75885717D01*
X149017465Y-76287520D01*
X149170904Y-76658872D01*
X149454774Y-76943237D01*
X149825857Y-77097324D01*
X150227660Y-77097675D01*
X150599012Y-76944236D01*
X150883377Y-76660366D01*
X151037464Y-76289283D01*
X151037815Y-75887480D01*
X150884376Y-75516128D01*
X150878279Y-75510020D01*
X150878279Y-75455189D01*
X151008693Y-75455303D01*
X152712866Y-74751153D01*
X153047696Y-74416906D01*
X155454976Y-74416906D01*
X156159126Y-76121079D01*
X156927525Y-76890821D01*
X156580607Y-77034164D01*
X156296242Y-77318034D01*
X156142155Y-77689117D01*
X156141804Y-78090920D01*
X156295243Y-78462272D01*
X156579113Y-78746637D01*
X156950196Y-78900724D01*
X157351999Y-78901075D01*
X157723351Y-78747636D01*
X158007716Y-78463766D01*
X158161803Y-78092683D01*
X158161889Y-77994684D01*
X158358275Y-77798298D01*
X159164776Y-78133186D01*
X161008693Y-78134795D01*
X162712866Y-77430645D01*
X164017850Y-76127937D01*
X164724973Y-74424995D01*
X164726582Y-72581078D01*
X164022432Y-70876905D01*
X162719724Y-69571921D01*
X161016782Y-68864798D01*
X159172865Y-68863189D01*
X157468692Y-69567339D01*
X156163708Y-70870047D01*
X155456585Y-72572989D01*
X155454976Y-74416906D01*
X153047696Y-74416906D01*
X154017850Y-73448445D01*
X154724973Y-71745503D01*
X154726582Y-69901586D01*
X154022432Y-68197413D01*
X152719724Y-66892429D01*
X151658427Y-66451740D01*
X174548640Y-66451740D01*
X174548640Y-89470934D01*
X174022432Y-88197413D01*
X172719724Y-86892429D01*
X171016782Y-86185306D01*
X169172865Y-86183697D01*
X167468692Y-86887847D01*
X166163708Y-88190555D01*
X165456585Y-89893497D01*
X165456515Y-89973895D01*
X165421045Y-89938363D01*
X165049962Y-89784276D01*
X164648159Y-89783925D01*
X164276807Y-89937364D01*
X163992442Y-90221234D01*
X163838355Y-90592317D01*
X163838004Y-90994120D01*
X163991443Y-91365472D01*
X164275313Y-91649837D01*
X164646396Y-91803924D01*
X165048199Y-91804275D01*
X165419551Y-91650836D01*
X165455082Y-91615366D01*
X165454976Y-91737414D01*
X166159126Y-93441587D01*
X167461834Y-94746571D01*
X169164776Y-95453694D01*
X171008693Y-95455303D01*
X172712866Y-94751153D01*
X174017850Y-93448445D01*
X174548640Y-92170160D01*
X174548640Y-115031740D01*
X152033794Y-115031740D01*
X152712866Y-114751153D01*
X154017850Y-113448445D01*
X154724973Y-111745503D01*
X154726582Y-109901586D01*
X154377988Y-109057922D01*
X155454976Y-109057922D01*
X156159126Y-110762095D01*
X157461834Y-112067079D01*
X159164776Y-112774202D01*
X161008693Y-112775811D01*
X162712866Y-112071661D01*
X164017850Y-110768953D01*
X164724973Y-109066011D01*
X164726582Y-107222094D01*
X164022432Y-105517921D01*
X162719724Y-104212937D01*
X161016782Y-103505814D01*
X159172865Y-103504205D01*
X158637180Y-103725546D01*
X158403731Y-103492097D01*
X158403815Y-103395680D01*
X158250376Y-103024328D01*
X158138847Y-102912604D01*
X160783280Y-102912604D01*
X160820427Y-103127717D01*
X161248751Y-103270612D01*
X161699154Y-103238717D01*
X161967131Y-103127717D01*
X162004278Y-102912604D01*
X161393779Y-102302105D01*
X160783280Y-102912604D01*
X158138847Y-102912604D01*
X157966506Y-102739963D01*
X157595423Y-102585876D01*
X157193620Y-102585525D01*
X156822268Y-102738964D01*
X156537903Y-103022834D01*
X156383816Y-103393917D01*
X156383465Y-103795720D01*
X156536904Y-104167072D01*
X156820774Y-104451437D01*
X157106383Y-104570032D01*
X156163708Y-105511063D01*
X155456585Y-107214005D01*
X155454976Y-109057922D01*
X154377988Y-109057922D01*
X154022432Y-108197413D01*
X152719724Y-106892429D01*
X151016782Y-106185306D01*
X150878279Y-106185185D01*
X150878279Y-106180255D01*
X150883377Y-106175166D01*
X151037464Y-105804083D01*
X151037815Y-105402280D01*
X150884376Y-105030928D01*
X150600506Y-104746563D01*
X150229423Y-104592476D01*
X149827620Y-104592125D01*
X149456268Y-104745564D01*
X149171903Y-105029434D01*
X149017816Y-105400517D01*
X149017465Y-105802320D01*
X149170904Y-106173672D01*
X149180919Y-106183704D01*
X149172865Y-106183697D01*
X147468692Y-106887847D01*
X146163708Y-108190555D01*
X145456585Y-109893497D01*
X145454976Y-111737414D01*
X146159126Y-113441587D01*
X147461834Y-114746571D01*
X148148598Y-115031740D01*
X125968640Y-115031740D01*
X125968640Y-109057922D01*
X135454977Y-109057922D01*
X136159127Y-110762095D01*
X137461835Y-112067079D01*
X139164777Y-112774202D01*
X141008694Y-112775811D01*
X142712867Y-112071661D01*
X144017851Y-110768953D01*
X144724974Y-109066011D01*
X144726583Y-107222094D01*
X144022433Y-105517921D01*
X143185345Y-104679370D01*
X143550151Y-104528636D01*
X143834516Y-104244766D01*
X143988603Y-103873683D01*
X143988954Y-103471880D01*
X143835515Y-103100528D01*
X143551645Y-102816163D01*
X143180562Y-102662076D01*
X142778759Y-102661725D01*
X142407407Y-102815164D01*
X142123042Y-103099034D01*
X141968955Y-103470117D01*
X141968869Y-103568116D01*
X141733546Y-103803440D01*
X141016783Y-103505814D01*
X139172866Y-103504205D01*
X137468693Y-104208355D01*
X136163709Y-105511063D01*
X135456586Y-107214005D01*
X135454977Y-109057922D01*
X125968640Y-109057922D01*
X125968640Y-101737413D01*
X128134468Y-101737413D01*
X128838618Y-103441586D01*
X130141326Y-104746570D01*
X131844268Y-105453693D01*
X133688185Y-105455302D01*
X135392358Y-104751152D01*
X136697342Y-103448444D01*
X136867106Y-103039604D01*
X138304280Y-103039604D01*
X138341427Y-103254717D01*
X138769751Y-103397612D01*
X139220154Y-103365717D01*
X139488131Y-103254717D01*
X139525278Y-103039604D01*
X138914779Y-102429105D01*
X138304280Y-103039604D01*
X136867106Y-103039604D01*
X137255407Y-102104472D01*
X137766667Y-102104472D01*
X137798562Y-102554875D01*
X137909562Y-102822852D01*
X138124675Y-102859999D01*
X138735174Y-102249500D01*
X139094384Y-102249500D01*
X139704883Y-102859999D01*
X139919996Y-102822852D01*
X140062891Y-102394528D01*
X140033358Y-101977472D01*
X160245667Y-101977472D01*
X160277562Y-102427875D01*
X160388562Y-102695852D01*
X160603675Y-102732999D01*
X161214174Y-102122500D01*
X161573384Y-102122500D01*
X162183883Y-102732999D01*
X162398996Y-102695852D01*
X162541891Y-102267528D01*
X162509996Y-101817125D01*
X162398996Y-101549148D01*
X162183883Y-101512001D01*
X161573384Y-102122500D01*
X161214174Y-102122500D01*
X160603675Y-101512001D01*
X160388562Y-101549148D01*
X160245667Y-101977472D01*
X140033358Y-101977472D01*
X140030996Y-101944125D01*
X139919996Y-101676148D01*
X139704883Y-101639001D01*
X139094384Y-102249500D01*
X138735174Y-102249500D01*
X138124675Y-101639001D01*
X137909562Y-101676148D01*
X137766667Y-102104472D01*
X137255407Y-102104472D01*
X137404465Y-101745502D01*
X137404714Y-101459396D01*
X138304280Y-101459396D01*
X138914779Y-102069895D01*
X139525278Y-101459396D01*
X139503347Y-101332396D01*
X160783280Y-101332396D01*
X161393779Y-101942895D01*
X162004278Y-101332396D01*
X161967131Y-101117283D01*
X161538807Y-100974388D01*
X161088404Y-101006283D01*
X160820427Y-101117283D01*
X160783280Y-101332396D01*
X139503347Y-101332396D01*
X139488131Y-101244283D01*
X139059807Y-101101388D01*
X138609404Y-101133283D01*
X138341427Y-101244283D01*
X138304280Y-101459396D01*
X137404714Y-101459396D01*
X137406074Y-99901585D01*
X137003001Y-98926073D01*
X137367742Y-98561331D01*
X137464160Y-98561415D01*
X137835512Y-98407976D01*
X138119877Y-98124106D01*
X138273964Y-97753023D01*
X138274315Y-97351220D01*
X138120876Y-96979868D01*
X137837006Y-96695503D01*
X137465923Y-96541416D01*
X137064120Y-96541065D01*
X136692768Y-96694504D01*
X136408403Y-96978374D01*
X136254316Y-97349457D01*
X136254230Y-97447456D01*
X136103622Y-97598065D01*
X135399216Y-96892428D01*
X133696274Y-96185305D01*
X131852357Y-96183696D01*
X130148184Y-96887846D01*
X128843200Y-98190554D01*
X128136077Y-99893496D01*
X128134468Y-101737413D01*
X125968640Y-101737413D01*
X125968640Y-92980576D01*
X126159126Y-93441587D01*
X127461834Y-94746571D01*
X129164776Y-95453694D01*
X131008693Y-95455303D01*
X132712866Y-94751153D01*
X134017850Y-93448445D01*
X134440515Y-92430552D01*
X141954370Y-92430552D01*
X143190240Y-95421587D01*
X145476655Y-97711996D01*
X148465528Y-98953085D01*
X151701831Y-98955909D01*
X153387851Y-98259260D01*
X161780965Y-98259260D01*
X161934404Y-98630612D01*
X162218274Y-98914977D01*
X162589357Y-99069064D01*
X162687356Y-99069150D01*
X162992631Y-99374424D01*
X162777093Y-99893497D01*
X162775484Y-101737414D01*
X163479634Y-103441587D01*
X164782342Y-104746571D01*
X166485284Y-105453694D01*
X168329201Y-105455303D01*
X170033374Y-104751153D01*
X171338358Y-103448445D01*
X172045481Y-101745503D01*
X172047090Y-99901586D01*
X171342940Y-98197413D01*
X170040232Y-96892429D01*
X168337290Y-96185306D01*
X166493373Y-96183697D01*
X164789200Y-96887847D01*
X163801302Y-97874022D01*
X163801315Y-97859220D01*
X163647876Y-97487868D01*
X163364006Y-97203503D01*
X162992923Y-97049416D01*
X162591120Y-97049065D01*
X162219768Y-97202504D01*
X161935403Y-97486374D01*
X161781316Y-97857457D01*
X161780965Y-98259260D01*
X153387851Y-98259260D01*
X154692866Y-97720039D01*
X156983275Y-95433624D01*
X158224364Y-92444751D01*
X158225009Y-91705028D01*
X158524806Y-91829514D01*
X158926609Y-91829865D01*
X159297961Y-91676426D01*
X159582326Y-91392556D01*
X159736413Y-91021473D01*
X159736764Y-90619670D01*
X159583325Y-90248318D01*
X159299455Y-89963953D01*
X158928372Y-89809866D01*
X158526569Y-89809515D01*
X158226555Y-89933478D01*
X158227188Y-89208448D01*
X156991318Y-86217413D01*
X154704903Y-83927004D01*
X154048063Y-83654260D01*
X161856804Y-83654260D01*
X162010243Y-84025612D01*
X162294113Y-84309977D01*
X162665196Y-84464064D01*
X163066999Y-84464415D01*
X163438351Y-84310976D01*
X163722716Y-84027106D01*
X163823012Y-83785565D01*
X164782342Y-84746571D01*
X166485284Y-85453694D01*
X168329201Y-85455303D01*
X170033374Y-84751153D01*
X171338358Y-83448445D01*
X172045481Y-81745503D01*
X172047090Y-79901586D01*
X171342940Y-78197413D01*
X170040232Y-76892429D01*
X168337290Y-76185306D01*
X166493373Y-76183697D01*
X164789200Y-76887847D01*
X163484216Y-78190555D01*
X162777093Y-79893497D01*
X162775484Y-81737414D01*
X162978580Y-82228945D01*
X162763376Y-82444149D01*
X162666959Y-82444065D01*
X162295607Y-82597504D01*
X162011242Y-82881374D01*
X161857155Y-83252457D01*
X161856804Y-83654260D01*
X154048063Y-83654260D01*
X151716030Y-82685915D01*
X148479727Y-82683091D01*
X145488692Y-83918961D01*
X143198283Y-86205376D01*
X141957194Y-89194249D01*
X141954370Y-92430552D01*
X134440515Y-92430552D01*
X134724973Y-91745503D01*
X134725087Y-91615045D01*
X134785913Y-91675977D01*
X135156996Y-91830064D01*
X135558799Y-91830415D01*
X135930151Y-91676976D01*
X136214516Y-91393106D01*
X136368603Y-91022023D01*
X136368954Y-90620220D01*
X136215515Y-90248868D01*
X135931645Y-89964503D01*
X135560562Y-89810416D01*
X135158759Y-89810065D01*
X134787407Y-89963504D01*
X134726475Y-90024330D01*
X134726582Y-89901586D01*
X134022432Y-88197413D01*
X132719724Y-86892429D01*
X131016782Y-86185306D01*
X129172865Y-86183697D01*
X127468692Y-86887847D01*
X126163708Y-88190555D01*
X125968640Y-88660331D01*
X125968640Y-81737414D01*
X128134468Y-81737414D01*
X128838618Y-83441587D01*
X130141326Y-84746571D01*
X131844268Y-85453694D01*
X133688185Y-85455303D01*
X135392358Y-84751153D01*
X136502901Y-83642547D01*
X136597904Y-83872472D01*
X136881774Y-84156837D01*
X137252857Y-84310924D01*
X137654660Y-84311275D01*
X138026012Y-84157836D01*
X138310377Y-83873966D01*
X138464464Y-83502883D01*
X138464815Y-83101080D01*
X138311376Y-82729728D01*
X138027506Y-82445363D01*
X137656423Y-82291276D01*
X137558424Y-82291190D01*
X137289530Y-82022297D01*
X137404465Y-81745503D01*
X137405276Y-80814604D01*
X160275280Y-80814604D01*
X160312427Y-81029717D01*
X160740751Y-81172612D01*
X161191154Y-81140717D01*
X161459131Y-81029717D01*
X161496278Y-80814604D01*
X160885779Y-80204105D01*
X160275280Y-80814604D01*
X137405276Y-80814604D01*
X137405764Y-80255804D01*
X138101080Y-80255804D01*
X138138227Y-80470917D01*
X138566551Y-80613812D01*
X139016954Y-80581917D01*
X139284931Y-80470917D01*
X139322078Y-80255804D01*
X138711579Y-79645305D01*
X138101080Y-80255804D01*
X137405764Y-80255804D01*
X137406074Y-79901586D01*
X137166046Y-79320672D01*
X137563467Y-79320672D01*
X137595362Y-79771075D01*
X137706362Y-80039052D01*
X137921475Y-80076199D01*
X138531974Y-79465700D01*
X138891184Y-79465700D01*
X139501683Y-80076199D01*
X139716796Y-80039052D01*
X139770034Y-79879472D01*
X159737667Y-79879472D01*
X159769562Y-80329875D01*
X159880562Y-80597852D01*
X160095675Y-80634999D01*
X160706174Y-80024500D01*
X161065384Y-80024500D01*
X161675883Y-80634999D01*
X161890996Y-80597852D01*
X162033891Y-80169528D01*
X162001996Y-79719125D01*
X161890996Y-79451148D01*
X161675883Y-79414001D01*
X161065384Y-80024500D01*
X160706174Y-80024500D01*
X160095675Y-79414001D01*
X159880562Y-79451148D01*
X159737667Y-79879472D01*
X139770034Y-79879472D01*
X139859691Y-79610728D01*
X139833042Y-79234396D01*
X160275280Y-79234396D01*
X160885779Y-79844895D01*
X161496278Y-79234396D01*
X161459131Y-79019283D01*
X161030807Y-78876388D01*
X160580404Y-78908283D01*
X160312427Y-79019283D01*
X160275280Y-79234396D01*
X139833042Y-79234396D01*
X139827796Y-79160325D01*
X139716796Y-78892348D01*
X139501683Y-78855201D01*
X138891184Y-79465700D01*
X138531974Y-79465700D01*
X137921475Y-78855201D01*
X137706362Y-78892348D01*
X137563467Y-79320672D01*
X137166046Y-79320672D01*
X136899506Y-78675596D01*
X138101080Y-78675596D01*
X138711579Y-79286095D01*
X139322078Y-78675596D01*
X139284931Y-78460483D01*
X138856607Y-78317588D01*
X138406204Y-78349483D01*
X138138227Y-78460483D01*
X138101080Y-78675596D01*
X136899506Y-78675596D01*
X136701924Y-78197413D01*
X135399216Y-76892429D01*
X133696274Y-76185306D01*
X131852357Y-76183697D01*
X130148184Y-76887847D01*
X128843200Y-78190555D01*
X128136077Y-79893497D01*
X128134468Y-81737414D01*
X125968640Y-81737414D01*
X125968640Y-74416906D01*
X135454977Y-74416906D01*
X136159127Y-76121079D01*
X137461835Y-77426063D01*
X139164777Y-78133186D01*
X141008694Y-78134795D01*
X141643489Y-77872503D01*
X141892488Y-78121502D01*
X141892404Y-78217920D01*
X142045843Y-78589272D01*
X142329713Y-78873637D01*
X142700796Y-79027724D01*
X143102599Y-79028075D01*
X143473951Y-78874636D01*
X143758316Y-78590766D01*
X143912403Y-78219683D01*
X143912754Y-77817880D01*
X143759315Y-77446528D01*
X143475445Y-77162163D01*
X143126829Y-77017405D01*
X144017851Y-76127937D01*
X144724974Y-74424995D01*
X144726583Y-72581078D01*
X144022433Y-70876905D01*
X142719725Y-69571921D01*
X141016783Y-68864798D01*
X139172866Y-68863189D01*
X137468693Y-69567339D01*
X136163709Y-70870047D01*
X135456586Y-72572989D01*
X135454977Y-74416906D01*
X125968640Y-74416906D01*
X125968640Y-66451740D01*
X148524151Y-66451740D01*
X147468692Y-66887847D01*
X147468692Y-66887847D01*
G37*
X147468692Y-66887847D02*
X146163708Y-68190555D01*
X145456585Y-69893497D01*
X145454976Y-71737414D01*
X146159126Y-73441587D01*
X147461834Y-74746571D01*
X149164776Y-75453694D01*
X149232890Y-75453753D01*
X149171903Y-75514634D01*
X149017816Y-75885717D01*
X149017465Y-76287520D01*
X149170904Y-76658872D01*
X149454774Y-76943237D01*
X149825857Y-77097324D01*
X150227660Y-77097675D01*
X150599012Y-76944236D01*
X150883377Y-76660366D01*
X151037464Y-76289283D01*
X151037815Y-75887480D01*
X150884376Y-75516128D01*
X150878279Y-75510020D01*
X150878279Y-75455189D01*
X151008693Y-75455303D01*
X152712866Y-74751153D01*
X153047696Y-74416906D01*
X155454976Y-74416906D01*
X156159126Y-76121079D01*
X156927525Y-76890821D01*
X156580607Y-77034164D01*
X156296242Y-77318034D01*
X156142155Y-77689117D01*
X156141804Y-78090920D01*
X156295243Y-78462272D01*
X156579113Y-78746637D01*
X156950196Y-78900724D01*
X157351999Y-78901075D01*
X157723351Y-78747636D01*
X158007716Y-78463766D01*
X158161803Y-78092683D01*
X158161889Y-77994684D01*
X158358275Y-77798298D01*
X159164776Y-78133186D01*
X161008693Y-78134795D01*
X162712866Y-77430645D01*
X164017850Y-76127937D01*
X164724973Y-74424995D01*
X164726582Y-72581078D01*
X164022432Y-70876905D01*
X162719724Y-69571921D01*
X161016782Y-68864798D01*
X159172865Y-68863189D01*
X157468692Y-69567339D01*
X156163708Y-70870047D01*
X155456585Y-72572989D01*
X155454976Y-74416906D01*
X153047696Y-74416906D01*
X154017850Y-73448445D01*
X154724973Y-71745503D01*
X154726582Y-69901586D01*
X154022432Y-68197413D01*
X152719724Y-66892429D01*
X151658427Y-66451740D01*
X174548640Y-66451740D01*
X174548640Y-89470934D01*
X174022432Y-88197413D01*
X172719724Y-86892429D01*
X171016782Y-86185306D01*
X169172865Y-86183697D01*
X167468692Y-86887847D01*
X166163708Y-88190555D01*
X165456585Y-89893497D01*
X165456515Y-89973895D01*
X165421045Y-89938363D01*
X165049962Y-89784276D01*
X164648159Y-89783925D01*
X164276807Y-89937364D01*
X163992442Y-90221234D01*
X163838355Y-90592317D01*
X163838004Y-90994120D01*
X163991443Y-91365472D01*
X164275313Y-91649837D01*
X164646396Y-91803924D01*
X165048199Y-91804275D01*
X165419551Y-91650836D01*
X165455082Y-91615366D01*
X165454976Y-91737414D01*
X166159126Y-93441587D01*
X167461834Y-94746571D01*
X169164776Y-95453694D01*
X171008693Y-95455303D01*
X172712866Y-94751153D01*
X174017850Y-93448445D01*
X174548640Y-92170160D01*
X174548640Y-115031740D01*
X152033794Y-115031740D01*
X152712866Y-114751153D01*
X154017850Y-113448445D01*
X154724973Y-111745503D01*
X154726582Y-109901586D01*
X154377988Y-109057922D01*
X155454976Y-109057922D01*
X156159126Y-110762095D01*
X157461834Y-112067079D01*
X159164776Y-112774202D01*
X161008693Y-112775811D01*
X162712866Y-112071661D01*
X164017850Y-110768953D01*
X164724973Y-109066011D01*
X164726582Y-107222094D01*
X164022432Y-105517921D01*
X162719724Y-104212937D01*
X161016782Y-103505814D01*
X159172865Y-103504205D01*
X158637180Y-103725546D01*
X158403731Y-103492097D01*
X158403815Y-103395680D01*
X158250376Y-103024328D01*
X158138847Y-102912604D01*
X160783280Y-102912604D01*
X160820427Y-103127717D01*
X161248751Y-103270612D01*
X161699154Y-103238717D01*
X161967131Y-103127717D01*
X162004278Y-102912604D01*
X161393779Y-102302105D01*
X160783280Y-102912604D01*
X158138847Y-102912604D01*
X157966506Y-102739963D01*
X157595423Y-102585876D01*
X157193620Y-102585525D01*
X156822268Y-102738964D01*
X156537903Y-103022834D01*
X156383816Y-103393917D01*
X156383465Y-103795720D01*
X156536904Y-104167072D01*
X156820774Y-104451437D01*
X157106383Y-104570032D01*
X156163708Y-105511063D01*
X155456585Y-107214005D01*
X155454976Y-109057922D01*
X154377988Y-109057922D01*
X154022432Y-108197413D01*
X152719724Y-106892429D01*
X151016782Y-106185306D01*
X150878279Y-106185185D01*
X150878279Y-106180255D01*
X150883377Y-106175166D01*
X151037464Y-105804083D01*
X151037815Y-105402280D01*
X150884376Y-105030928D01*
X150600506Y-104746563D01*
X150229423Y-104592476D01*
X149827620Y-104592125D01*
X149456268Y-104745564D01*
X149171903Y-105029434D01*
X149017816Y-105400517D01*
X149017465Y-105802320D01*
X149170904Y-106173672D01*
X149180919Y-106183704D01*
X149172865Y-106183697D01*
X147468692Y-106887847D01*
X146163708Y-108190555D01*
X145456585Y-109893497D01*
X145454976Y-111737414D01*
X146159126Y-113441587D01*
X147461834Y-114746571D01*
X148148598Y-115031740D01*
X125968640Y-115031740D01*
X125968640Y-109057922D01*
X135454977Y-109057922D01*
X136159127Y-110762095D01*
X137461835Y-112067079D01*
X139164777Y-112774202D01*
X141008694Y-112775811D01*
X142712867Y-112071661D01*
X144017851Y-110768953D01*
X144724974Y-109066011D01*
X144726583Y-107222094D01*
X144022433Y-105517921D01*
X143185345Y-104679370D01*
X143550151Y-104528636D01*
X143834516Y-104244766D01*
X143988603Y-103873683D01*
X143988954Y-103471880D01*
X143835515Y-103100528D01*
X143551645Y-102816163D01*
X143180562Y-102662076D01*
X142778759Y-102661725D01*
X142407407Y-102815164D01*
X142123042Y-103099034D01*
X141968955Y-103470117D01*
X141968869Y-103568116D01*
X141733546Y-103803440D01*
X141016783Y-103505814D01*
X139172866Y-103504205D01*
X137468693Y-104208355D01*
X136163709Y-105511063D01*
X135456586Y-107214005D01*
X135454977Y-109057922D01*
X125968640Y-109057922D01*
X125968640Y-101737413D01*
X128134468Y-101737413D01*
X128838618Y-103441586D01*
X130141326Y-104746570D01*
X131844268Y-105453693D01*
X133688185Y-105455302D01*
X135392358Y-104751152D01*
X136697342Y-103448444D01*
X136867106Y-103039604D01*
X138304280Y-103039604D01*
X138341427Y-103254717D01*
X138769751Y-103397612D01*
X139220154Y-103365717D01*
X139488131Y-103254717D01*
X139525278Y-103039604D01*
X138914779Y-102429105D01*
X138304280Y-103039604D01*
X136867106Y-103039604D01*
X137255407Y-102104472D01*
X137766667Y-102104472D01*
X137798562Y-102554875D01*
X137909562Y-102822852D01*
X138124675Y-102859999D01*
X138735174Y-102249500D01*
X139094384Y-102249500D01*
X139704883Y-102859999D01*
X139919996Y-102822852D01*
X140062891Y-102394528D01*
X140033358Y-101977472D01*
X160245667Y-101977472D01*
X160277562Y-102427875D01*
X160388562Y-102695852D01*
X160603675Y-102732999D01*
X161214174Y-102122500D01*
X161573384Y-102122500D01*
X162183883Y-102732999D01*
X162398996Y-102695852D01*
X162541891Y-102267528D01*
X162509996Y-101817125D01*
X162398996Y-101549148D01*
X162183883Y-101512001D01*
X161573384Y-102122500D01*
X161214174Y-102122500D01*
X160603675Y-101512001D01*
X160388562Y-101549148D01*
X160245667Y-101977472D01*
X140033358Y-101977472D01*
X140030996Y-101944125D01*
X139919996Y-101676148D01*
X139704883Y-101639001D01*
X139094384Y-102249500D01*
X138735174Y-102249500D01*
X138124675Y-101639001D01*
X137909562Y-101676148D01*
X137766667Y-102104472D01*
X137255407Y-102104472D01*
X137404465Y-101745502D01*
X137404714Y-101459396D01*
X138304280Y-101459396D01*
X138914779Y-102069895D01*
X139525278Y-101459396D01*
X139503347Y-101332396D01*
X160783280Y-101332396D01*
X161393779Y-101942895D01*
X162004278Y-101332396D01*
X161967131Y-101117283D01*
X161538807Y-100974388D01*
X161088404Y-101006283D01*
X160820427Y-101117283D01*
X160783280Y-101332396D01*
X139503347Y-101332396D01*
X139488131Y-101244283D01*
X139059807Y-101101388D01*
X138609404Y-101133283D01*
X138341427Y-101244283D01*
X138304280Y-101459396D01*
X137404714Y-101459396D01*
X137406074Y-99901585D01*
X137003001Y-98926073D01*
X137367742Y-98561331D01*
X137464160Y-98561415D01*
X137835512Y-98407976D01*
X138119877Y-98124106D01*
X138273964Y-97753023D01*
X138274315Y-97351220D01*
X138120876Y-96979868D01*
X137837006Y-96695503D01*
X137465923Y-96541416D01*
X137064120Y-96541065D01*
X136692768Y-96694504D01*
X136408403Y-96978374D01*
X136254316Y-97349457D01*
X136254230Y-97447456D01*
X136103622Y-97598065D01*
X135399216Y-96892428D01*
X133696274Y-96185305D01*
X131852357Y-96183696D01*
X130148184Y-96887846D01*
X128843200Y-98190554D01*
X128136077Y-99893496D01*
X128134468Y-101737413D01*
X125968640Y-101737413D01*
X125968640Y-92980576D01*
X126159126Y-93441587D01*
X127461834Y-94746571D01*
X129164776Y-95453694D01*
X131008693Y-95455303D01*
X132712866Y-94751153D01*
X134017850Y-93448445D01*
X134440515Y-92430552D01*
X141954370Y-92430552D01*
X143190240Y-95421587D01*
X145476655Y-97711996D01*
X148465528Y-98953085D01*
X151701831Y-98955909D01*
X153387851Y-98259260D01*
X161780965Y-98259260D01*
X161934404Y-98630612D01*
X162218274Y-98914977D01*
X162589357Y-99069064D01*
X162687356Y-99069150D01*
X162992631Y-99374424D01*
X162777093Y-99893497D01*
X162775484Y-101737414D01*
X163479634Y-103441587D01*
X164782342Y-104746571D01*
X166485284Y-105453694D01*
X168329201Y-105455303D01*
X170033374Y-104751153D01*
X171338358Y-103448445D01*
X172045481Y-101745503D01*
X172047090Y-99901586D01*
X171342940Y-98197413D01*
X170040232Y-96892429D01*
X168337290Y-96185306D01*
X166493373Y-96183697D01*
X164789200Y-96887847D01*
X163801302Y-97874022D01*
X163801315Y-97859220D01*
X163647876Y-97487868D01*
X163364006Y-97203503D01*
X162992923Y-97049416D01*
X162591120Y-97049065D01*
X162219768Y-97202504D01*
X161935403Y-97486374D01*
X161781316Y-97857457D01*
X161780965Y-98259260D01*
X153387851Y-98259260D01*
X154692866Y-97720039D01*
X156983275Y-95433624D01*
X158224364Y-92444751D01*
X158225009Y-91705028D01*
X158524806Y-91829514D01*
X158926609Y-91829865D01*
X159297961Y-91676426D01*
X159582326Y-91392556D01*
X159736413Y-91021473D01*
X159736764Y-90619670D01*
X159583325Y-90248318D01*
X159299455Y-89963953D01*
X158928372Y-89809866D01*
X158526569Y-89809515D01*
X158226555Y-89933478D01*
X158227188Y-89208448D01*
X156991318Y-86217413D01*
X154704903Y-83927004D01*
X154048063Y-83654260D01*
X161856804Y-83654260D01*
X162010243Y-84025612D01*
X162294113Y-84309977D01*
X162665196Y-84464064D01*
X163066999Y-84464415D01*
X163438351Y-84310976D01*
X163722716Y-84027106D01*
X163823012Y-83785565D01*
X164782342Y-84746571D01*
X166485284Y-85453694D01*
X168329201Y-85455303D01*
X170033374Y-84751153D01*
X171338358Y-83448445D01*
X172045481Y-81745503D01*
X172047090Y-79901586D01*
X171342940Y-78197413D01*
X170040232Y-76892429D01*
X168337290Y-76185306D01*
X166493373Y-76183697D01*
X164789200Y-76887847D01*
X163484216Y-78190555D01*
X162777093Y-79893497D01*
X162775484Y-81737414D01*
X162978580Y-82228945D01*
X162763376Y-82444149D01*
X162666959Y-82444065D01*
X162295607Y-82597504D01*
X162011242Y-82881374D01*
X161857155Y-83252457D01*
X161856804Y-83654260D01*
X154048063Y-83654260D01*
X151716030Y-82685915D01*
X148479727Y-82683091D01*
X145488692Y-83918961D01*
X143198283Y-86205376D01*
X141957194Y-89194249D01*
X141954370Y-92430552D01*
X134440515Y-92430552D01*
X134724973Y-91745503D01*
X134725087Y-91615045D01*
X134785913Y-91675977D01*
X135156996Y-91830064D01*
X135558799Y-91830415D01*
X135930151Y-91676976D01*
X136214516Y-91393106D01*
X136368603Y-91022023D01*
X136368954Y-90620220D01*
X136215515Y-90248868D01*
X135931645Y-89964503D01*
X135560562Y-89810416D01*
X135158759Y-89810065D01*
X134787407Y-89963504D01*
X134726475Y-90024330D01*
X134726582Y-89901586D01*
X134022432Y-88197413D01*
X132719724Y-86892429D01*
X131016782Y-86185306D01*
X129172865Y-86183697D01*
X127468692Y-86887847D01*
X126163708Y-88190555D01*
X125968640Y-88660331D01*
X125968640Y-81737414D01*
X128134468Y-81737414D01*
X128838618Y-83441587D01*
X130141326Y-84746571D01*
X131844268Y-85453694D01*
X133688185Y-85455303D01*
X135392358Y-84751153D01*
X136502901Y-83642547D01*
X136597904Y-83872472D01*
X136881774Y-84156837D01*
X137252857Y-84310924D01*
X137654660Y-84311275D01*
X138026012Y-84157836D01*
X138310377Y-83873966D01*
X138464464Y-83502883D01*
X138464815Y-83101080D01*
X138311376Y-82729728D01*
X138027506Y-82445363D01*
X137656423Y-82291276D01*
X137558424Y-82291190D01*
X137289530Y-82022297D01*
X137404465Y-81745503D01*
X137405276Y-80814604D01*
X160275280Y-80814604D01*
X160312427Y-81029717D01*
X160740751Y-81172612D01*
X161191154Y-81140717D01*
X161459131Y-81029717D01*
X161496278Y-80814604D01*
X160885779Y-80204105D01*
X160275280Y-80814604D01*
X137405276Y-80814604D01*
X137405764Y-80255804D01*
X138101080Y-80255804D01*
X138138227Y-80470917D01*
X138566551Y-80613812D01*
X139016954Y-80581917D01*
X139284931Y-80470917D01*
X139322078Y-80255804D01*
X138711579Y-79645305D01*
X138101080Y-80255804D01*
X137405764Y-80255804D01*
X137406074Y-79901586D01*
X137166046Y-79320672D01*
X137563467Y-79320672D01*
X137595362Y-79771075D01*
X137706362Y-80039052D01*
X137921475Y-80076199D01*
X138531974Y-79465700D01*
X138891184Y-79465700D01*
X139501683Y-80076199D01*
X139716796Y-80039052D01*
X139770034Y-79879472D01*
X159737667Y-79879472D01*
X159769562Y-80329875D01*
X159880562Y-80597852D01*
X160095675Y-80634999D01*
X160706174Y-80024500D01*
X161065384Y-80024500D01*
X161675883Y-80634999D01*
X161890996Y-80597852D01*
X162033891Y-80169528D01*
X162001996Y-79719125D01*
X161890996Y-79451148D01*
X161675883Y-79414001D01*
X161065384Y-80024500D01*
X160706174Y-80024500D01*
X160095675Y-79414001D01*
X159880562Y-79451148D01*
X159737667Y-79879472D01*
X139770034Y-79879472D01*
X139859691Y-79610728D01*
X139833042Y-79234396D01*
X160275280Y-79234396D01*
X160885779Y-79844895D01*
X161496278Y-79234396D01*
X161459131Y-79019283D01*
X161030807Y-78876388D01*
X160580404Y-78908283D01*
X160312427Y-79019283D01*
X160275280Y-79234396D01*
X139833042Y-79234396D01*
X139827796Y-79160325D01*
X139716796Y-78892348D01*
X139501683Y-78855201D01*
X138891184Y-79465700D01*
X138531974Y-79465700D01*
X137921475Y-78855201D01*
X137706362Y-78892348D01*
X137563467Y-79320672D01*
X137166046Y-79320672D01*
X136899506Y-78675596D01*
X138101080Y-78675596D01*
X138711579Y-79286095D01*
X139322078Y-78675596D01*
X139284931Y-78460483D01*
X138856607Y-78317588D01*
X138406204Y-78349483D01*
X138138227Y-78460483D01*
X138101080Y-78675596D01*
X136899506Y-78675596D01*
X136701924Y-78197413D01*
X135399216Y-76892429D01*
X133696274Y-76185306D01*
X131852357Y-76183697D01*
X130148184Y-76887847D01*
X128843200Y-78190555D01*
X128136077Y-79893497D01*
X128134468Y-81737414D01*
X125968640Y-81737414D01*
X125968640Y-74416906D01*
X135454977Y-74416906D01*
X136159127Y-76121079D01*
X137461835Y-77426063D01*
X139164777Y-78133186D01*
X141008694Y-78134795D01*
X141643489Y-77872503D01*
X141892488Y-78121502D01*
X141892404Y-78217920D01*
X142045843Y-78589272D01*
X142329713Y-78873637D01*
X142700796Y-79027724D01*
X143102599Y-79028075D01*
X143473951Y-78874636D01*
X143758316Y-78590766D01*
X143912403Y-78219683D01*
X143912754Y-77817880D01*
X143759315Y-77446528D01*
X143475445Y-77162163D01*
X143126829Y-77017405D01*
X144017851Y-76127937D01*
X144724974Y-74424995D01*
X144726583Y-72581078D01*
X144022433Y-70876905D01*
X142719725Y-69571921D01*
X141016783Y-68864798D01*
X139172866Y-68863189D01*
X137468693Y-69567339D01*
X136163709Y-70870047D01*
X135456586Y-72572989D01*
X135454977Y-74416906D01*
X125968640Y-74416906D01*
X125968640Y-66451740D01*
X148524151Y-66451740D01*
X147468692Y-66887847D01*
M02*
