G04 #@! TF.FileFunction,Legend,Top*
%FSLAX46Y46*%
G04 Gerber Fmt 4.6, Leading zero omitted, Abs format (unit mm)*
G04 Created by KiCad (PCBNEW 4.0.2-stable) date Monday, 09 May 2016 'pmt' 13:51:59*
%MOMM*%
G01*
G04 APERTURE LIST*
%ADD10C,0.100000*%
%ADD11C,0.150000*%
%ADD12C,0.300000*%
%ADD13R,1.900000X1.650000*%
%ADD14R,1.650000X1.900000*%
%ADD15R,1.598880X1.598880*%
%ADD16R,1.700000X1.900000*%
%ADD17R,1.900000X1.700000*%
%ADD18R,2.127200X4.464000*%
%ADD19O,2.127200X4.464000*%
%ADD20R,1.851600X0.551600*%
G04 APERTURE END LIST*
D10*
D11*
X135670377Y-111628121D02*
X135795377Y-110628121D01*
X136098949Y-111628121D02*
X136164426Y-111104311D01*
X136128711Y-111009073D01*
X136039426Y-110961454D01*
X135896568Y-110961454D01*
X135795377Y-111009073D01*
X135741806Y-111056692D01*
X136515616Y-110961454D02*
X136896568Y-110961454D01*
X136700139Y-110628121D02*
X136592997Y-111485264D01*
X136628711Y-111580502D01*
X136717996Y-111628121D01*
X136813234Y-111628121D01*
X137087045Y-110961454D02*
X137467997Y-110961454D01*
X137271568Y-110628121D02*
X137164426Y-111485264D01*
X137200140Y-111580502D01*
X137289425Y-111628121D01*
X137384663Y-111628121D01*
X137801331Y-110961454D02*
X137676331Y-111961454D01*
X137795378Y-111009073D02*
X137896569Y-110961454D01*
X138087046Y-110961454D01*
X138176331Y-111009073D01*
X138217998Y-111056692D01*
X138253712Y-111151930D01*
X138217998Y-111437645D01*
X138158474Y-111532883D01*
X138104903Y-111580502D01*
X138003712Y-111628121D01*
X137813235Y-111628121D01*
X137723950Y-111580502D01*
X138581093Y-111580502D02*
X138670378Y-111628121D01*
X138860854Y-111628121D01*
X138962046Y-111580502D01*
X139021570Y-111485264D01*
X139027522Y-111437645D01*
X138991808Y-111342407D01*
X138902521Y-111294788D01*
X138759664Y-111294788D01*
X138670378Y-111247169D01*
X138634664Y-111151930D01*
X138640617Y-111104311D01*
X138700140Y-111009073D01*
X138801331Y-110961454D01*
X138944188Y-110961454D01*
X139033474Y-111009073D01*
X139444188Y-111532883D02*
X139485855Y-111580502D01*
X139432283Y-111628121D01*
X139390617Y-111580502D01*
X139444188Y-111532883D01*
X139432283Y-111628121D01*
X139509664Y-111009073D02*
X139551331Y-111056692D01*
X139497760Y-111104311D01*
X139456093Y-111056692D01*
X139509664Y-111009073D01*
X139497760Y-111104311D01*
X140753712Y-110580502D02*
X139735854Y-111866216D01*
X141801331Y-110580502D02*
X140783473Y-111866216D01*
X142515617Y-110961454D02*
X142414426Y-111770978D01*
X142354902Y-111866216D01*
X142301331Y-111913835D01*
X142200140Y-111961454D01*
X142057283Y-111961454D01*
X141967997Y-111913835D01*
X142438236Y-111580502D02*
X142337045Y-111628121D01*
X142146568Y-111628121D01*
X142057283Y-111580502D01*
X142015616Y-111532883D01*
X141979902Y-111437645D01*
X142015616Y-111151930D01*
X142075140Y-111056692D01*
X142128711Y-111009073D01*
X142229902Y-110961454D01*
X142420379Y-110961454D01*
X142509664Y-111009073D01*
X142908473Y-111628121D02*
X142991807Y-110961454D01*
X143033473Y-110628121D02*
X142979902Y-110675740D01*
X143021569Y-110723359D01*
X143075140Y-110675740D01*
X143033473Y-110628121D01*
X143021569Y-110723359D01*
X143325140Y-110961454D02*
X143706092Y-110961454D01*
X143509663Y-110628121D02*
X143402521Y-111485264D01*
X143438235Y-111580502D01*
X143527520Y-111628121D01*
X143622758Y-111628121D01*
X143956092Y-111628121D02*
X144081092Y-110628121D01*
X144384664Y-111628121D02*
X144450141Y-111104311D01*
X144414426Y-111009073D01*
X144325141Y-110961454D01*
X144182283Y-110961454D01*
X144081092Y-111009073D01*
X144027521Y-111056692D01*
X145372760Y-110961454D02*
X145289426Y-111628121D01*
X144944188Y-110961454D02*
X144878712Y-111485264D01*
X144914426Y-111580502D01*
X145003711Y-111628121D01*
X145146569Y-111628121D01*
X145247760Y-111580502D01*
X145301331Y-111532883D01*
X145765616Y-111628121D02*
X145890616Y-110628121D01*
X145842997Y-111009073D02*
X145944188Y-110961454D01*
X146134665Y-110961454D01*
X146223950Y-111009073D01*
X146265617Y-111056692D01*
X146301331Y-111151930D01*
X146265617Y-111437645D01*
X146206093Y-111532883D01*
X146152522Y-111580502D01*
X146051331Y-111628121D01*
X145860854Y-111628121D01*
X145771569Y-111580502D01*
X146682283Y-111532883D02*
X146723950Y-111580502D01*
X146670378Y-111628121D01*
X146628712Y-111580502D01*
X146682283Y-111532883D01*
X146670378Y-111628121D01*
X147581093Y-111580502D02*
X147479902Y-111628121D01*
X147289425Y-111628121D01*
X147200140Y-111580502D01*
X147158473Y-111532883D01*
X147122759Y-111437645D01*
X147158473Y-111151930D01*
X147217997Y-111056692D01*
X147271568Y-111009073D01*
X147372759Y-110961454D01*
X147563236Y-110961454D01*
X147652521Y-111009073D01*
X148146568Y-111628121D02*
X148057283Y-111580502D01*
X148015616Y-111532883D01*
X147979902Y-111437645D01*
X148015616Y-111151930D01*
X148075140Y-111056692D01*
X148128711Y-111009073D01*
X148229902Y-110961454D01*
X148372760Y-110961454D01*
X148462045Y-111009073D01*
X148503712Y-111056692D01*
X148539426Y-111151930D01*
X148503712Y-111437645D01*
X148444188Y-111532883D01*
X148390617Y-111580502D01*
X148289426Y-111628121D01*
X148146568Y-111628121D01*
X148908473Y-111628121D02*
X148991807Y-110961454D01*
X148979902Y-111056692D02*
X149033473Y-111009073D01*
X149134664Y-110961454D01*
X149277522Y-110961454D01*
X149366807Y-111009073D01*
X149402522Y-111104311D01*
X149337045Y-111628121D01*
X149402522Y-111104311D02*
X149462045Y-111009073D01*
X149563236Y-110961454D01*
X149706093Y-110961454D01*
X149795378Y-111009073D01*
X149831093Y-111104311D01*
X149765616Y-111628121D01*
X151087045Y-110580502D02*
X150069187Y-111866216D01*
X151229902Y-110961454D02*
X151610854Y-110961454D01*
X151414425Y-110628121D02*
X151307283Y-111485264D01*
X151342997Y-111580502D01*
X151432282Y-111628121D01*
X151527520Y-111628121D01*
X151860854Y-111628121D02*
X151985854Y-110628121D01*
X152289426Y-111628121D02*
X152354903Y-111104311D01*
X152319188Y-111009073D01*
X152229903Y-110961454D01*
X152087045Y-110961454D01*
X151985854Y-111009073D01*
X151932283Y-111056692D01*
X153152522Y-111580502D02*
X153051331Y-111628121D01*
X152860854Y-111628121D01*
X152771569Y-111580502D01*
X152735855Y-111485264D01*
X152783474Y-111104311D01*
X152842997Y-111009073D01*
X152944188Y-110961454D01*
X153134665Y-110961454D01*
X153223950Y-111009073D01*
X153259665Y-111104311D01*
X153247760Y-111199550D01*
X152759664Y-111294788D01*
X154051331Y-111628121D02*
X154116808Y-111104311D01*
X154081093Y-111009073D01*
X153991808Y-110961454D01*
X153801331Y-110961454D01*
X153700140Y-111009073D01*
X154057284Y-111580502D02*
X153956093Y-111628121D01*
X153717997Y-111628121D01*
X153628712Y-111580502D01*
X153592998Y-111485264D01*
X153604902Y-111390026D01*
X153664426Y-111294788D01*
X153765616Y-111247169D01*
X154003712Y-111247169D01*
X154104903Y-111199550D01*
X154610855Y-110961454D02*
X154485855Y-111961454D01*
X154604902Y-111009073D02*
X154706093Y-110961454D01*
X154896570Y-110961454D01*
X154985855Y-111009073D01*
X155027522Y-111056692D01*
X155063236Y-111151930D01*
X155027522Y-111437645D01*
X154967998Y-111532883D01*
X154914427Y-111580502D01*
X154813236Y-111628121D01*
X154622759Y-111628121D01*
X154533474Y-111580502D01*
X155432283Y-111628121D02*
X155515617Y-110961454D01*
X155557283Y-110628121D02*
X155503712Y-110675740D01*
X155545379Y-110723359D01*
X155598950Y-110675740D01*
X155557283Y-110628121D01*
X155545379Y-110723359D01*
X156753712Y-110580502D02*
X155735854Y-111866216D01*
X156896569Y-110961454D02*
X157277521Y-110961454D01*
X157081092Y-110628121D02*
X156973950Y-111485264D01*
X157009664Y-111580502D01*
X157098949Y-111628121D01*
X157194187Y-111628121D01*
X157670378Y-111628121D02*
X157581093Y-111580502D01*
X157539426Y-111532883D01*
X157503712Y-111437645D01*
X157539426Y-111151930D01*
X157598950Y-111056692D01*
X157652521Y-111009073D01*
X157753712Y-110961454D01*
X157896570Y-110961454D01*
X157985855Y-111009073D01*
X158027522Y-111056692D01*
X158063236Y-111151930D01*
X158027522Y-111437645D01*
X157967998Y-111532883D01*
X157914427Y-111580502D01*
X157813236Y-111628121D01*
X157670378Y-111628121D01*
X158944189Y-110961454D02*
X158860855Y-111628121D01*
X158515617Y-110961454D02*
X158450141Y-111485264D01*
X158485855Y-111580502D01*
X158575140Y-111628121D01*
X158717998Y-111628121D01*
X158819189Y-111580502D01*
X158872760Y-111532883D01*
X159771570Y-111580502D02*
X159670379Y-111628121D01*
X159479902Y-111628121D01*
X159390617Y-111580502D01*
X159348950Y-111532883D01*
X159313236Y-111437645D01*
X159348950Y-111151930D01*
X159408474Y-111056692D01*
X159462045Y-111009073D01*
X159563236Y-110961454D01*
X159753713Y-110961454D01*
X159842998Y-111009073D01*
X160194188Y-111628121D02*
X160319188Y-110628121D01*
X160622760Y-111628121D02*
X160688237Y-111104311D01*
X160652522Y-111009073D01*
X160563237Y-110961454D01*
X160420379Y-110961454D01*
X160319188Y-111009073D01*
X160265617Y-111056692D01*
X160848951Y-111723359D02*
X161610856Y-111723359D01*
X161801332Y-110961454D02*
X162182284Y-110961454D01*
X161985855Y-110628121D02*
X161878713Y-111485264D01*
X161914427Y-111580502D01*
X162003712Y-111628121D01*
X162098950Y-111628121D01*
X162432284Y-111628121D02*
X162515618Y-110961454D01*
X162557284Y-110628121D02*
X162503713Y-110675740D01*
X162545380Y-110723359D01*
X162598951Y-110675740D01*
X162557284Y-110628121D01*
X162545380Y-110723359D01*
X162908474Y-111628121D02*
X162991808Y-110961454D01*
X162979903Y-111056692D02*
X163033474Y-111009073D01*
X163134665Y-110961454D01*
X163277523Y-110961454D01*
X163366808Y-111009073D01*
X163402523Y-111104311D01*
X163337046Y-111628121D01*
X163402523Y-111104311D02*
X163462046Y-111009073D01*
X163563237Y-110961454D01*
X163706094Y-110961454D01*
X163795379Y-111009073D01*
X163831094Y-111104311D01*
X163765617Y-111628121D01*
X164628713Y-111580502D02*
X164527522Y-111628121D01*
X164337045Y-111628121D01*
X164247760Y-111580502D01*
X164212046Y-111485264D01*
X164259665Y-111104311D01*
X164319188Y-111009073D01*
X164420379Y-110961454D01*
X164610856Y-110961454D01*
X164700141Y-111009073D01*
X164735856Y-111104311D01*
X164723951Y-111199550D01*
X164235855Y-111294788D01*
X165098950Y-111628121D02*
X165182284Y-110961454D01*
X165158474Y-111151930D02*
X165217998Y-111056692D01*
X165271569Y-111009073D01*
X165372760Y-110961454D01*
X165467999Y-110961454D01*
X137646567Y-113178121D02*
X137771567Y-112178121D01*
X137789424Y-112797169D02*
X138027520Y-113178121D01*
X138110854Y-112511454D02*
X137682282Y-112892407D01*
X138456091Y-113178121D02*
X138539425Y-112511454D01*
X138581091Y-112178121D02*
X138527520Y-112225740D01*
X138569187Y-112273359D01*
X138622758Y-112225740D01*
X138581091Y-112178121D01*
X138569187Y-112273359D01*
X139366806Y-113130502D02*
X139265615Y-113178121D01*
X139075138Y-113178121D01*
X138985853Y-113130502D01*
X138944186Y-113082883D01*
X138908472Y-112987645D01*
X138944186Y-112701930D01*
X139003710Y-112606692D01*
X139057281Y-112559073D01*
X139158472Y-112511454D01*
X139348949Y-112511454D01*
X139438234Y-112559073D01*
X140217996Y-113178121D02*
X140283473Y-112654311D01*
X140247758Y-112559073D01*
X140158473Y-112511454D01*
X139967996Y-112511454D01*
X139866805Y-112559073D01*
X140223949Y-113130502D02*
X140122758Y-113178121D01*
X139884662Y-113178121D01*
X139795377Y-113130502D01*
X139759663Y-113035264D01*
X139771567Y-112940026D01*
X139831091Y-112844788D01*
X139932281Y-112797169D01*
X140170377Y-112797169D01*
X140271568Y-112749550D01*
X141122758Y-113178121D02*
X141247758Y-112178121D01*
X141128711Y-113130502D02*
X141027520Y-113178121D01*
X140837043Y-113178121D01*
X140747758Y-113130502D01*
X140706091Y-113082883D01*
X140670377Y-112987645D01*
X140706091Y-112701930D01*
X140765615Y-112606692D01*
X140819186Y-112559073D01*
X140920377Y-112511454D01*
X141110854Y-112511454D01*
X141200139Y-112559073D01*
X142444187Y-112130502D02*
X141426329Y-113416216D01*
X143033473Y-113130502D02*
X142932282Y-113178121D01*
X142741805Y-113178121D01*
X142652520Y-113130502D01*
X142616806Y-113035264D01*
X142664425Y-112654311D01*
X142723948Y-112559073D01*
X142825139Y-112511454D01*
X143015616Y-112511454D01*
X143104901Y-112559073D01*
X143140616Y-112654311D01*
X143128711Y-112749550D01*
X142640615Y-112844788D01*
X143408472Y-113178121D02*
X144015616Y-112511454D01*
X143491806Y-112511454D02*
X143932282Y-113178121D01*
X144396568Y-112511454D02*
X144271568Y-113511454D01*
X144390615Y-112559073D02*
X144491806Y-112511454D01*
X144682283Y-112511454D01*
X144771568Y-112559073D01*
X144813235Y-112606692D01*
X144848949Y-112701930D01*
X144813235Y-112987645D01*
X144753711Y-113082883D01*
X144700140Y-113130502D01*
X144598949Y-113178121D01*
X144408472Y-113178121D01*
X144319187Y-113130502D01*
X145604902Y-113130502D02*
X145503711Y-113178121D01*
X145313234Y-113178121D01*
X145223949Y-113130502D01*
X145188235Y-113035264D01*
X145235854Y-112654311D01*
X145295377Y-112559073D01*
X145396568Y-112511454D01*
X145587045Y-112511454D01*
X145676330Y-112559073D01*
X145712045Y-112654311D01*
X145700140Y-112749550D01*
X145212044Y-112844788D01*
X146075139Y-113178121D02*
X146158473Y-112511454D01*
X146134663Y-112701930D02*
X146194187Y-112606692D01*
X146247758Y-112559073D01*
X146348949Y-112511454D01*
X146444188Y-112511454D01*
X146694187Y-113178121D02*
X146777521Y-112511454D01*
X146819187Y-112178121D02*
X146765616Y-112225740D01*
X146807283Y-112273359D01*
X146860854Y-112225740D01*
X146819187Y-112178121D01*
X146807283Y-112273359D01*
X147170377Y-113178121D02*
X147253711Y-112511454D01*
X147241806Y-112606692D02*
X147295377Y-112559073D01*
X147396568Y-112511454D01*
X147539426Y-112511454D01*
X147628711Y-112559073D01*
X147664426Y-112654311D01*
X147598949Y-113178121D01*
X147664426Y-112654311D02*
X147723949Y-112559073D01*
X147825140Y-112511454D01*
X147967997Y-112511454D01*
X148057282Y-112559073D01*
X148092997Y-112654311D01*
X148027520Y-113178121D01*
X148890616Y-113130502D02*
X148789425Y-113178121D01*
X148598948Y-113178121D01*
X148509663Y-113130502D01*
X148473949Y-113035264D01*
X148521568Y-112654311D01*
X148581091Y-112559073D01*
X148682282Y-112511454D01*
X148872759Y-112511454D01*
X148962044Y-112559073D01*
X148997759Y-112654311D01*
X148985854Y-112749550D01*
X148497758Y-112844788D01*
X149444187Y-112511454D02*
X149360853Y-113178121D01*
X149432282Y-112606692D02*
X149485853Y-112559073D01*
X149587044Y-112511454D01*
X149729902Y-112511454D01*
X149819187Y-112559073D01*
X149854902Y-112654311D01*
X149789425Y-113178121D01*
X150206092Y-112511454D02*
X150587044Y-112511454D01*
X150390615Y-112178121D02*
X150283473Y-113035264D01*
X150319187Y-113130502D01*
X150408472Y-113178121D01*
X150503710Y-113178121D01*
X150795378Y-113130502D02*
X150884663Y-113178121D01*
X151075139Y-113178121D01*
X151176331Y-113130502D01*
X151235855Y-113035264D01*
X151241807Y-112987645D01*
X151206093Y-112892407D01*
X151116806Y-112844788D01*
X150973949Y-112844788D01*
X150884663Y-112797169D01*
X150848949Y-112701930D01*
X150854902Y-112654311D01*
X150914425Y-112559073D01*
X151015616Y-112511454D01*
X151158473Y-112511454D01*
X151247759Y-112559073D01*
X152491807Y-112130502D02*
X151473949Y-113416216D01*
X153128712Y-113130502D02*
X153027521Y-113178121D01*
X152837044Y-113178121D01*
X152747759Y-113130502D01*
X152706092Y-113082883D01*
X152670378Y-112987645D01*
X152706092Y-112701930D01*
X152765616Y-112606692D01*
X152819187Y-112559073D01*
X152920378Y-112511454D01*
X153110855Y-112511454D01*
X153200140Y-112559073D01*
X153694187Y-113178121D02*
X153604902Y-113130502D01*
X153569188Y-113035264D01*
X153676330Y-112178121D01*
X154217997Y-113178121D02*
X154128712Y-113130502D01*
X154087045Y-113082883D01*
X154051331Y-112987645D01*
X154087045Y-112701930D01*
X154146569Y-112606692D01*
X154200140Y-112559073D01*
X154301331Y-112511454D01*
X154444189Y-112511454D01*
X154533474Y-112559073D01*
X154575141Y-112606692D01*
X154610855Y-112701930D01*
X154575141Y-112987645D01*
X154515617Y-113082883D01*
X154462046Y-113130502D01*
X154360855Y-113178121D01*
X154217997Y-113178121D01*
X155414427Y-113130502D02*
X155313236Y-113178121D01*
X155122759Y-113178121D01*
X155033474Y-113130502D01*
X154991807Y-113082883D01*
X154956093Y-112987645D01*
X154991807Y-112701930D01*
X155051331Y-112606692D01*
X155104902Y-112559073D01*
X155206093Y-112511454D01*
X155396570Y-112511454D01*
X155485855Y-112559073D01*
X155837045Y-113178121D02*
X155962045Y-112178121D01*
X155979902Y-112797169D02*
X156217998Y-113178121D01*
X156301332Y-112511454D02*
X155872760Y-112892407D01*
X156587046Y-112511454D02*
X156967998Y-112511454D01*
X156646569Y-113178121D02*
X156753712Y-112320978D01*
X156813236Y-112225740D01*
X156914426Y-112178121D01*
X157009664Y-112178121D01*
X157646570Y-113178121D02*
X157712047Y-112654311D01*
X157676332Y-112559073D01*
X157587047Y-112511454D01*
X157396570Y-112511454D01*
X157295379Y-112559073D01*
X157652523Y-113130502D02*
X157551332Y-113178121D01*
X157313236Y-113178121D01*
X157223951Y-113130502D01*
X157188237Y-113035264D01*
X157200141Y-112940026D01*
X157259665Y-112844788D01*
X157360855Y-112797169D01*
X157598951Y-112797169D01*
X157700142Y-112749550D01*
X158557285Y-113130502D02*
X158456094Y-113178121D01*
X158265617Y-113178121D01*
X158176332Y-113130502D01*
X158134665Y-113082883D01*
X158098951Y-112987645D01*
X158134665Y-112701930D01*
X158194189Y-112606692D01*
X158247760Y-112559073D01*
X158348951Y-112511454D01*
X158539428Y-112511454D01*
X158628713Y-112559073D01*
X159366809Y-113130502D02*
X159265618Y-113178121D01*
X159075141Y-113178121D01*
X158985856Y-113130502D01*
X158950142Y-113035264D01*
X158997761Y-112654311D01*
X159057284Y-112559073D01*
X159158475Y-112511454D01*
X159348952Y-112511454D01*
X159438237Y-112559073D01*
X159473952Y-112654311D01*
X159462047Y-112749550D01*
X158973951Y-112844788D01*
X160587047Y-112511454D02*
X160741808Y-113178121D01*
X161063238Y-112511454D01*
X161884666Y-113178121D02*
X161313237Y-113178121D01*
X161598951Y-113178121D02*
X161723951Y-112178121D01*
X161610856Y-112320978D01*
X161503714Y-112416216D01*
X161402523Y-112463835D01*
X162325142Y-113082883D02*
X162366809Y-113130502D01*
X162313237Y-113178121D01*
X162271571Y-113130502D01*
X162325142Y-113082883D01*
X162313237Y-113178121D01*
X163104903Y-112178121D02*
X163200142Y-112178121D01*
X163289428Y-112225740D01*
X163331095Y-112273359D01*
X163366809Y-112368597D01*
X163390618Y-112559073D01*
X163360856Y-112797169D01*
X163289428Y-112987645D01*
X163229904Y-113082883D01*
X163176333Y-113130502D01*
X163075142Y-113178121D01*
X162979903Y-113178121D01*
X162890618Y-113130502D01*
X162848951Y-113082883D01*
X162813237Y-112987645D01*
X162789427Y-112797169D01*
X162819189Y-112559073D01*
X162890618Y-112368597D01*
X162950142Y-112273359D01*
X163003713Y-112225740D01*
X163104903Y-112178121D01*
X170837013Y-72558434D02*
X170825079Y-72452626D01*
X170747273Y-72332816D01*
X170629531Y-72238940D01*
X170497787Y-72210937D01*
X170391979Y-72222871D01*
X170206297Y-72286675D01*
X170086486Y-72364481D01*
X169952675Y-72508158D01*
X169898736Y-72599965D01*
X169870733Y-72731709D01*
X169908603Y-72877455D01*
X169960473Y-72957328D01*
X170078215Y-73051203D01*
X170144087Y-73065204D01*
X170423644Y-72883658D01*
X170319903Y-72723911D01*
X170297630Y-73476504D02*
X171136301Y-72931865D01*
X170608853Y-73955745D01*
X171447523Y-73411106D01*
X170868205Y-74355112D02*
X171706875Y-73810473D01*
X171836551Y-74010156D01*
X171874420Y-74155902D01*
X171846417Y-74287645D01*
X171792479Y-74379452D01*
X171658668Y-74523130D01*
X171538857Y-74600936D01*
X171353175Y-74664740D01*
X171247367Y-74676674D01*
X171115623Y-74648671D01*
X170997880Y-74554795D01*
X170868205Y-74355112D01*
X166998973Y-72703327D02*
X167837643Y-72158688D01*
X167258324Y-73102694D02*
X168096995Y-72558055D01*
X167569547Y-73581934D01*
X168408217Y-73037295D01*
X168589764Y-73316852D02*
X168900986Y-73796093D01*
X167906704Y-74101111D02*
X168745375Y-73556472D01*
X161957830Y-72671803D02*
X161995699Y-72817548D01*
X162125376Y-73017232D01*
X162217183Y-73071171D01*
X162283054Y-73085172D01*
X162388863Y-73073238D01*
X162468736Y-73021368D01*
X162522674Y-72929561D01*
X162536676Y-72863689D01*
X162524743Y-72757880D01*
X162460939Y-72572198D01*
X162449005Y-72466389D01*
X162463006Y-72400517D01*
X162516944Y-72308710D01*
X162596818Y-72256840D01*
X162702626Y-72244906D01*
X162768498Y-72258908D01*
X162860305Y-72312846D01*
X162989981Y-72512530D01*
X163027850Y-72658275D01*
X162462533Y-73536409D02*
X163301203Y-72991770D01*
X163430879Y-73191453D01*
X163468749Y-73337199D01*
X163440746Y-73468943D01*
X163386808Y-73560750D01*
X163252996Y-73704427D01*
X163133185Y-73782233D01*
X162947503Y-73846037D01*
X162841695Y-73857971D01*
X162709951Y-73829968D01*
X162592209Y-73736092D01*
X162462533Y-73536409D01*
X163220857Y-74179532D02*
X163480209Y-74578899D01*
X162929366Y-74255270D02*
X163949583Y-73990187D01*
X163292459Y-74814384D01*
X164510798Y-72691772D02*
X164548667Y-72837517D01*
X164678344Y-73037201D01*
X164770151Y-73091139D01*
X164836022Y-73105141D01*
X164941831Y-73093207D01*
X165021704Y-73041337D01*
X165075642Y-72949530D01*
X165089644Y-72883658D01*
X165077711Y-72777849D01*
X165013906Y-72592166D01*
X165001973Y-72486358D01*
X165015974Y-72420486D01*
X165069912Y-72328679D01*
X165149786Y-72276809D01*
X165255594Y-72264875D01*
X165321466Y-72278877D01*
X165413273Y-72332815D01*
X165542949Y-72532499D01*
X165580818Y-72678244D01*
X165406597Y-73983748D02*
X165340725Y-73969747D01*
X165222983Y-73875872D01*
X165171112Y-73795998D01*
X165133243Y-73650253D01*
X165161246Y-73518509D01*
X165215184Y-73426702D01*
X165348995Y-73283025D01*
X165468806Y-73205219D01*
X165654488Y-73141415D01*
X165760296Y-73129481D01*
X165892040Y-73157484D01*
X166009783Y-73251359D01*
X166061653Y-73331233D01*
X166099522Y-73476978D01*
X166085521Y-73542850D01*
X165819492Y-74794416D02*
X165560140Y-74395048D01*
X166398810Y-73850409D01*
X158933664Y-72416421D02*
X159552712Y-72416421D01*
X159219378Y-72797373D01*
X159362236Y-72797373D01*
X159457474Y-72844992D01*
X159505093Y-72892611D01*
X159552712Y-72987850D01*
X159552712Y-73225945D01*
X159505093Y-73321183D01*
X159457474Y-73368802D01*
X159362236Y-73416421D01*
X159076521Y-73416421D01*
X158981283Y-73368802D01*
X158933664Y-73321183D01*
X159886045Y-72749754D02*
X160124140Y-73416421D01*
X160362236Y-72749754D01*
X160647950Y-72416421D02*
X161266998Y-72416421D01*
X160933664Y-72797373D01*
X161076522Y-72797373D01*
X161171760Y-72844992D01*
X161219379Y-72892611D01*
X161266998Y-72987850D01*
X161266998Y-73225945D01*
X161219379Y-73321183D01*
X161171760Y-73368802D01*
X161076522Y-73416421D01*
X160790807Y-73416421D01*
X160695569Y-73368802D01*
X160647950Y-73321183D01*
X139431140Y-90654240D02*
X140431140Y-90654240D01*
X140431140Y-88954240D02*
X139431140Y-88954240D01*
X131637140Y-89034240D02*
X131637140Y-88034240D01*
X129937140Y-88034240D02*
X129937140Y-89034240D01*
X130076140Y-72393240D02*
X132776140Y-72393240D01*
X130076140Y-70893240D02*
X132776140Y-70893240D01*
X131576140Y-71793240D02*
X131576140Y-71543240D01*
X131576140Y-71543240D02*
X131426140Y-71693240D01*
X131326140Y-71293240D02*
X131326140Y-71993240D01*
X131676140Y-71643240D02*
X132026140Y-71643240D01*
X131326140Y-71643240D02*
X131676140Y-71293240D01*
X131676140Y-71293240D02*
X131676140Y-71993240D01*
X131676140Y-71993240D02*
X131326140Y-71643240D01*
X135373140Y-72497240D02*
X135373140Y-71297240D01*
X137123140Y-71297240D02*
X137123140Y-72497240D01*
X150945140Y-98299240D02*
X149745140Y-98299240D01*
X149745140Y-96549240D02*
X150945140Y-96549240D01*
X150691140Y-84075240D02*
X149491140Y-84075240D01*
X149491140Y-82325240D02*
X150691140Y-82325240D01*
X150691140Y-81281240D02*
X149491140Y-81281240D01*
X149491140Y-79531240D02*
X150691140Y-79531240D01*
X150945140Y-100585240D02*
X149745140Y-100585240D01*
X149745140Y-98835240D02*
X150945140Y-98835240D01*
X161521140Y-69204840D02*
X161521140Y-67198240D01*
X158701740Y-68925440D02*
X158701740Y-66918840D01*
X158701140Y-66918240D02*
X160251140Y-66918240D01*
X161521140Y-69230240D02*
X161521140Y-71770240D01*
X160251140Y-72050240D02*
X158701140Y-72050240D01*
X158701140Y-72050240D02*
X158701140Y-68950240D01*
X153133780Y-96066500D02*
X153133780Y-95416500D01*
X147383780Y-96066500D02*
X147383780Y-95416500D01*
X147383780Y-85416500D02*
X147383780Y-86066500D01*
X153133780Y-85416500D02*
X153133780Y-86066500D01*
X153133780Y-96066500D02*
X147383780Y-96066500D01*
X153133780Y-85416500D02*
X147383780Y-85416500D01*
X153133780Y-95416500D02*
X154733780Y-95416500D01*
X139764474Y-92261383D02*
X139716855Y-92309002D01*
X139573998Y-92356621D01*
X139478760Y-92356621D01*
X139335902Y-92309002D01*
X139240664Y-92213764D01*
X139193045Y-92118526D01*
X139145426Y-91928050D01*
X139145426Y-91785192D01*
X139193045Y-91594716D01*
X139240664Y-91499478D01*
X139335902Y-91404240D01*
X139478760Y-91356621D01*
X139573998Y-91356621D01*
X139716855Y-91404240D01*
X139764474Y-91451859D01*
X140716855Y-92356621D02*
X140145426Y-92356621D01*
X140431140Y-92356621D02*
X140431140Y-91356621D01*
X140335902Y-91499478D01*
X140240664Y-91594716D01*
X140145426Y-91642335D01*
X138415283Y-87097621D02*
X138510522Y-87097621D01*
X138605760Y-87145240D01*
X138653379Y-87192859D01*
X138700998Y-87288097D01*
X138748617Y-87478573D01*
X138748617Y-87716669D01*
X138700998Y-87907145D01*
X138653379Y-88002383D01*
X138605760Y-88050002D01*
X138510522Y-88097621D01*
X138415283Y-88097621D01*
X138320045Y-88050002D01*
X138272426Y-88002383D01*
X138224807Y-87907145D01*
X138177188Y-87716669D01*
X138177188Y-87478573D01*
X138224807Y-87288097D01*
X138272426Y-87192859D01*
X138320045Y-87145240D01*
X138415283Y-87097621D01*
X139177188Y-88002383D02*
X139224807Y-88050002D01*
X139177188Y-88097621D01*
X139129569Y-88050002D01*
X139177188Y-88002383D01*
X139177188Y-88097621D01*
X140177188Y-88097621D02*
X139605759Y-88097621D01*
X139891473Y-88097621D02*
X139891473Y-87097621D01*
X139796235Y-87240478D01*
X139700997Y-87335716D01*
X139605759Y-87383335D01*
X141034331Y-87430954D02*
X141034331Y-88097621D01*
X140605759Y-87430954D02*
X140605759Y-87954764D01*
X140653378Y-88050002D01*
X140748616Y-88097621D01*
X140891474Y-88097621D01*
X140986712Y-88050002D01*
X141034331Y-88002383D01*
X141843855Y-87573811D02*
X141510521Y-87573811D01*
X141510521Y-88097621D02*
X141510521Y-87097621D01*
X141986712Y-87097621D01*
X132779474Y-88383383D02*
X132731855Y-88431002D01*
X132588998Y-88478621D01*
X132493760Y-88478621D01*
X132350902Y-88431002D01*
X132255664Y-88335764D01*
X132208045Y-88240526D01*
X132160426Y-88050050D01*
X132160426Y-87907192D01*
X132208045Y-87716716D01*
X132255664Y-87621478D01*
X132350902Y-87526240D01*
X132493760Y-87478621D01*
X132588998Y-87478621D01*
X132731855Y-87526240D01*
X132779474Y-87573859D01*
X133160426Y-87573859D02*
X133208045Y-87526240D01*
X133303283Y-87478621D01*
X133541379Y-87478621D01*
X133636617Y-87526240D01*
X133684236Y-87573859D01*
X133731855Y-87669097D01*
X133731855Y-87764335D01*
X133684236Y-87907192D01*
X133112807Y-88478621D01*
X133731855Y-88478621D01*
X132763712Y-90002621D02*
X132192283Y-90002621D01*
X132477997Y-90002621D02*
X132477997Y-89002621D01*
X132382759Y-89145478D01*
X132287521Y-89240716D01*
X132192283Y-89288335D01*
X133382759Y-89002621D02*
X133477998Y-89002621D01*
X133573236Y-89050240D01*
X133620855Y-89097859D01*
X133668474Y-89193097D01*
X133716093Y-89383573D01*
X133716093Y-89621669D01*
X133668474Y-89812145D01*
X133620855Y-89907383D01*
X133573236Y-89955002D01*
X133477998Y-90002621D01*
X133382759Y-90002621D01*
X133287521Y-89955002D01*
X133239902Y-89907383D01*
X133192283Y-89812145D01*
X133144664Y-89621669D01*
X133144664Y-89383573D01*
X133192283Y-89193097D01*
X133239902Y-89097859D01*
X133287521Y-89050240D01*
X133382759Y-89002621D01*
X134573236Y-89335954D02*
X134573236Y-90002621D01*
X134144664Y-89335954D02*
X134144664Y-89859764D01*
X134192283Y-89955002D01*
X134287521Y-90002621D01*
X134430379Y-90002621D01*
X134525617Y-89955002D01*
X134573236Y-89907383D01*
X135382760Y-89478811D02*
X135049426Y-89478811D01*
X135049426Y-90002621D02*
X135049426Y-89002621D01*
X135525617Y-89002621D01*
X131065045Y-73746621D02*
X131065045Y-72746621D01*
X131303140Y-72746621D01*
X131445998Y-72794240D01*
X131541236Y-72889478D01*
X131588855Y-72984716D01*
X131636474Y-73175192D01*
X131636474Y-73318050D01*
X131588855Y-73508526D01*
X131541236Y-73603764D01*
X131445998Y-73699002D01*
X131303140Y-73746621D01*
X131065045Y-73746621D01*
X132588855Y-73746621D02*
X132017426Y-73746621D01*
X132303140Y-73746621D02*
X132303140Y-72746621D01*
X132207902Y-72889478D01*
X132112664Y-72984716D01*
X132017426Y-73032335D01*
X138240474Y-71714621D02*
X137907140Y-71238430D01*
X137669045Y-71714621D02*
X137669045Y-70714621D01*
X138049998Y-70714621D01*
X138145236Y-70762240D01*
X138192855Y-70809859D01*
X138240474Y-70905097D01*
X138240474Y-71047954D01*
X138192855Y-71143192D01*
X138145236Y-71190811D01*
X138049998Y-71238430D01*
X137669045Y-71238430D01*
X139192855Y-71714621D02*
X138621426Y-71714621D01*
X138907140Y-71714621D02*
X138907140Y-70714621D01*
X138811902Y-70857478D01*
X138716664Y-70952716D01*
X138621426Y-71000335D01*
X137867521Y-72667192D02*
X137772283Y-72619573D01*
X137724664Y-72571954D01*
X137677045Y-72476716D01*
X137677045Y-72429097D01*
X137724664Y-72333859D01*
X137772283Y-72286240D01*
X137867521Y-72238621D01*
X138057998Y-72238621D01*
X138153236Y-72286240D01*
X138200855Y-72333859D01*
X138248474Y-72429097D01*
X138248474Y-72476716D01*
X138200855Y-72571954D01*
X138153236Y-72619573D01*
X138057998Y-72667192D01*
X137867521Y-72667192D01*
X137772283Y-72714811D01*
X137724664Y-72762430D01*
X137677045Y-72857669D01*
X137677045Y-73048145D01*
X137724664Y-73143383D01*
X137772283Y-73191002D01*
X137867521Y-73238621D01*
X138057998Y-73238621D01*
X138153236Y-73191002D01*
X138200855Y-73143383D01*
X138248474Y-73048145D01*
X138248474Y-72857669D01*
X138200855Y-72762430D01*
X138153236Y-72714811D01*
X138057998Y-72667192D01*
X138629426Y-72333859D02*
X138677045Y-72286240D01*
X138772283Y-72238621D01*
X139010379Y-72238621D01*
X139105617Y-72286240D01*
X139153236Y-72333859D01*
X139200855Y-72429097D01*
X139200855Y-72524335D01*
X139153236Y-72667192D01*
X138581807Y-73238621D01*
X139200855Y-73238621D01*
X139819902Y-72238621D02*
X139915141Y-72238621D01*
X140010379Y-72286240D01*
X140057998Y-72333859D01*
X140105617Y-72429097D01*
X140153236Y-72619573D01*
X140153236Y-72857669D01*
X140105617Y-73048145D01*
X140057998Y-73143383D01*
X140010379Y-73191002D01*
X139915141Y-73238621D01*
X139819902Y-73238621D01*
X139724664Y-73191002D01*
X139677045Y-73143383D01*
X139629426Y-73048145D01*
X139581807Y-72857669D01*
X139581807Y-72619573D01*
X139629426Y-72429097D01*
X139677045Y-72333859D01*
X139724664Y-72286240D01*
X139819902Y-72238621D01*
X153861474Y-97876621D02*
X153528140Y-97400430D01*
X153290045Y-97876621D02*
X153290045Y-96876621D01*
X153670998Y-96876621D01*
X153766236Y-96924240D01*
X153813855Y-96971859D01*
X153861474Y-97067097D01*
X153861474Y-97209954D01*
X153813855Y-97305192D01*
X153766236Y-97352811D01*
X153670998Y-97400430D01*
X153290045Y-97400430D01*
X154242426Y-96971859D02*
X154290045Y-96924240D01*
X154385283Y-96876621D01*
X154623379Y-96876621D01*
X154718617Y-96924240D01*
X154766236Y-96971859D01*
X154813855Y-97067097D01*
X154813855Y-97162335D01*
X154766236Y-97305192D01*
X154194807Y-97876621D01*
X154813855Y-97876621D01*
X145241473Y-96971859D02*
X145289092Y-96924240D01*
X145384330Y-96876621D01*
X145622426Y-96876621D01*
X145717664Y-96924240D01*
X145765283Y-96971859D01*
X145812902Y-97067097D01*
X145812902Y-97162335D01*
X145765283Y-97305192D01*
X145193854Y-97876621D01*
X145812902Y-97876621D01*
X146431949Y-96876621D02*
X146527188Y-96876621D01*
X146622426Y-96924240D01*
X146670045Y-96971859D01*
X146717664Y-97067097D01*
X146765283Y-97257573D01*
X146765283Y-97495669D01*
X146717664Y-97686145D01*
X146670045Y-97781383D01*
X146622426Y-97829002D01*
X146527188Y-97876621D01*
X146431949Y-97876621D01*
X146336711Y-97829002D01*
X146289092Y-97781383D01*
X146241473Y-97686145D01*
X146193854Y-97495669D01*
X146193854Y-97257573D01*
X146241473Y-97067097D01*
X146289092Y-96971859D01*
X146336711Y-96924240D01*
X146431949Y-96876621D01*
X147193854Y-97876621D02*
X147193854Y-96876621D01*
X147289092Y-97495669D02*
X147574807Y-97876621D01*
X147574807Y-97209954D02*
X147193854Y-97590907D01*
X153480474Y-83652621D02*
X153147140Y-83176430D01*
X152909045Y-83652621D02*
X152909045Y-82652621D01*
X153289998Y-82652621D01*
X153385236Y-82700240D01*
X153432855Y-82747859D01*
X153480474Y-82843097D01*
X153480474Y-82985954D01*
X153432855Y-83081192D01*
X153385236Y-83128811D01*
X153289998Y-83176430D01*
X152909045Y-83176430D01*
X153813807Y-82652621D02*
X154432855Y-82652621D01*
X154099521Y-83033573D01*
X154242379Y-83033573D01*
X154337617Y-83081192D01*
X154385236Y-83128811D01*
X154432855Y-83224050D01*
X154432855Y-83462145D01*
X154385236Y-83557383D01*
X154337617Y-83605002D01*
X154242379Y-83652621D01*
X153956664Y-83652621D01*
X153861426Y-83605002D01*
X153813807Y-83557383D01*
X145066807Y-83652621D02*
X144495378Y-83652621D01*
X144781092Y-83652621D02*
X144781092Y-82652621D01*
X144685854Y-82795478D01*
X144590616Y-82890716D01*
X144495378Y-82938335D01*
X145495378Y-83557383D02*
X145542997Y-83605002D01*
X145495378Y-83652621D01*
X145447759Y-83605002D01*
X145495378Y-83557383D01*
X145495378Y-83652621D01*
X146114425Y-83081192D02*
X146019187Y-83033573D01*
X145971568Y-82985954D01*
X145923949Y-82890716D01*
X145923949Y-82843097D01*
X145971568Y-82747859D01*
X146019187Y-82700240D01*
X146114425Y-82652621D01*
X146304902Y-82652621D01*
X146400140Y-82700240D01*
X146447759Y-82747859D01*
X146495378Y-82843097D01*
X146495378Y-82890716D01*
X146447759Y-82985954D01*
X146400140Y-83033573D01*
X146304902Y-83081192D01*
X146114425Y-83081192D01*
X146019187Y-83128811D01*
X145971568Y-83176430D01*
X145923949Y-83271669D01*
X145923949Y-83462145D01*
X145971568Y-83557383D01*
X146019187Y-83605002D01*
X146114425Y-83652621D01*
X146304902Y-83652621D01*
X146400140Y-83605002D01*
X146447759Y-83557383D01*
X146495378Y-83462145D01*
X146495378Y-83271669D01*
X146447759Y-83176430D01*
X146400140Y-83128811D01*
X146304902Y-83081192D01*
X146923949Y-83652621D02*
X146923949Y-82652621D01*
X147019187Y-83271669D02*
X147304902Y-83652621D01*
X147304902Y-82985954D02*
X146923949Y-83366907D01*
X153480474Y-80858621D02*
X153147140Y-80382430D01*
X152909045Y-80858621D02*
X152909045Y-79858621D01*
X153289998Y-79858621D01*
X153385236Y-79906240D01*
X153432855Y-79953859D01*
X153480474Y-80049097D01*
X153480474Y-80191954D01*
X153432855Y-80287192D01*
X153385236Y-80334811D01*
X153289998Y-80382430D01*
X152909045Y-80382430D01*
X154337617Y-80191954D02*
X154337617Y-80858621D01*
X154099521Y-79811002D02*
X153861426Y-80525288D01*
X154480474Y-80525288D01*
X145066807Y-80858621D02*
X144495378Y-80858621D01*
X144781092Y-80858621D02*
X144781092Y-79858621D01*
X144685854Y-80001478D01*
X144590616Y-80096716D01*
X144495378Y-80144335D01*
X145495378Y-80763383D02*
X145542997Y-80811002D01*
X145495378Y-80858621D01*
X145447759Y-80811002D01*
X145495378Y-80763383D01*
X145495378Y-80858621D01*
X146114425Y-80287192D02*
X146019187Y-80239573D01*
X145971568Y-80191954D01*
X145923949Y-80096716D01*
X145923949Y-80049097D01*
X145971568Y-79953859D01*
X146019187Y-79906240D01*
X146114425Y-79858621D01*
X146304902Y-79858621D01*
X146400140Y-79906240D01*
X146447759Y-79953859D01*
X146495378Y-80049097D01*
X146495378Y-80096716D01*
X146447759Y-80191954D01*
X146400140Y-80239573D01*
X146304902Y-80287192D01*
X146114425Y-80287192D01*
X146019187Y-80334811D01*
X145971568Y-80382430D01*
X145923949Y-80477669D01*
X145923949Y-80668145D01*
X145971568Y-80763383D01*
X146019187Y-80811002D01*
X146114425Y-80858621D01*
X146304902Y-80858621D01*
X146400140Y-80811002D01*
X146447759Y-80763383D01*
X146495378Y-80668145D01*
X146495378Y-80477669D01*
X146447759Y-80382430D01*
X146400140Y-80334811D01*
X146304902Y-80287192D01*
X146923949Y-80858621D02*
X146923949Y-79858621D01*
X147019187Y-80477669D02*
X147304902Y-80858621D01*
X147304902Y-80191954D02*
X146923949Y-80572907D01*
X153861474Y-100162621D02*
X153528140Y-99686430D01*
X153290045Y-100162621D02*
X153290045Y-99162621D01*
X153670998Y-99162621D01*
X153766236Y-99210240D01*
X153813855Y-99257859D01*
X153861474Y-99353097D01*
X153861474Y-99495954D01*
X153813855Y-99591192D01*
X153766236Y-99638811D01*
X153670998Y-99686430D01*
X153290045Y-99686430D01*
X154766236Y-99162621D02*
X154290045Y-99162621D01*
X154242426Y-99638811D01*
X154290045Y-99591192D01*
X154385283Y-99543573D01*
X154623379Y-99543573D01*
X154718617Y-99591192D01*
X154766236Y-99638811D01*
X154813855Y-99734050D01*
X154813855Y-99972145D01*
X154766236Y-100067383D01*
X154718617Y-100115002D01*
X154623379Y-100162621D01*
X154385283Y-100162621D01*
X154290045Y-100115002D01*
X154242426Y-100067383D01*
X145225569Y-99495954D02*
X145225569Y-100162621D01*
X144987473Y-99115002D02*
X144749378Y-99829288D01*
X145368426Y-99829288D01*
X145749378Y-100067383D02*
X145796997Y-100115002D01*
X145749378Y-100162621D01*
X145701759Y-100115002D01*
X145749378Y-100067383D01*
X145749378Y-100162621D01*
X146130330Y-99162621D02*
X146796997Y-99162621D01*
X146368425Y-100162621D01*
X147177949Y-100162621D02*
X147177949Y-99162621D01*
X147273187Y-99781669D02*
X147558902Y-100162621D01*
X147558902Y-99495954D02*
X147177949Y-99876907D01*
X149329235Y-94336621D02*
X149329235Y-95146145D01*
X149376854Y-95241383D01*
X149424473Y-95289002D01*
X149519711Y-95336621D01*
X149710188Y-95336621D01*
X149805426Y-95289002D01*
X149853045Y-95241383D01*
X149900664Y-95146145D01*
X149900664Y-94336621D01*
X150329235Y-94431859D02*
X150376854Y-94384240D01*
X150472092Y-94336621D01*
X150710188Y-94336621D01*
X150805426Y-94384240D01*
X150853045Y-94431859D01*
X150900664Y-94527097D01*
X150900664Y-94622335D01*
X150853045Y-94765192D01*
X150281616Y-95336621D01*
X150900664Y-95336621D01*
%LPC*%
D12*
X152544639Y-95639311D02*
X152401782Y-95496454D01*
X152544639Y-95353597D01*
X152687496Y-95496454D01*
X152544639Y-95639311D01*
X152544639Y-95353597D01*
X154068640Y-96175026D02*
X153997212Y-96103597D01*
X154068640Y-96032169D01*
X154140069Y-96103597D01*
X154068640Y-96175026D01*
X154068640Y-96032169D01*
D13*
X141181140Y-89804240D03*
X138681140Y-89804240D03*
D14*
X130787140Y-87284240D03*
X130787140Y-89784240D03*
D15*
X132725160Y-71643240D03*
X130627120Y-71643240D03*
D16*
X136248140Y-70547240D03*
X136248140Y-73247240D03*
D17*
X148995140Y-97424240D03*
X151695140Y-97424240D03*
X148741140Y-83200240D03*
X151441140Y-83200240D03*
X148741140Y-80406240D03*
X151441140Y-80406240D03*
X148995140Y-99710240D03*
X151695140Y-99710240D03*
D18*
X160251140Y-69484240D03*
D19*
X162791140Y-69484240D03*
X165331140Y-69484240D03*
X167871140Y-69484240D03*
X170411140Y-69484240D03*
D20*
X153858780Y-94966500D03*
X153858780Y-94316500D03*
X153858780Y-93666500D03*
X153858780Y-93016500D03*
X153858780Y-92366500D03*
X153858780Y-91716500D03*
X153858780Y-91066500D03*
X153858780Y-90416500D03*
X153858780Y-89766500D03*
X153858780Y-89116500D03*
X153858780Y-88466500D03*
X153858780Y-87816500D03*
X153858780Y-87166500D03*
X153858780Y-86516500D03*
X146658780Y-86516500D03*
X146658780Y-87166500D03*
X146658780Y-87816500D03*
X146658780Y-88466500D03*
X146658780Y-89116500D03*
X146658780Y-89766500D03*
X146658780Y-90416500D03*
X146658780Y-91066500D03*
X146658780Y-91716500D03*
X146658780Y-92366500D03*
X146658780Y-93016500D03*
X146658780Y-93666500D03*
X146658780Y-94316500D03*
X146658780Y-94966500D03*
M02*
