%TF.GenerationSoftware,KiCad,Pcbnew,4.0.1-stable*%
%TF.CreationDate,2016-04-11T19:15:44+01:00*%
%TF.ProjectId,clockface,636C6F636B666163652E6B696361645F,rev?*%
%TF.FileFunction,Soldermask,Bot*%
%FSLAX46Y46*%
G04 Gerber Fmt 4.6, Leading zero omitted, Abs format (unit mm)*
G04 Created by KiCad (PCBNEW 4.0.1-stable) date 11/04/2016 19:15:44*
%MOMM*%
G01*
G04 APERTURE LIST*
%ADD10C,0.100000*%
%ADD11R,1.900000X1.650000*%
%ADD12R,1.650000X1.900000*%
%ADD13R,1.598880X1.598880*%
%ADD14R,1.700000X1.900000*%
%ADD15R,1.900000X1.700000*%
%ADD16R,2.127200X4.464000*%
%ADD17O,2.127200X4.464000*%
%ADD18R,1.851600X0.551600*%
G04 APERTURE END LIST*
D10*
D11*
X156778640Y-92915740D03*
X159278640Y-92915740D03*
D12*
X167172640Y-90395740D03*
X167172640Y-92895740D03*
D13*
X165234620Y-74754740D03*
X167332660Y-74754740D03*
D14*
X161711640Y-73658740D03*
X161711640Y-76358740D03*
D15*
X148964640Y-100535740D03*
X146264640Y-100535740D03*
X149218640Y-86311740D03*
X146518640Y-86311740D03*
X149218640Y-83517740D03*
X146518640Y-83517740D03*
X148964640Y-102821740D03*
X146264640Y-102821740D03*
D16*
X137708640Y-72595740D03*
D17*
X135168640Y-72595740D03*
X132628640Y-72595740D03*
X130088640Y-72595740D03*
X127548640Y-72595740D03*
D18*
X144101000Y-98078000D03*
X144101000Y-97428000D03*
X144101000Y-96778000D03*
X144101000Y-96128000D03*
X144101000Y-95478000D03*
X144101000Y-94828000D03*
X144101000Y-94178000D03*
X144101000Y-93528000D03*
X144101000Y-92878000D03*
X144101000Y-92228000D03*
X144101000Y-91578000D03*
X144101000Y-90928000D03*
X144101000Y-90278000D03*
X144101000Y-89628000D03*
X151301000Y-89628000D03*
X151301000Y-90278000D03*
X151301000Y-90928000D03*
X151301000Y-91578000D03*
X151301000Y-92228000D03*
X151301000Y-92878000D03*
X151301000Y-93528000D03*
X151301000Y-94178000D03*
X151301000Y-94828000D03*
X151301000Y-95478000D03*
X151301000Y-96128000D03*
X151301000Y-96778000D03*
X151301000Y-97428000D03*
X151301000Y-98078000D03*
M02*
