G04 #@! TF.FileFunction,Copper,L2,Bot,Signal*
%FSLAX46Y46*%
G04 Gerber Fmt 4.6, Leading zero omitted, Abs format (unit mm)*
G04 Created by KiCad (PCBNEW 4.0.2-stable) date Monday, 09 May 2016 'amt' 09:58:14*
%MOMM*%
G01*
G04 APERTURE LIST*
%ADD10C,0.100000*%
%ADD11R,1.500000X1.250000*%
%ADD12R,1.250000X1.500000*%
%ADD13R,1.198880X1.198880*%
%ADD14R,1.300000X1.500000*%
%ADD15R,1.500000X1.300000*%
%ADD16R,1.727200X4.064000*%
%ADD17O,1.727200X4.064000*%
%ADD18R,1.750000X0.450000*%
%ADD19C,0.750000*%
%ADD20C,0.406000*%
%ADD21C,0.305000*%
%ADD22C,0.254000*%
G04 APERTURE END LIST*
D10*
D11*
X156778640Y-92915740D03*
X159278640Y-92915740D03*
D12*
X167172640Y-90395740D03*
X167172640Y-92895740D03*
D13*
X165234620Y-74754740D03*
X167332660Y-74754740D03*
D14*
X161711640Y-73658740D03*
X161711640Y-76358740D03*
D15*
X148964640Y-100535740D03*
X146264640Y-100535740D03*
X149218640Y-86311740D03*
X146518640Y-86311740D03*
X149218640Y-83517740D03*
X146518640Y-83517740D03*
X148964640Y-102821740D03*
X146264640Y-102821740D03*
D16*
X137708640Y-72595740D03*
D17*
X135168640Y-72595740D03*
X132628640Y-72595740D03*
X130088640Y-72595740D03*
X127548640Y-72595740D03*
D18*
X144101000Y-98078000D03*
X144101000Y-97428000D03*
X144101000Y-96778000D03*
X144101000Y-96128000D03*
X144101000Y-95478000D03*
X144101000Y-94828000D03*
X144101000Y-94178000D03*
X144101000Y-93528000D03*
X144101000Y-92878000D03*
X144101000Y-92228000D03*
X144101000Y-91578000D03*
X144101000Y-90928000D03*
X144101000Y-90278000D03*
X144101000Y-89628000D03*
X151301000Y-89628000D03*
X151301000Y-90278000D03*
X151301000Y-90928000D03*
X151301000Y-91578000D03*
X151301000Y-92228000D03*
X151301000Y-92878000D03*
X151301000Y-93528000D03*
X151301000Y-94178000D03*
X151301000Y-94828000D03*
X151301000Y-95478000D03*
X151301000Y-96128000D03*
X151301000Y-96778000D03*
X151301000Y-97428000D03*
X151301000Y-98078000D03*
D19*
X139867640Y-102059740D03*
X155869640Y-102059740D03*
X139994640Y-85803740D03*
X155742640Y-85803740D03*
X140807801Y-81002400D03*
X135092801Y-86565740D03*
X133111601Y-93905600D03*
X135168640Y-101170740D03*
X140566140Y-106707200D03*
X147932140Y-108713800D03*
X154981001Y-106783400D03*
X160695640Y-100662740D03*
X162601001Y-93931740D03*
X160505140Y-86412600D03*
X155057201Y-81129400D03*
X139233191Y-93931190D03*
X147932140Y-79199000D03*
D20*
X139867640Y-102059740D02*
X133390640Y-108536740D01*
X133390640Y-108536740D02*
X133390640Y-110632240D01*
X162092640Y-105615740D02*
X162092640Y-110632240D01*
X158536640Y-102059740D02*
X162092640Y-105615740D01*
X155869640Y-102059740D02*
X158536640Y-102059740D01*
X144101000Y-90278000D02*
X142436900Y-90278000D01*
X139994640Y-87835740D02*
X139994640Y-85803740D01*
X142436900Y-90278000D02*
X139994640Y-87835740D01*
X137962640Y-91899740D02*
X139359640Y-91899740D01*
X137962640Y-91899740D02*
X137454640Y-91391740D01*
X137454640Y-91391740D02*
X137454640Y-85549740D01*
X137454640Y-85549740D02*
X141772640Y-81231740D01*
X141772640Y-81231740D02*
X141772640Y-80215740D01*
X141772640Y-80215740D02*
X141264640Y-79707740D01*
X127548640Y-79707740D02*
X141264640Y-79707740D01*
X141328140Y-93868240D02*
X142280640Y-93868240D01*
X139359640Y-91899740D02*
X141328140Y-93868240D01*
X155742640Y-85803740D02*
X157012640Y-85803740D01*
X158282640Y-84533740D02*
X164252001Y-84533740D01*
X157012640Y-85803740D02*
X158282640Y-84533740D01*
X164252001Y-80469740D02*
X164252001Y-78564379D01*
X164252001Y-84533740D02*
X164252001Y-80469740D01*
X164252001Y-78564379D02*
X165394640Y-77421740D01*
X165394640Y-77421740D02*
X166410640Y-77421740D01*
X166410640Y-77421740D02*
X167332660Y-76499720D01*
X167332660Y-76499720D02*
X167332660Y-74754740D01*
X167172640Y-92895740D02*
X167172640Y-108156462D01*
X167172640Y-108156462D02*
X164633001Y-110696101D01*
X159278640Y-92915740D02*
X167152640Y-92915740D01*
X167152640Y-92915740D02*
X167172640Y-92895740D01*
X127548640Y-89359740D02*
X127548640Y-107012740D01*
X127548640Y-107012740D02*
X131168140Y-110632240D01*
X127548640Y-79707740D02*
X127548640Y-89359740D01*
X131168140Y-110632240D02*
X133390640Y-110632240D01*
X133390640Y-110632240D02*
X162092640Y-110632240D01*
X162092640Y-110632240D02*
X164569140Y-110632240D01*
X164569140Y-110632240D02*
X164633001Y-110696101D01*
X151301000Y-92228000D02*
X154271380Y-92228000D01*
X164252001Y-85930379D02*
X164252001Y-84533740D01*
X161584640Y-88597740D02*
X164252001Y-85930379D01*
X157901640Y-88597740D02*
X161584640Y-88597740D01*
X154271380Y-92228000D02*
X157901640Y-88597740D01*
X127548640Y-79707740D02*
X127548640Y-73611740D01*
X144101000Y-93528000D02*
X142430380Y-93528000D01*
X142280640Y-93677740D02*
X142280640Y-93868240D01*
X142430380Y-93528000D02*
X142280640Y-93677740D01*
X142399900Y-94178000D02*
X144101000Y-94178000D01*
X142280640Y-94058740D02*
X142399900Y-94178000D01*
X142280640Y-93868240D02*
X142280640Y-94058740D01*
D21*
X161711640Y-76358740D02*
X163028640Y-76358740D01*
X164632640Y-74754740D02*
X165234620Y-74754740D01*
X163028640Y-76358740D02*
X164632640Y-74754740D01*
X144101000Y-98078000D02*
X145537900Y-98078000D01*
X146391640Y-98931740D02*
X146391640Y-100789740D01*
X145537900Y-98078000D02*
X146391640Y-98931740D01*
X146518640Y-83517740D02*
X147614640Y-83517740D01*
X151301000Y-82378100D02*
X151301000Y-89628000D01*
X150662640Y-81739740D02*
X151301000Y-82378100D01*
X148249640Y-81739740D02*
X150662640Y-81739740D01*
X147868640Y-82120740D02*
X148249640Y-81739740D01*
X147868640Y-83263740D02*
X147868640Y-82120740D01*
X147614640Y-83517740D02*
X147868640Y-83263740D01*
X146518640Y-83517740D02*
X146518640Y-78136740D01*
X146518640Y-78136740D02*
X144152640Y-75770740D01*
X146518640Y-82200740D02*
X146518640Y-83517740D01*
X135168640Y-75135740D02*
X135168640Y-73611740D01*
X135803640Y-75770740D02*
X135168640Y-75135740D01*
X144152640Y-75770740D02*
X135803640Y-75770740D01*
X132628640Y-75643740D02*
X132628640Y-73611740D01*
X133390640Y-76405740D02*
X132628640Y-75643740D01*
X143804640Y-76405740D02*
X133390640Y-76405740D01*
X144820640Y-77421740D02*
X143804640Y-76405740D01*
X144820640Y-85930740D02*
X144820640Y-77421740D01*
X146518640Y-86311740D02*
X145201640Y-86311740D01*
X145201640Y-86311740D02*
X144820640Y-85930740D01*
X144101000Y-89628000D02*
X145822380Y-89628000D01*
X146518640Y-88931740D02*
X146518640Y-86311740D01*
X145822380Y-89628000D02*
X146518640Y-88931740D01*
X130088640Y-73611740D02*
X130088640Y-75516740D01*
X141704900Y-91578000D02*
X144101000Y-91578000D01*
X138597640Y-88470740D02*
X141704900Y-91578000D01*
X138597640Y-85549740D02*
X138597640Y-88470740D01*
X142661640Y-81485740D02*
X138597640Y-85549740D01*
X142661640Y-79453740D02*
X142661640Y-81485740D01*
X141772640Y-78564740D02*
X142661640Y-79453740D01*
X131231640Y-78564740D02*
X141772640Y-78564740D01*
X130088640Y-77421740D02*
X131231640Y-78564740D01*
X130088640Y-75516740D02*
X130088640Y-77421740D01*
X130088640Y-75516740D02*
X130088640Y-75516740D01*
X144101000Y-91578000D02*
X146403900Y-91578000D01*
X147614640Y-101979740D02*
X146391640Y-103202740D01*
X147614640Y-92788740D02*
X147614640Y-101979740D01*
X146403900Y-91578000D02*
X147614640Y-92788740D01*
X138292000Y-96128000D02*
X136652000Y-94488000D01*
X136652000Y-94488000D02*
X136652000Y-85158201D01*
X136652000Y-85158201D02*
X140807801Y-81002400D01*
X144101000Y-96128000D02*
X138292000Y-96128000D01*
X144101000Y-96778000D02*
X137418000Y-96778000D01*
X135092801Y-94452801D02*
X135092801Y-86565740D01*
X135092801Y-86565740D02*
X135092801Y-86565000D01*
X137418000Y-96778000D02*
X135092801Y-94452801D01*
X136634001Y-97428000D02*
X133111601Y-93905600D01*
X144101000Y-97428000D02*
X136634001Y-97428000D01*
X135168640Y-101170740D02*
X135676640Y-100662740D01*
X149975380Y-96778000D02*
X149773640Y-96979740D01*
X149773640Y-96979740D02*
X149773640Y-98757740D01*
X149773640Y-98757740D02*
X150916640Y-99900740D01*
X150916640Y-99900740D02*
X150916640Y-104218740D01*
X150916640Y-104218740D02*
X150408640Y-104726740D01*
X151301000Y-96778000D02*
X149975380Y-96778000D01*
X144947640Y-104726740D02*
X150408640Y-104726740D01*
X140883640Y-100662740D02*
X144947640Y-104726740D01*
X135676640Y-100662740D02*
X140883640Y-100662740D01*
X151301000Y-96128000D02*
X152897000Y-96128000D01*
X151356800Y-106707200D02*
X140566140Y-106707200D01*
X140566140Y-106707200D02*
X140528401Y-106707200D01*
X153035000Y-105029000D02*
X151356800Y-106707200D01*
X153035000Y-96266000D02*
X153035000Y-105029000D01*
X152897000Y-96128000D02*
X153035000Y-96266000D01*
X151301000Y-95478000D02*
X153263000Y-95478000D01*
X150874200Y-108713800D02*
X147932140Y-108713800D01*
X147932140Y-108713800D02*
X147869001Y-108713800D01*
X153797000Y-105791000D02*
X150874200Y-108713800D01*
X153797000Y-96012000D02*
X153797000Y-105791000D01*
X153263000Y-95478000D02*
X153797000Y-96012000D01*
X154559000Y-105808401D02*
X154559000Y-106361399D01*
X153629000Y-94828000D02*
X151301000Y-94828000D01*
X154559000Y-95758000D02*
X154559000Y-105808401D01*
X153629000Y-94828000D02*
X154559000Y-95758000D01*
X154559000Y-106361399D02*
X154981001Y-106783400D01*
X151301000Y-94178000D02*
X154210900Y-94178000D01*
X154210900Y-94178000D02*
X160695640Y-100662740D01*
X151301000Y-93528000D02*
X154830900Y-93528000D01*
X154830900Y-93528000D02*
X158330900Y-97028000D01*
X158330900Y-97028000D02*
X160528000Y-97028000D01*
X160528000Y-97028000D02*
X162601001Y-94954999D01*
X162601001Y-94954999D02*
X162601001Y-93931740D01*
X162601001Y-93931740D02*
X162601001Y-93905600D01*
X151301000Y-91578000D02*
X153532000Y-91578000D01*
X158697400Y-86412600D02*
X160505140Y-86412600D01*
X160505140Y-86412600D02*
X160543601Y-86412600D01*
X155194000Y-89916000D02*
X158697400Y-86412600D01*
X155194000Y-89916000D02*
X155194000Y-89916000D01*
X153532000Y-91578000D02*
X155194000Y-89916000D01*
X153285380Y-90928000D02*
X154091640Y-90121740D01*
X154091640Y-90121740D02*
X154091640Y-82094961D01*
X154091640Y-82094961D02*
X155057201Y-81129400D01*
X151301000Y-90928000D02*
X153285380Y-90928000D01*
X144101000Y-95478000D02*
X140780001Y-95478000D01*
X140780001Y-95478000D02*
X139233191Y-93931190D01*
X139233191Y-93931190D02*
X139233001Y-93931000D01*
X151301000Y-90278000D02*
X152800000Y-90278000D01*
X150827000Y-79199000D02*
X147932140Y-79199000D01*
X147932140Y-79199000D02*
X147869001Y-79199000D01*
X153035000Y-81407000D02*
X150827000Y-79199000D01*
X153035000Y-90043000D02*
X153035000Y-81407000D01*
X152800000Y-90278000D02*
X153035000Y-90043000D01*
D20*
X137708640Y-72595740D02*
X158790640Y-72595740D01*
X159853640Y-73658740D02*
X161711640Y-73658740D01*
X158790640Y-72595740D02*
X159853640Y-73658740D01*
X151301000Y-92878000D02*
X149129380Y-92878000D01*
X149129380Y-92878000D02*
X149091640Y-92915740D01*
X167172640Y-90395740D02*
X168879840Y-90395740D01*
X168879840Y-90395740D02*
X170220640Y-89054940D01*
X170220640Y-89054940D02*
X170220640Y-87327740D01*
X170220640Y-84025740D02*
X170220640Y-72849740D01*
X170220640Y-72849740D02*
X168696640Y-71325740D01*
X168696640Y-71325740D02*
X162600640Y-71325740D01*
X162600640Y-71325740D02*
X161711640Y-72214740D01*
X161711640Y-72214740D02*
X161711640Y-73658740D01*
X170220640Y-87327740D02*
X170220640Y-84025740D01*
X156778640Y-92915740D02*
X156778640Y-91574940D01*
X156778640Y-91574940D02*
X157957840Y-90395740D01*
X157957840Y-90395740D02*
X167172640Y-90395740D01*
X161484640Y-73885740D02*
X161711640Y-73658740D01*
X149091640Y-100789740D02*
X149091640Y-103202740D01*
X149218640Y-86311740D02*
X149218640Y-83517740D01*
D21*
X151263260Y-92915740D02*
X151301000Y-92878000D01*
D20*
X149091640Y-100789740D02*
X149091640Y-92915740D01*
X149091640Y-92915740D02*
X149091640Y-86438740D01*
X149091640Y-86438740D02*
X149218640Y-86311740D01*
X151301000Y-92878000D02*
X156740900Y-92878000D01*
X156740900Y-92878000D02*
X156778640Y-92915740D01*
D22*
G36*
X172107000Y-117893000D02*
X123527000Y-117893000D01*
X123527000Y-72722740D01*
X126050040Y-72722740D01*
X126050040Y-73891140D01*
X126212715Y-74454962D01*
X126578772Y-74913613D01*
X127092483Y-75197267D01*
X127189614Y-75219098D01*
X127421640Y-75097957D01*
X127421640Y-72722740D01*
X126050040Y-72722740D01*
X123527000Y-72722740D01*
X123527000Y-71300340D01*
X126050040Y-71300340D01*
X126050040Y-72468740D01*
X127421640Y-72468740D01*
X127421640Y-70093523D01*
X127675640Y-70093523D01*
X127675640Y-72468740D01*
X127695640Y-72468740D01*
X127695640Y-72722740D01*
X127675640Y-72722740D01*
X127675640Y-75097957D01*
X127907666Y-75219098D01*
X128004797Y-75197267D01*
X128518508Y-74913613D01*
X128810014Y-74548370D01*
X129028970Y-74876060D01*
X129301140Y-75057918D01*
X129301140Y-77421735D01*
X129301139Y-77421740D01*
X129361085Y-77723103D01*
X129531793Y-77978587D01*
X130674793Y-79121587D01*
X130930277Y-79292295D01*
X131231640Y-79352241D01*
X131231645Y-79352240D01*
X141446446Y-79352240D01*
X141874140Y-79779933D01*
X141874140Y-81159546D01*
X141809191Y-81224495D01*
X141817625Y-81204183D01*
X141817976Y-80802380D01*
X141664537Y-80431028D01*
X141380667Y-80146663D01*
X141009584Y-79992576D01*
X140607781Y-79992225D01*
X140236429Y-80145664D01*
X139952064Y-80429534D01*
X139797977Y-80800617D01*
X139797891Y-80898616D01*
X136095153Y-84601354D01*
X135924445Y-84856838D01*
X135864499Y-85158201D01*
X135864500Y-85158206D01*
X135864500Y-85909183D01*
X135665667Y-85710003D01*
X135294584Y-85555916D01*
X134892781Y-85555565D01*
X134521429Y-85709004D01*
X134237064Y-85992874D01*
X134082977Y-86363957D01*
X134082626Y-86765760D01*
X134236065Y-87137112D01*
X134305301Y-87206469D01*
X134305301Y-93985606D01*
X134121692Y-93801997D01*
X134121776Y-93705580D01*
X133968337Y-93334228D01*
X133684467Y-93049863D01*
X133313384Y-92895776D01*
X132911581Y-92895425D01*
X132540229Y-93048864D01*
X132255864Y-93332734D01*
X132101777Y-93703817D01*
X132101426Y-94105620D01*
X132254865Y-94476972D01*
X132538735Y-94761337D01*
X132909818Y-94915424D01*
X133007817Y-94915510D01*
X136077152Y-97984844D01*
X136077154Y-97984847D01*
X136256140Y-98104441D01*
X136332638Y-98155555D01*
X136634001Y-98215501D01*
X136634006Y-98215500D01*
X142578560Y-98215500D01*
X142578560Y-98303000D01*
X142622838Y-98538317D01*
X142761910Y-98754441D01*
X142974110Y-98899431D01*
X143226000Y-98950440D01*
X144976000Y-98950440D01*
X145211317Y-98906162D01*
X145236295Y-98890089D01*
X145584507Y-99238300D01*
X145514640Y-99238300D01*
X145279323Y-99282578D01*
X145063199Y-99421650D01*
X144918209Y-99633850D01*
X144867200Y-99885740D01*
X144867200Y-101185740D01*
X144911478Y-101421057D01*
X145050550Y-101637181D01*
X145109799Y-101677664D01*
X145063199Y-101707650D01*
X144918209Y-101919850D01*
X144867200Y-102171740D01*
X144867200Y-103471740D01*
X144881307Y-103546713D01*
X141440487Y-100105893D01*
X141185003Y-99935185D01*
X140883640Y-99875239D01*
X140883635Y-99875240D01*
X135676640Y-99875240D01*
X135375276Y-99935185D01*
X135272944Y-100003561D01*
X135119793Y-100105893D01*
X135119791Y-100105896D01*
X135065038Y-100160649D01*
X134968620Y-100160565D01*
X134597268Y-100314004D01*
X134312903Y-100597874D01*
X134158816Y-100968957D01*
X134158465Y-101370760D01*
X134311904Y-101742112D01*
X134595774Y-102026477D01*
X134966857Y-102180564D01*
X135368660Y-102180915D01*
X135740012Y-102027476D01*
X136024377Y-101743606D01*
X136146193Y-101450240D01*
X140557446Y-101450240D01*
X144390793Y-105283587D01*
X144646277Y-105454295D01*
X144947640Y-105514241D01*
X144947645Y-105514240D01*
X150408635Y-105514240D01*
X150408640Y-105514241D01*
X150710003Y-105454295D01*
X150965487Y-105283587D01*
X151473484Y-104775589D01*
X151473487Y-104775587D01*
X151575819Y-104622436D01*
X151644195Y-104520104D01*
X151704140Y-104218740D01*
X151704140Y-99900745D01*
X151704141Y-99900740D01*
X151644195Y-99599377D01*
X151473487Y-99343893D01*
X151080034Y-98950440D01*
X152176000Y-98950440D01*
X152247500Y-98936986D01*
X152247500Y-104702807D01*
X151030606Y-105919700D01*
X141207124Y-105919700D01*
X141139006Y-105851463D01*
X140767923Y-105697376D01*
X140366120Y-105697025D01*
X139994768Y-105850464D01*
X139710403Y-106134334D01*
X139556316Y-106505417D01*
X139555965Y-106907220D01*
X139709404Y-107278572D01*
X139993274Y-107562937D01*
X140364357Y-107717024D01*
X140766160Y-107717375D01*
X141137512Y-107563936D01*
X141206869Y-107494700D01*
X150979606Y-107494700D01*
X150548006Y-107926300D01*
X148573124Y-107926300D01*
X148505006Y-107858063D01*
X148133923Y-107703976D01*
X147732120Y-107703625D01*
X147360768Y-107857064D01*
X147076403Y-108140934D01*
X146922316Y-108512017D01*
X146921965Y-108913820D01*
X147075404Y-109285172D01*
X147359274Y-109569537D01*
X147730357Y-109723624D01*
X148132160Y-109723975D01*
X148503512Y-109570536D01*
X148572869Y-109501300D01*
X150874195Y-109501300D01*
X150874200Y-109501301D01*
X151175563Y-109441355D01*
X151431047Y-109270647D01*
X153914552Y-106787141D01*
X153970924Y-106871508D01*
X153970826Y-106983420D01*
X154124265Y-107354772D01*
X154408135Y-107639137D01*
X154779218Y-107793224D01*
X155181021Y-107793575D01*
X155552373Y-107640136D01*
X155836738Y-107356266D01*
X155990825Y-106985183D01*
X155991176Y-106583380D01*
X155837737Y-106212028D01*
X155553867Y-105927663D01*
X155346500Y-105841557D01*
X155346500Y-96427294D01*
X159685549Y-100766342D01*
X159685465Y-100862760D01*
X159838904Y-101234112D01*
X160122774Y-101518477D01*
X160493857Y-101672564D01*
X160895660Y-101672915D01*
X161267012Y-101519476D01*
X161551377Y-101235606D01*
X161705464Y-100864523D01*
X161705815Y-100462720D01*
X161552376Y-100091368D01*
X161268506Y-99807003D01*
X160897423Y-99652916D01*
X160799423Y-99652830D01*
X158962093Y-97815500D01*
X160527995Y-97815500D01*
X160528000Y-97815501D01*
X160829363Y-97755555D01*
X161084847Y-97584847D01*
X163157845Y-95511848D01*
X163157848Y-95511846D01*
X163328556Y-95256362D01*
X163388501Y-94954999D01*
X163388501Y-94572724D01*
X163456738Y-94504606D01*
X163610825Y-94133523D01*
X163611176Y-93731720D01*
X163457737Y-93360368D01*
X163279171Y-93181490D01*
X165912640Y-93181490D01*
X165912640Y-93772049D01*
X166009313Y-94005438D01*
X166187941Y-94184067D01*
X166421330Y-94280740D01*
X166886890Y-94280740D01*
X167045640Y-94121990D01*
X167045640Y-93022740D01*
X167299640Y-93022740D01*
X167299640Y-94121990D01*
X167458390Y-94280740D01*
X167923950Y-94280740D01*
X168157339Y-94184067D01*
X168335967Y-94005438D01*
X168432640Y-93772049D01*
X168432640Y-93181490D01*
X168273890Y-93022740D01*
X167299640Y-93022740D01*
X167045640Y-93022740D01*
X166071390Y-93022740D01*
X165912640Y-93181490D01*
X163279171Y-93181490D01*
X163173867Y-93076003D01*
X162802784Y-92921916D01*
X162400981Y-92921565D01*
X162029629Y-93075004D01*
X161745264Y-93358874D01*
X161591177Y-93729957D01*
X161590826Y-94131760D01*
X161744265Y-94503112D01*
X161813501Y-94572469D01*
X161813501Y-94628806D01*
X160201806Y-96240500D01*
X158657093Y-96240500D01*
X156604774Y-94188180D01*
X157528640Y-94188180D01*
X157763957Y-94143902D01*
X157980081Y-94004830D01*
X158026609Y-93936734D01*
X158168942Y-94079067D01*
X158402331Y-94175740D01*
X158992890Y-94175740D01*
X159151640Y-94016990D01*
X159151640Y-93042740D01*
X159405640Y-93042740D01*
X159405640Y-94016990D01*
X159564390Y-94175740D01*
X160154949Y-94175740D01*
X160388338Y-94079067D01*
X160566967Y-93900439D01*
X160663640Y-93667050D01*
X160663640Y-93201490D01*
X160504890Y-93042740D01*
X159405640Y-93042740D01*
X159151640Y-93042740D01*
X159131640Y-93042740D01*
X159131640Y-92788740D01*
X159151640Y-92788740D01*
X159151640Y-91814490D01*
X159405640Y-91814490D01*
X159405640Y-92788740D01*
X160504890Y-92788740D01*
X160663640Y-92629990D01*
X160663640Y-92164430D01*
X160566967Y-91931041D01*
X160388338Y-91752413D01*
X160154949Y-91655740D01*
X159564390Y-91655740D01*
X159405640Y-91814490D01*
X159151640Y-91814490D01*
X158992890Y-91655740D01*
X158402331Y-91655740D01*
X158168942Y-91752413D01*
X158027704Y-91893650D01*
X157992730Y-91839299D01*
X157818463Y-91720227D01*
X158304951Y-91233740D01*
X165916758Y-91233740D01*
X165944478Y-91381057D01*
X166083550Y-91597181D01*
X166151646Y-91643709D01*
X166009313Y-91786042D01*
X165912640Y-92019431D01*
X165912640Y-92609990D01*
X166071390Y-92768740D01*
X167045640Y-92768740D01*
X167045640Y-92748740D01*
X167299640Y-92748740D01*
X167299640Y-92768740D01*
X168273890Y-92768740D01*
X168432640Y-92609990D01*
X168432640Y-92019431D01*
X168335967Y-91786042D01*
X168194730Y-91644804D01*
X168249081Y-91609830D01*
X168394071Y-91397630D01*
X168427260Y-91233740D01*
X168879840Y-91233740D01*
X169200529Y-91169951D01*
X169472395Y-90988295D01*
X170813196Y-89647495D01*
X170994852Y-89375628D01*
X171058640Y-89054940D01*
X171058640Y-72849740D01*
X170994851Y-72529051D01*
X170850028Y-72312309D01*
X170813195Y-72257184D01*
X169289195Y-70733185D01*
X169289194Y-70733184D01*
X169017329Y-70551529D01*
X168696640Y-70487740D01*
X162600640Y-70487740D01*
X162279951Y-70551529D01*
X162171057Y-70624290D01*
X162008085Y-70733184D01*
X161119085Y-71622185D01*
X160937429Y-71894051D01*
X160873640Y-72214740D01*
X160873640Y-72296675D01*
X160826323Y-72305578D01*
X160610199Y-72444650D01*
X160465209Y-72656850D01*
X160432020Y-72820740D01*
X160200750Y-72820740D01*
X159383195Y-72003185D01*
X159111329Y-71821529D01*
X158790640Y-71757740D01*
X139219680Y-71757740D01*
X139219680Y-70563740D01*
X139175402Y-70328423D01*
X139036330Y-70112299D01*
X138824130Y-69967309D01*
X138572240Y-69916300D01*
X136845040Y-69916300D01*
X136609723Y-69960578D01*
X136393599Y-70099650D01*
X136248609Y-70311850D01*
X136243333Y-70337904D01*
X136228310Y-70315420D01*
X135742129Y-69990564D01*
X135168640Y-69876490D01*
X134595151Y-69990564D01*
X134108970Y-70315420D01*
X133898640Y-70630201D01*
X133688310Y-70315420D01*
X133202129Y-69990564D01*
X132628640Y-69876490D01*
X132055151Y-69990564D01*
X131568970Y-70315420D01*
X131358640Y-70630201D01*
X131148310Y-70315420D01*
X130662129Y-69990564D01*
X130088640Y-69876490D01*
X129515151Y-69990564D01*
X129028970Y-70315420D01*
X128810014Y-70643110D01*
X128518508Y-70277867D01*
X128004797Y-69994213D01*
X127907666Y-69972382D01*
X127675640Y-70093523D01*
X127421640Y-70093523D01*
X127189614Y-69972382D01*
X127092483Y-69994213D01*
X126578772Y-70277867D01*
X126212715Y-70736518D01*
X126050040Y-71300340D01*
X123527000Y-71300340D01*
X123527000Y-69313000D01*
X172107000Y-69313000D01*
X172107000Y-117893000D01*
X172107000Y-117893000D01*
G37*
X172107000Y-117893000D02*
X123527000Y-117893000D01*
X123527000Y-72722740D01*
X126050040Y-72722740D01*
X126050040Y-73891140D01*
X126212715Y-74454962D01*
X126578772Y-74913613D01*
X127092483Y-75197267D01*
X127189614Y-75219098D01*
X127421640Y-75097957D01*
X127421640Y-72722740D01*
X126050040Y-72722740D01*
X123527000Y-72722740D01*
X123527000Y-71300340D01*
X126050040Y-71300340D01*
X126050040Y-72468740D01*
X127421640Y-72468740D01*
X127421640Y-70093523D01*
X127675640Y-70093523D01*
X127675640Y-72468740D01*
X127695640Y-72468740D01*
X127695640Y-72722740D01*
X127675640Y-72722740D01*
X127675640Y-75097957D01*
X127907666Y-75219098D01*
X128004797Y-75197267D01*
X128518508Y-74913613D01*
X128810014Y-74548370D01*
X129028970Y-74876060D01*
X129301140Y-75057918D01*
X129301140Y-77421735D01*
X129301139Y-77421740D01*
X129361085Y-77723103D01*
X129531793Y-77978587D01*
X130674793Y-79121587D01*
X130930277Y-79292295D01*
X131231640Y-79352241D01*
X131231645Y-79352240D01*
X141446446Y-79352240D01*
X141874140Y-79779933D01*
X141874140Y-81159546D01*
X141809191Y-81224495D01*
X141817625Y-81204183D01*
X141817976Y-80802380D01*
X141664537Y-80431028D01*
X141380667Y-80146663D01*
X141009584Y-79992576D01*
X140607781Y-79992225D01*
X140236429Y-80145664D01*
X139952064Y-80429534D01*
X139797977Y-80800617D01*
X139797891Y-80898616D01*
X136095153Y-84601354D01*
X135924445Y-84856838D01*
X135864499Y-85158201D01*
X135864500Y-85158206D01*
X135864500Y-85909183D01*
X135665667Y-85710003D01*
X135294584Y-85555916D01*
X134892781Y-85555565D01*
X134521429Y-85709004D01*
X134237064Y-85992874D01*
X134082977Y-86363957D01*
X134082626Y-86765760D01*
X134236065Y-87137112D01*
X134305301Y-87206469D01*
X134305301Y-93985606D01*
X134121692Y-93801997D01*
X134121776Y-93705580D01*
X133968337Y-93334228D01*
X133684467Y-93049863D01*
X133313384Y-92895776D01*
X132911581Y-92895425D01*
X132540229Y-93048864D01*
X132255864Y-93332734D01*
X132101777Y-93703817D01*
X132101426Y-94105620D01*
X132254865Y-94476972D01*
X132538735Y-94761337D01*
X132909818Y-94915424D01*
X133007817Y-94915510D01*
X136077152Y-97984844D01*
X136077154Y-97984847D01*
X136256140Y-98104441D01*
X136332638Y-98155555D01*
X136634001Y-98215501D01*
X136634006Y-98215500D01*
X142578560Y-98215500D01*
X142578560Y-98303000D01*
X142622838Y-98538317D01*
X142761910Y-98754441D01*
X142974110Y-98899431D01*
X143226000Y-98950440D01*
X144976000Y-98950440D01*
X145211317Y-98906162D01*
X145236295Y-98890089D01*
X145584507Y-99238300D01*
X145514640Y-99238300D01*
X145279323Y-99282578D01*
X145063199Y-99421650D01*
X144918209Y-99633850D01*
X144867200Y-99885740D01*
X144867200Y-101185740D01*
X144911478Y-101421057D01*
X145050550Y-101637181D01*
X145109799Y-101677664D01*
X145063199Y-101707650D01*
X144918209Y-101919850D01*
X144867200Y-102171740D01*
X144867200Y-103471740D01*
X144881307Y-103546713D01*
X141440487Y-100105893D01*
X141185003Y-99935185D01*
X140883640Y-99875239D01*
X140883635Y-99875240D01*
X135676640Y-99875240D01*
X135375276Y-99935185D01*
X135272944Y-100003561D01*
X135119793Y-100105893D01*
X135119791Y-100105896D01*
X135065038Y-100160649D01*
X134968620Y-100160565D01*
X134597268Y-100314004D01*
X134312903Y-100597874D01*
X134158816Y-100968957D01*
X134158465Y-101370760D01*
X134311904Y-101742112D01*
X134595774Y-102026477D01*
X134966857Y-102180564D01*
X135368660Y-102180915D01*
X135740012Y-102027476D01*
X136024377Y-101743606D01*
X136146193Y-101450240D01*
X140557446Y-101450240D01*
X144390793Y-105283587D01*
X144646277Y-105454295D01*
X144947640Y-105514241D01*
X144947645Y-105514240D01*
X150408635Y-105514240D01*
X150408640Y-105514241D01*
X150710003Y-105454295D01*
X150965487Y-105283587D01*
X151473484Y-104775589D01*
X151473487Y-104775587D01*
X151575819Y-104622436D01*
X151644195Y-104520104D01*
X151704140Y-104218740D01*
X151704140Y-99900745D01*
X151704141Y-99900740D01*
X151644195Y-99599377D01*
X151473487Y-99343893D01*
X151080034Y-98950440D01*
X152176000Y-98950440D01*
X152247500Y-98936986D01*
X152247500Y-104702807D01*
X151030606Y-105919700D01*
X141207124Y-105919700D01*
X141139006Y-105851463D01*
X140767923Y-105697376D01*
X140366120Y-105697025D01*
X139994768Y-105850464D01*
X139710403Y-106134334D01*
X139556316Y-106505417D01*
X139555965Y-106907220D01*
X139709404Y-107278572D01*
X139993274Y-107562937D01*
X140364357Y-107717024D01*
X140766160Y-107717375D01*
X141137512Y-107563936D01*
X141206869Y-107494700D01*
X150979606Y-107494700D01*
X150548006Y-107926300D01*
X148573124Y-107926300D01*
X148505006Y-107858063D01*
X148133923Y-107703976D01*
X147732120Y-107703625D01*
X147360768Y-107857064D01*
X147076403Y-108140934D01*
X146922316Y-108512017D01*
X146921965Y-108913820D01*
X147075404Y-109285172D01*
X147359274Y-109569537D01*
X147730357Y-109723624D01*
X148132160Y-109723975D01*
X148503512Y-109570536D01*
X148572869Y-109501300D01*
X150874195Y-109501300D01*
X150874200Y-109501301D01*
X151175563Y-109441355D01*
X151431047Y-109270647D01*
X153914552Y-106787141D01*
X153970924Y-106871508D01*
X153970826Y-106983420D01*
X154124265Y-107354772D01*
X154408135Y-107639137D01*
X154779218Y-107793224D01*
X155181021Y-107793575D01*
X155552373Y-107640136D01*
X155836738Y-107356266D01*
X155990825Y-106985183D01*
X155991176Y-106583380D01*
X155837737Y-106212028D01*
X155553867Y-105927663D01*
X155346500Y-105841557D01*
X155346500Y-96427294D01*
X159685549Y-100766342D01*
X159685465Y-100862760D01*
X159838904Y-101234112D01*
X160122774Y-101518477D01*
X160493857Y-101672564D01*
X160895660Y-101672915D01*
X161267012Y-101519476D01*
X161551377Y-101235606D01*
X161705464Y-100864523D01*
X161705815Y-100462720D01*
X161552376Y-100091368D01*
X161268506Y-99807003D01*
X160897423Y-99652916D01*
X160799423Y-99652830D01*
X158962093Y-97815500D01*
X160527995Y-97815500D01*
X160528000Y-97815501D01*
X160829363Y-97755555D01*
X161084847Y-97584847D01*
X163157845Y-95511848D01*
X163157848Y-95511846D01*
X163328556Y-95256362D01*
X163388501Y-94954999D01*
X163388501Y-94572724D01*
X163456738Y-94504606D01*
X163610825Y-94133523D01*
X163611176Y-93731720D01*
X163457737Y-93360368D01*
X163279171Y-93181490D01*
X165912640Y-93181490D01*
X165912640Y-93772049D01*
X166009313Y-94005438D01*
X166187941Y-94184067D01*
X166421330Y-94280740D01*
X166886890Y-94280740D01*
X167045640Y-94121990D01*
X167045640Y-93022740D01*
X167299640Y-93022740D01*
X167299640Y-94121990D01*
X167458390Y-94280740D01*
X167923950Y-94280740D01*
X168157339Y-94184067D01*
X168335967Y-94005438D01*
X168432640Y-93772049D01*
X168432640Y-93181490D01*
X168273890Y-93022740D01*
X167299640Y-93022740D01*
X167045640Y-93022740D01*
X166071390Y-93022740D01*
X165912640Y-93181490D01*
X163279171Y-93181490D01*
X163173867Y-93076003D01*
X162802784Y-92921916D01*
X162400981Y-92921565D01*
X162029629Y-93075004D01*
X161745264Y-93358874D01*
X161591177Y-93729957D01*
X161590826Y-94131760D01*
X161744265Y-94503112D01*
X161813501Y-94572469D01*
X161813501Y-94628806D01*
X160201806Y-96240500D01*
X158657093Y-96240500D01*
X156604774Y-94188180D01*
X157528640Y-94188180D01*
X157763957Y-94143902D01*
X157980081Y-94004830D01*
X158026609Y-93936734D01*
X158168942Y-94079067D01*
X158402331Y-94175740D01*
X158992890Y-94175740D01*
X159151640Y-94016990D01*
X159151640Y-93042740D01*
X159405640Y-93042740D01*
X159405640Y-94016990D01*
X159564390Y-94175740D01*
X160154949Y-94175740D01*
X160388338Y-94079067D01*
X160566967Y-93900439D01*
X160663640Y-93667050D01*
X160663640Y-93201490D01*
X160504890Y-93042740D01*
X159405640Y-93042740D01*
X159151640Y-93042740D01*
X159131640Y-93042740D01*
X159131640Y-92788740D01*
X159151640Y-92788740D01*
X159151640Y-91814490D01*
X159405640Y-91814490D01*
X159405640Y-92788740D01*
X160504890Y-92788740D01*
X160663640Y-92629990D01*
X160663640Y-92164430D01*
X160566967Y-91931041D01*
X160388338Y-91752413D01*
X160154949Y-91655740D01*
X159564390Y-91655740D01*
X159405640Y-91814490D01*
X159151640Y-91814490D01*
X158992890Y-91655740D01*
X158402331Y-91655740D01*
X158168942Y-91752413D01*
X158027704Y-91893650D01*
X157992730Y-91839299D01*
X157818463Y-91720227D01*
X158304951Y-91233740D01*
X165916758Y-91233740D01*
X165944478Y-91381057D01*
X166083550Y-91597181D01*
X166151646Y-91643709D01*
X166009313Y-91786042D01*
X165912640Y-92019431D01*
X165912640Y-92609990D01*
X166071390Y-92768740D01*
X167045640Y-92768740D01*
X167045640Y-92748740D01*
X167299640Y-92748740D01*
X167299640Y-92768740D01*
X168273890Y-92768740D01*
X168432640Y-92609990D01*
X168432640Y-92019431D01*
X168335967Y-91786042D01*
X168194730Y-91644804D01*
X168249081Y-91609830D01*
X168394071Y-91397630D01*
X168427260Y-91233740D01*
X168879840Y-91233740D01*
X169200529Y-91169951D01*
X169472395Y-90988295D01*
X170813196Y-89647495D01*
X170994852Y-89375628D01*
X171058640Y-89054940D01*
X171058640Y-72849740D01*
X170994851Y-72529051D01*
X170850028Y-72312309D01*
X170813195Y-72257184D01*
X169289195Y-70733185D01*
X169289194Y-70733184D01*
X169017329Y-70551529D01*
X168696640Y-70487740D01*
X162600640Y-70487740D01*
X162279951Y-70551529D01*
X162171057Y-70624290D01*
X162008085Y-70733184D01*
X161119085Y-71622185D01*
X160937429Y-71894051D01*
X160873640Y-72214740D01*
X160873640Y-72296675D01*
X160826323Y-72305578D01*
X160610199Y-72444650D01*
X160465209Y-72656850D01*
X160432020Y-72820740D01*
X160200750Y-72820740D01*
X159383195Y-72003185D01*
X159111329Y-71821529D01*
X158790640Y-71757740D01*
X139219680Y-71757740D01*
X139219680Y-70563740D01*
X139175402Y-70328423D01*
X139036330Y-70112299D01*
X138824130Y-69967309D01*
X138572240Y-69916300D01*
X136845040Y-69916300D01*
X136609723Y-69960578D01*
X136393599Y-70099650D01*
X136248609Y-70311850D01*
X136243333Y-70337904D01*
X136228310Y-70315420D01*
X135742129Y-69990564D01*
X135168640Y-69876490D01*
X134595151Y-69990564D01*
X134108970Y-70315420D01*
X133898640Y-70630201D01*
X133688310Y-70315420D01*
X133202129Y-69990564D01*
X132628640Y-69876490D01*
X132055151Y-69990564D01*
X131568970Y-70315420D01*
X131358640Y-70630201D01*
X131148310Y-70315420D01*
X130662129Y-69990564D01*
X130088640Y-69876490D01*
X129515151Y-69990564D01*
X129028970Y-70315420D01*
X128810014Y-70643110D01*
X128518508Y-70277867D01*
X128004797Y-69994213D01*
X127907666Y-69972382D01*
X127675640Y-70093523D01*
X127421640Y-70093523D01*
X127189614Y-69972382D01*
X127092483Y-69994213D01*
X126578772Y-70277867D01*
X126212715Y-70736518D01*
X126050040Y-71300340D01*
X123527000Y-71300340D01*
X123527000Y-69313000D01*
X172107000Y-69313000D01*
X172107000Y-117893000D01*
G36*
X138040793Y-84992893D02*
X137870085Y-85248377D01*
X137810139Y-85549740D01*
X137810140Y-85549745D01*
X137810140Y-88470735D01*
X137810139Y-88470740D01*
X137870085Y-88772103D01*
X138040793Y-89027587D01*
X141148051Y-92134844D01*
X141148053Y-92134847D01*
X141345970Y-92267090D01*
X141403537Y-92305555D01*
X141704900Y-92365500D01*
X142578560Y-92365500D01*
X142578560Y-92453000D01*
X142598067Y-92556671D01*
X142578560Y-92653000D01*
X142578560Y-93103000D01*
X142591980Y-93174323D01*
X142591000Y-93176690D01*
X142591000Y-93256750D01*
X142611312Y-93277062D01*
X142622838Y-93338317D01*
X142748059Y-93532916D01*
X142687673Y-93593301D01*
X142610403Y-93779847D01*
X142591000Y-93799250D01*
X142591000Y-93906750D01*
X142610403Y-93926153D01*
X142687673Y-94112699D01*
X142749930Y-94174956D01*
X142629569Y-94351110D01*
X142614442Y-94425808D01*
X142591000Y-94449250D01*
X142591000Y-94529310D01*
X142592667Y-94533335D01*
X142578560Y-94603000D01*
X142578560Y-94690500D01*
X141106194Y-94690500D01*
X140243282Y-93827587D01*
X140243366Y-93731170D01*
X140089927Y-93359818D01*
X139806057Y-93075453D01*
X139434974Y-92921366D01*
X139033171Y-92921015D01*
X138661819Y-93074454D01*
X138377454Y-93358324D01*
X138223367Y-93729407D01*
X138223016Y-94131210D01*
X138376455Y-94502562D01*
X138660325Y-94786927D01*
X139031408Y-94941014D01*
X139129407Y-94941100D01*
X139528808Y-95340500D01*
X138618193Y-95340500D01*
X137439500Y-94161806D01*
X137439500Y-85484395D01*
X140911403Y-82012491D01*
X141007821Y-82012575D01*
X141030469Y-82003217D01*
X138040793Y-84992893D01*
X138040793Y-84992893D01*
G37*
X138040793Y-84992893D02*
X137870085Y-85248377D01*
X137810139Y-85549740D01*
X137810140Y-85549745D01*
X137810140Y-88470735D01*
X137810139Y-88470740D01*
X137870085Y-88772103D01*
X138040793Y-89027587D01*
X141148051Y-92134844D01*
X141148053Y-92134847D01*
X141345970Y-92267090D01*
X141403537Y-92305555D01*
X141704900Y-92365500D01*
X142578560Y-92365500D01*
X142578560Y-92453000D01*
X142598067Y-92556671D01*
X142578560Y-92653000D01*
X142578560Y-93103000D01*
X142591980Y-93174323D01*
X142591000Y-93176690D01*
X142591000Y-93256750D01*
X142611312Y-93277062D01*
X142622838Y-93338317D01*
X142748059Y-93532916D01*
X142687673Y-93593301D01*
X142610403Y-93779847D01*
X142591000Y-93799250D01*
X142591000Y-93906750D01*
X142610403Y-93926153D01*
X142687673Y-94112699D01*
X142749930Y-94174956D01*
X142629569Y-94351110D01*
X142614442Y-94425808D01*
X142591000Y-94449250D01*
X142591000Y-94529310D01*
X142592667Y-94533335D01*
X142578560Y-94603000D01*
X142578560Y-94690500D01*
X141106194Y-94690500D01*
X140243282Y-93827587D01*
X140243366Y-93731170D01*
X140089927Y-93359818D01*
X139806057Y-93075453D01*
X139434974Y-92921366D01*
X139033171Y-92921015D01*
X138661819Y-93074454D01*
X138377454Y-93358324D01*
X138223367Y-93729407D01*
X138223016Y-94131210D01*
X138376455Y-94502562D01*
X138660325Y-94786927D01*
X139031408Y-94941014D01*
X139129407Y-94941100D01*
X139528808Y-95340500D01*
X138618193Y-95340500D01*
X137439500Y-94161806D01*
X137439500Y-85484395D01*
X140911403Y-82012491D01*
X141007821Y-82012575D01*
X141030469Y-82003217D01*
X138040793Y-84992893D01*
G36*
X169382640Y-73196851D02*
X169382640Y-88707829D01*
X168532730Y-89557740D01*
X168428522Y-89557740D01*
X168400802Y-89410423D01*
X168261730Y-89194299D01*
X168049530Y-89049309D01*
X167797640Y-88998300D01*
X166547640Y-88998300D01*
X166312323Y-89042578D01*
X166096199Y-89181650D01*
X165951209Y-89393850D01*
X165918020Y-89557740D01*
X157957840Y-89557740D01*
X157637151Y-89621529D01*
X157529737Y-89693301D01*
X157365285Y-89803184D01*
X156186085Y-90982385D01*
X156004429Y-91254251D01*
X155940640Y-91574940D01*
X155940640Y-91659858D01*
X155793323Y-91687578D01*
X155577199Y-91826650D01*
X155432209Y-92038850D01*
X155431976Y-92040000D01*
X154183694Y-92040000D01*
X155750847Y-90472847D01*
X159023593Y-87200100D01*
X159864156Y-87200100D01*
X159932274Y-87268337D01*
X160303357Y-87422424D01*
X160705160Y-87422775D01*
X161076512Y-87269336D01*
X161360877Y-86985466D01*
X161514964Y-86614383D01*
X161515315Y-86212580D01*
X161361876Y-85841228D01*
X161078006Y-85556863D01*
X160706923Y-85402776D01*
X160305120Y-85402425D01*
X159933768Y-85555864D01*
X159864411Y-85625100D01*
X158697405Y-85625100D01*
X158697400Y-85625099D01*
X158396037Y-85685045D01*
X158140553Y-85855753D01*
X158140551Y-85855756D01*
X154879140Y-89117166D01*
X154879140Y-82421155D01*
X155160804Y-82139491D01*
X155257221Y-82139575D01*
X155628573Y-81986136D01*
X155912938Y-81702266D01*
X156067025Y-81331183D01*
X156067376Y-80929380D01*
X155913937Y-80558028D01*
X155630067Y-80273663D01*
X155258984Y-80119576D01*
X154857181Y-80119225D01*
X154485829Y-80272664D01*
X154201464Y-80556534D01*
X154047377Y-80927617D01*
X154047291Y-81025616D01*
X153796520Y-81276387D01*
X153762555Y-81105637D01*
X153591847Y-80850153D01*
X153591844Y-80850151D01*
X151383847Y-78642153D01*
X151128363Y-78471445D01*
X150827000Y-78411499D01*
X150826995Y-78411500D01*
X148573124Y-78411500D01*
X148505006Y-78343263D01*
X148133923Y-78189176D01*
X147732120Y-78188825D01*
X147360768Y-78342264D01*
X147306140Y-78396797D01*
X147306140Y-78136740D01*
X147246195Y-77835377D01*
X147075487Y-77579893D01*
X147075484Y-77579891D01*
X144709487Y-75213893D01*
X144454003Y-75043185D01*
X144152640Y-74983239D01*
X144152635Y-74983240D01*
X139097877Y-74983240D01*
X139168671Y-74879630D01*
X139219680Y-74627740D01*
X139219680Y-73433740D01*
X158443530Y-73433740D01*
X159261085Y-74251295D01*
X159532951Y-74432951D01*
X159853640Y-74496740D01*
X160430758Y-74496740D01*
X160458478Y-74644057D01*
X160597550Y-74860181D01*
X160809750Y-75005171D01*
X160822837Y-75007821D01*
X160610199Y-75144650D01*
X160465209Y-75356850D01*
X160414200Y-75608740D01*
X160414200Y-77108740D01*
X160458478Y-77344057D01*
X160597550Y-77560181D01*
X160809750Y-77705171D01*
X161061640Y-77756180D01*
X162361640Y-77756180D01*
X162596957Y-77711902D01*
X162813081Y-77572830D01*
X162958071Y-77360630D01*
X163001486Y-77146240D01*
X163028635Y-77146240D01*
X163028640Y-77146241D01*
X163330003Y-77086295D01*
X163585487Y-76915587D01*
X164522310Y-75978763D01*
X164635180Y-76001620D01*
X165834060Y-76001620D01*
X166069377Y-75957342D01*
X166285501Y-75818270D01*
X166291096Y-75810081D01*
X166373522Y-75892507D01*
X166606911Y-75989180D01*
X167046910Y-75989180D01*
X167205660Y-75830430D01*
X167205660Y-74881740D01*
X167459660Y-74881740D01*
X167459660Y-75830430D01*
X167618410Y-75989180D01*
X168058409Y-75989180D01*
X168291798Y-75892507D01*
X168470427Y-75713879D01*
X168567100Y-75480490D01*
X168567100Y-75040490D01*
X168408350Y-74881740D01*
X167459660Y-74881740D01*
X167205660Y-74881740D01*
X167185660Y-74881740D01*
X167185660Y-74627740D01*
X167205660Y-74627740D01*
X167205660Y-73679050D01*
X167459660Y-73679050D01*
X167459660Y-74627740D01*
X168408350Y-74627740D01*
X168567100Y-74468990D01*
X168567100Y-74028990D01*
X168470427Y-73795601D01*
X168291798Y-73616973D01*
X168058409Y-73520300D01*
X167618410Y-73520300D01*
X167459660Y-73679050D01*
X167205660Y-73679050D01*
X167046910Y-73520300D01*
X166606911Y-73520300D01*
X166373522Y-73616973D01*
X166291309Y-73699185D01*
X166085950Y-73558869D01*
X165834060Y-73507860D01*
X164635180Y-73507860D01*
X164399863Y-73552138D01*
X164183739Y-73691210D01*
X164038749Y-73903410D01*
X163987740Y-74155300D01*
X163987740Y-74285947D01*
X162939533Y-75334154D01*
X162825730Y-75157299D01*
X162613530Y-75012309D01*
X162600443Y-75009659D01*
X162813081Y-74872830D01*
X162958071Y-74660630D01*
X163009080Y-74408740D01*
X163009080Y-72908740D01*
X162964802Y-72673423D01*
X162825730Y-72457299D01*
X162723822Y-72387668D01*
X162947751Y-72163740D01*
X168349530Y-72163740D01*
X169382640Y-73196851D01*
X169382640Y-73196851D01*
G37*
X169382640Y-73196851D02*
X169382640Y-88707829D01*
X168532730Y-89557740D01*
X168428522Y-89557740D01*
X168400802Y-89410423D01*
X168261730Y-89194299D01*
X168049530Y-89049309D01*
X167797640Y-88998300D01*
X166547640Y-88998300D01*
X166312323Y-89042578D01*
X166096199Y-89181650D01*
X165951209Y-89393850D01*
X165918020Y-89557740D01*
X157957840Y-89557740D01*
X157637151Y-89621529D01*
X157529737Y-89693301D01*
X157365285Y-89803184D01*
X156186085Y-90982385D01*
X156004429Y-91254251D01*
X155940640Y-91574940D01*
X155940640Y-91659858D01*
X155793323Y-91687578D01*
X155577199Y-91826650D01*
X155432209Y-92038850D01*
X155431976Y-92040000D01*
X154183694Y-92040000D01*
X155750847Y-90472847D01*
X159023593Y-87200100D01*
X159864156Y-87200100D01*
X159932274Y-87268337D01*
X160303357Y-87422424D01*
X160705160Y-87422775D01*
X161076512Y-87269336D01*
X161360877Y-86985466D01*
X161514964Y-86614383D01*
X161515315Y-86212580D01*
X161361876Y-85841228D01*
X161078006Y-85556863D01*
X160706923Y-85402776D01*
X160305120Y-85402425D01*
X159933768Y-85555864D01*
X159864411Y-85625100D01*
X158697405Y-85625100D01*
X158697400Y-85625099D01*
X158396037Y-85685045D01*
X158140553Y-85855753D01*
X158140551Y-85855756D01*
X154879140Y-89117166D01*
X154879140Y-82421155D01*
X155160804Y-82139491D01*
X155257221Y-82139575D01*
X155628573Y-81986136D01*
X155912938Y-81702266D01*
X156067025Y-81331183D01*
X156067376Y-80929380D01*
X155913937Y-80558028D01*
X155630067Y-80273663D01*
X155258984Y-80119576D01*
X154857181Y-80119225D01*
X154485829Y-80272664D01*
X154201464Y-80556534D01*
X154047377Y-80927617D01*
X154047291Y-81025616D01*
X153796520Y-81276387D01*
X153762555Y-81105637D01*
X153591847Y-80850153D01*
X153591844Y-80850151D01*
X151383847Y-78642153D01*
X151128363Y-78471445D01*
X150827000Y-78411499D01*
X150826995Y-78411500D01*
X148573124Y-78411500D01*
X148505006Y-78343263D01*
X148133923Y-78189176D01*
X147732120Y-78188825D01*
X147360768Y-78342264D01*
X147306140Y-78396797D01*
X147306140Y-78136740D01*
X147246195Y-77835377D01*
X147075487Y-77579893D01*
X147075484Y-77579891D01*
X144709487Y-75213893D01*
X144454003Y-75043185D01*
X144152640Y-74983239D01*
X144152635Y-74983240D01*
X139097877Y-74983240D01*
X139168671Y-74879630D01*
X139219680Y-74627740D01*
X139219680Y-73433740D01*
X158443530Y-73433740D01*
X159261085Y-74251295D01*
X159532951Y-74432951D01*
X159853640Y-74496740D01*
X160430758Y-74496740D01*
X160458478Y-74644057D01*
X160597550Y-74860181D01*
X160809750Y-75005171D01*
X160822837Y-75007821D01*
X160610199Y-75144650D01*
X160465209Y-75356850D01*
X160414200Y-75608740D01*
X160414200Y-77108740D01*
X160458478Y-77344057D01*
X160597550Y-77560181D01*
X160809750Y-77705171D01*
X161061640Y-77756180D01*
X162361640Y-77756180D01*
X162596957Y-77711902D01*
X162813081Y-77572830D01*
X162958071Y-77360630D01*
X163001486Y-77146240D01*
X163028635Y-77146240D01*
X163028640Y-77146241D01*
X163330003Y-77086295D01*
X163585487Y-76915587D01*
X164522310Y-75978763D01*
X164635180Y-76001620D01*
X165834060Y-76001620D01*
X166069377Y-75957342D01*
X166285501Y-75818270D01*
X166291096Y-75810081D01*
X166373522Y-75892507D01*
X166606911Y-75989180D01*
X167046910Y-75989180D01*
X167205660Y-75830430D01*
X167205660Y-74881740D01*
X167459660Y-74881740D01*
X167459660Y-75830430D01*
X167618410Y-75989180D01*
X168058409Y-75989180D01*
X168291798Y-75892507D01*
X168470427Y-75713879D01*
X168567100Y-75480490D01*
X168567100Y-75040490D01*
X168408350Y-74881740D01*
X167459660Y-74881740D01*
X167205660Y-74881740D01*
X167185660Y-74881740D01*
X167185660Y-74627740D01*
X167205660Y-74627740D01*
X167205660Y-73679050D01*
X167459660Y-73679050D01*
X167459660Y-74627740D01*
X168408350Y-74627740D01*
X168567100Y-74468990D01*
X168567100Y-74028990D01*
X168470427Y-73795601D01*
X168291798Y-73616973D01*
X168058409Y-73520300D01*
X167618410Y-73520300D01*
X167459660Y-73679050D01*
X167205660Y-73679050D01*
X167046910Y-73520300D01*
X166606911Y-73520300D01*
X166373522Y-73616973D01*
X166291309Y-73699185D01*
X166085950Y-73558869D01*
X165834060Y-73507860D01*
X164635180Y-73507860D01*
X164399863Y-73552138D01*
X164183739Y-73691210D01*
X164038749Y-73903410D01*
X163987740Y-74155300D01*
X163987740Y-74285947D01*
X162939533Y-75334154D01*
X162825730Y-75157299D01*
X162613530Y-75012309D01*
X162600443Y-75009659D01*
X162813081Y-74872830D01*
X162958071Y-74660630D01*
X163009080Y-74408740D01*
X163009080Y-72908740D01*
X162964802Y-72673423D01*
X162825730Y-72457299D01*
X162723822Y-72387668D01*
X162947751Y-72163740D01*
X168349530Y-72163740D01*
X169382640Y-73196851D01*
G36*
X131568970Y-74876060D02*
X131841140Y-75057918D01*
X131841140Y-75643735D01*
X131841139Y-75643740D01*
X131901085Y-75945103D01*
X132071793Y-76200587D01*
X132833791Y-76962584D01*
X132833793Y-76962587D01*
X133018936Y-77086295D01*
X133089277Y-77133295D01*
X133390640Y-77193241D01*
X133390645Y-77193240D01*
X143478446Y-77193240D01*
X144033140Y-77747934D01*
X144033140Y-85930735D01*
X144033139Y-85930740D01*
X144093085Y-86232103D01*
X144263793Y-86487587D01*
X144644791Y-86868584D01*
X144644793Y-86868587D01*
X144797944Y-86970919D01*
X144900276Y-87039295D01*
X145144951Y-87087964D01*
X145165478Y-87197057D01*
X145304550Y-87413181D01*
X145516750Y-87558171D01*
X145731140Y-87601586D01*
X145731140Y-88605547D01*
X145496186Y-88840500D01*
X145277550Y-88840500D01*
X145227890Y-88806569D01*
X144976000Y-88755560D01*
X143226000Y-88755560D01*
X142990683Y-88799838D01*
X142774559Y-88938910D01*
X142629569Y-89151110D01*
X142578560Y-89403000D01*
X142578560Y-89853000D01*
X142591980Y-89924323D01*
X142591000Y-89926690D01*
X142591000Y-90006750D01*
X142611312Y-90027062D01*
X142622838Y-90088317D01*
X142746329Y-90280227D01*
X142629569Y-90451110D01*
X142614442Y-90525808D01*
X142591000Y-90549250D01*
X142591000Y-90629310D01*
X142592667Y-90633335D01*
X142578560Y-90703000D01*
X142578560Y-90790500D01*
X142031093Y-90790500D01*
X139385140Y-88144546D01*
X139385140Y-85875934D01*
X143218487Y-82042587D01*
X143389195Y-81787103D01*
X143449141Y-81485740D01*
X143449140Y-81485735D01*
X143449140Y-79453745D01*
X143449141Y-79453740D01*
X143389195Y-79152377D01*
X143285521Y-78997217D01*
X143218487Y-78896893D01*
X143218484Y-78896891D01*
X142329487Y-78007893D01*
X142074003Y-77837185D01*
X141772640Y-77777239D01*
X141772635Y-77777240D01*
X131557834Y-77777240D01*
X130876140Y-77095546D01*
X130876140Y-75057918D01*
X131148310Y-74876060D01*
X131358640Y-74561279D01*
X131568970Y-74876060D01*
X131568970Y-74876060D01*
G37*
X131568970Y-74876060D02*
X131841140Y-75057918D01*
X131841140Y-75643735D01*
X131841139Y-75643740D01*
X131901085Y-75945103D01*
X132071793Y-76200587D01*
X132833791Y-76962584D01*
X132833793Y-76962587D01*
X133018936Y-77086295D01*
X133089277Y-77133295D01*
X133390640Y-77193241D01*
X133390645Y-77193240D01*
X143478446Y-77193240D01*
X144033140Y-77747934D01*
X144033140Y-85930735D01*
X144033139Y-85930740D01*
X144093085Y-86232103D01*
X144263793Y-86487587D01*
X144644791Y-86868584D01*
X144644793Y-86868587D01*
X144797944Y-86970919D01*
X144900276Y-87039295D01*
X145144951Y-87087964D01*
X145165478Y-87197057D01*
X145304550Y-87413181D01*
X145516750Y-87558171D01*
X145731140Y-87601586D01*
X145731140Y-88605547D01*
X145496186Y-88840500D01*
X145277550Y-88840500D01*
X145227890Y-88806569D01*
X144976000Y-88755560D01*
X143226000Y-88755560D01*
X142990683Y-88799838D01*
X142774559Y-88938910D01*
X142629569Y-89151110D01*
X142578560Y-89403000D01*
X142578560Y-89853000D01*
X142591980Y-89924323D01*
X142591000Y-89926690D01*
X142591000Y-90006750D01*
X142611312Y-90027062D01*
X142622838Y-90088317D01*
X142746329Y-90280227D01*
X142629569Y-90451110D01*
X142614442Y-90525808D01*
X142591000Y-90549250D01*
X142591000Y-90629310D01*
X142592667Y-90633335D01*
X142578560Y-90703000D01*
X142578560Y-90790500D01*
X142031093Y-90790500D01*
X139385140Y-88144546D01*
X139385140Y-85875934D01*
X143218487Y-82042587D01*
X143389195Y-81787103D01*
X143449141Y-81485740D01*
X143449140Y-81485735D01*
X143449140Y-79453745D01*
X143449141Y-79453740D01*
X143389195Y-79152377D01*
X143285521Y-78997217D01*
X143218487Y-78896893D01*
X143218484Y-78896891D01*
X142329487Y-78007893D01*
X142074003Y-77837185D01*
X141772640Y-77777239D01*
X141772635Y-77777240D01*
X131557834Y-77777240D01*
X130876140Y-77095546D01*
X130876140Y-75057918D01*
X131148310Y-74876060D01*
X131358640Y-74561279D01*
X131568970Y-74876060D01*
M02*
