%TF.GenerationSoftware,KiCad,Pcbnew,4.0.2-4+6225~38~ubuntu14.04.1-stable*%
%TF.CreationDate,2016-04-12T13:26:47+01:00*%
%TF.ProjectId,clockface,636C6F636B666163652E6B696361645F,rev?*%
%TF.FileFunction,Legend,Top*%
%FSLAX46Y46*%
G04 Gerber Fmt 4.6, Leading zero omitted, Abs format (unit mm)*
G04 Created by KiCad (PCBNEW 4.0.2-4+6225~38~ubuntu14.04.1-stable) date Tue 12 Apr 2016 13:26:47 BST*
%MOMM*%
G01*
G04 APERTURE LIST*
%ADD10C,0.100000*%
%ADD11C,0.700000*%
%ADD12C,0.500000*%
G04 APERTURE END LIST*
D10*
%LPC*%
D11*
X149749854Y-95138097D02*
X149749854Y-92852383D01*
X150606997Y-92852383D02*
X150606997Y-95138097D01*
X145646283Y-93161883D02*
X147931997Y-94019026D01*
X145646283Y-94876169D01*
D12*
X137772140Y-76786740D02*
X137772140Y-73230740D01*
X139944174Y-76596240D02*
G75*
G03X139944174Y-76596240I-2172034J0D01*
G01*
X129453783Y-84049526D02*
X131739497Y-84049526D01*
X127294712Y-95352383D02*
X127866140Y-95352383D01*
X128151855Y-95209526D01*
X128294712Y-95066669D01*
X128580426Y-94638097D01*
X128723283Y-94066669D01*
X128723283Y-92923811D01*
X128580426Y-92638097D01*
X128437569Y-92495240D01*
X128151855Y-92352383D01*
X127580426Y-92352383D01*
X127294712Y-92495240D01*
X127151855Y-92638097D01*
X127008998Y-92923811D01*
X127008998Y-93638097D01*
X127151855Y-93923811D01*
X127294712Y-94066669D01*
X127580426Y-94209526D01*
X128151855Y-94209526D01*
X128437569Y-94066669D01*
X128580426Y-93923811D01*
X128723283Y-93638097D01*
X130183926Y-103544097D02*
X129898212Y-103401240D01*
X129755355Y-103258383D01*
X129612498Y-102972669D01*
X129612498Y-102829811D01*
X129755355Y-102544097D01*
X129898212Y-102401240D01*
X130183926Y-102258383D01*
X130755355Y-102258383D01*
X131041069Y-102401240D01*
X131183926Y-102544097D01*
X131326783Y-102829811D01*
X131326783Y-102972669D01*
X131183926Y-103258383D01*
X131041069Y-103401240D01*
X130755355Y-103544097D01*
X130183926Y-103544097D01*
X129898212Y-103686954D01*
X129755355Y-103829811D01*
X129612498Y-104115526D01*
X129612498Y-104686954D01*
X129755355Y-104972669D01*
X129898212Y-105115526D01*
X130183926Y-105258383D01*
X130755355Y-105258383D01*
X131041069Y-105115526D01*
X131183926Y-104972669D01*
X131326783Y-104686954D01*
X131326783Y-104115526D01*
X131183926Y-103829811D01*
X131041069Y-103686954D01*
X130755355Y-103544097D01*
X136835640Y-109751383D02*
X138835640Y-109751383D01*
X137549926Y-112751383D01*
X148503569Y-112354883D02*
X147932140Y-112354883D01*
X147646426Y-112497740D01*
X147503569Y-112640597D01*
X147217855Y-113069169D01*
X147074998Y-113640597D01*
X147074998Y-114783454D01*
X147217855Y-115069169D01*
X147360712Y-115212026D01*
X147646426Y-115354883D01*
X148217855Y-115354883D01*
X148503569Y-115212026D01*
X148646426Y-115069169D01*
X148789283Y-114783454D01*
X148789283Y-114069169D01*
X148646426Y-113783454D01*
X148503569Y-113640597D01*
X148217855Y-113497740D01*
X147646426Y-113497740D01*
X147360712Y-113640597D01*
X147217855Y-113783454D01*
X147074998Y-114069169D01*
X158679426Y-109687883D02*
X157250855Y-109687883D01*
X157107998Y-111116454D01*
X157250855Y-110973597D01*
X157536569Y-110830740D01*
X158250855Y-110830740D01*
X158536569Y-110973597D01*
X158679426Y-111116454D01*
X158822283Y-111402169D01*
X158822283Y-112116454D01*
X158679426Y-112402169D01*
X158536569Y-112545026D01*
X158250855Y-112687883D01*
X157536569Y-112687883D01*
X157250855Y-112545026D01*
X157107998Y-112402169D01*
X165712069Y-103321883D02*
X165712069Y-105321883D01*
X164997783Y-102179026D02*
X164283498Y-104321883D01*
X166140640Y-104321883D01*
X166871140Y-92288883D02*
X168728283Y-92288883D01*
X167728283Y-93431740D01*
X168156855Y-93431740D01*
X168442569Y-93574597D01*
X168585426Y-93717454D01*
X168728283Y-94003169D01*
X168728283Y-94717454D01*
X168585426Y-95003169D01*
X168442569Y-95146026D01*
X168156855Y-95288883D01*
X167299712Y-95288883D01*
X167013998Y-95146026D01*
X166871140Y-95003169D01*
X164473998Y-82795597D02*
X164616855Y-82652740D01*
X164902569Y-82509883D01*
X165616855Y-82509883D01*
X165902569Y-82652740D01*
X166045426Y-82795597D01*
X166188283Y-83081311D01*
X166188283Y-83367026D01*
X166045426Y-83795597D01*
X164331140Y-85509883D01*
X166188283Y-85509883D01*
X158758783Y-78016883D02*
X157044498Y-78016883D01*
X157901640Y-78016883D02*
X157901640Y-75016883D01*
X157615926Y-75445454D01*
X157330212Y-75731169D01*
X157044498Y-75874026D01*
X147725783Y-72222883D02*
X148011498Y-72222883D01*
X148297212Y-72365740D01*
X148440069Y-72508597D01*
X148582926Y-72794311D01*
X148725783Y-73365740D01*
X148725783Y-74080026D01*
X148582926Y-74651454D01*
X148440069Y-74937169D01*
X148297212Y-75080026D01*
X148011498Y-75222883D01*
X147725783Y-75222883D01*
X147440069Y-75080026D01*
X147297212Y-74937169D01*
X147154355Y-74651454D01*
X147011498Y-74080026D01*
X147011498Y-73365740D01*
X147154355Y-72794311D01*
X147297212Y-72508597D01*
X147440069Y-72365740D01*
X147725783Y-72222883D01*
M02*
