G04 #@! TF.FileFunction,Copper,L1,Top,Signal*
%FSLAX46Y46*%
G04 Gerber Fmt 4.6, Leading zero omitted, Abs format (unit mm)*
G04 Created by KiCad (PCBNEW 4.0.2-stable) date Monday, 09 May 2016 'pmt' 13:51:59*
%MOMM*%
G01*
G04 APERTURE LIST*
%ADD10C,0.100000*%
%ADD11R,1.500000X1.250000*%
%ADD12R,1.250000X1.500000*%
%ADD13R,1.198880X1.198880*%
%ADD14R,1.300000X1.500000*%
%ADD15R,1.500000X1.300000*%
%ADD16R,1.727200X4.064000*%
%ADD17O,1.727200X4.064000*%
%ADD18R,1.750000X0.450000*%
%ADD19C,0.750000*%
%ADD20C,0.406000*%
%ADD21C,0.305000*%
%ADD22C,0.254000*%
G04 APERTURE END LIST*
D10*
D11*
X141181140Y-89804240D03*
X138681140Y-89804240D03*
D12*
X130787140Y-87284240D03*
X130787140Y-89784240D03*
D13*
X132725160Y-71643240D03*
X130627120Y-71643240D03*
D14*
X136248140Y-70547240D03*
X136248140Y-73247240D03*
D15*
X148995140Y-97424240D03*
X151695140Y-97424240D03*
X148741140Y-83200240D03*
X151441140Y-83200240D03*
X148741140Y-80406240D03*
X151441140Y-80406240D03*
X148995140Y-99710240D03*
X151695140Y-99710240D03*
D16*
X160251140Y-69484240D03*
D17*
X162791140Y-69484240D03*
X165331140Y-69484240D03*
X167871140Y-69484240D03*
X170411140Y-69484240D03*
D18*
X153858780Y-94966500D03*
X153858780Y-94316500D03*
X153858780Y-93666500D03*
X153858780Y-93016500D03*
X153858780Y-92366500D03*
X153858780Y-91716500D03*
X153858780Y-91066500D03*
X153858780Y-90416500D03*
X153858780Y-89766500D03*
X153858780Y-89116500D03*
X153858780Y-88466500D03*
X153858780Y-87816500D03*
X153858780Y-87166500D03*
X153858780Y-86516500D03*
X146658780Y-86516500D03*
X146658780Y-87166500D03*
X146658780Y-87816500D03*
X146658780Y-88466500D03*
X146658780Y-89116500D03*
X146658780Y-89766500D03*
X146658780Y-90416500D03*
X146658780Y-91066500D03*
X146658780Y-91716500D03*
X146658780Y-92366500D03*
X146658780Y-93016500D03*
X146658780Y-93666500D03*
X146658780Y-94316500D03*
X146658780Y-94966500D03*
D19*
X158092140Y-98948240D03*
X142090140Y-98948240D03*
X157965140Y-82692240D03*
X142217140Y-82692240D03*
X157151979Y-77890900D03*
X162866979Y-83454240D03*
X164848179Y-90794100D03*
X162791140Y-98059240D03*
X157393640Y-103595700D03*
X150027640Y-105602300D03*
X142978779Y-103671900D03*
X137264140Y-97551240D03*
X135358779Y-90820240D03*
X137454640Y-83301100D03*
X142902579Y-78017900D03*
X158726589Y-90819690D03*
X150027640Y-76087500D03*
D20*
X158092140Y-98948240D02*
X164569140Y-105425240D01*
X164569140Y-105425240D02*
X164569140Y-107520740D01*
X135867140Y-102504240D02*
X135867140Y-107520740D01*
X139423140Y-98948240D02*
X135867140Y-102504240D01*
X142090140Y-98948240D02*
X139423140Y-98948240D01*
X153858780Y-87166500D02*
X155522880Y-87166500D01*
X157965140Y-84724240D02*
X157965140Y-82692240D01*
X155522880Y-87166500D02*
X157965140Y-84724240D01*
X159997140Y-88788240D02*
X158600140Y-88788240D01*
X159997140Y-88788240D02*
X160505140Y-88280240D01*
X160505140Y-88280240D02*
X160505140Y-82438240D01*
X160505140Y-82438240D02*
X156187140Y-78120240D01*
X156187140Y-78120240D02*
X156187140Y-77104240D01*
X156187140Y-77104240D02*
X156695140Y-76596240D01*
X170411140Y-76596240D02*
X156695140Y-76596240D01*
X156631640Y-90756740D02*
X155679140Y-90756740D01*
X158600140Y-88788240D02*
X156631640Y-90756740D01*
X142217140Y-82692240D02*
X140947140Y-82692240D01*
X139677140Y-81422240D02*
X133707779Y-81422240D01*
X140947140Y-82692240D02*
X139677140Y-81422240D01*
X133707779Y-77358240D02*
X133707779Y-75452879D01*
X133707779Y-81422240D02*
X133707779Y-77358240D01*
X133707779Y-75452879D02*
X132565140Y-74310240D01*
X132565140Y-74310240D02*
X131549140Y-74310240D01*
X131549140Y-74310240D02*
X130627120Y-73388220D01*
X130627120Y-73388220D02*
X130627120Y-71643240D01*
X130787140Y-89784240D02*
X130787140Y-105044962D01*
X130787140Y-105044962D02*
X133326779Y-107584601D01*
X138681140Y-89804240D02*
X130807140Y-89804240D01*
X130807140Y-89804240D02*
X130787140Y-89784240D01*
X170411140Y-86248240D02*
X170411140Y-103901240D01*
X170411140Y-103901240D02*
X166791640Y-107520740D01*
X170411140Y-76596240D02*
X170411140Y-86248240D01*
X166791640Y-107520740D02*
X164569140Y-107520740D01*
X164569140Y-107520740D02*
X135867140Y-107520740D01*
X135867140Y-107520740D02*
X133390640Y-107520740D01*
X133390640Y-107520740D02*
X133326779Y-107584601D01*
X146658780Y-89116500D02*
X143688400Y-89116500D01*
X133707779Y-82818879D02*
X133707779Y-81422240D01*
X136375140Y-85486240D02*
X133707779Y-82818879D01*
X140058140Y-85486240D02*
X136375140Y-85486240D01*
X143688400Y-89116500D02*
X140058140Y-85486240D01*
X170411140Y-76596240D02*
X170411140Y-70500240D01*
X153858780Y-90416500D02*
X155529400Y-90416500D01*
X155679140Y-90566240D02*
X155679140Y-90756740D01*
X155529400Y-90416500D02*
X155679140Y-90566240D01*
X155559880Y-91066500D02*
X153858780Y-91066500D01*
X155679140Y-90947240D02*
X155559880Y-91066500D01*
X155679140Y-90756740D02*
X155679140Y-90947240D01*
D21*
X136248140Y-73247240D02*
X134931140Y-73247240D01*
X133327140Y-71643240D02*
X132725160Y-71643240D01*
X134931140Y-73247240D02*
X133327140Y-71643240D01*
X153858780Y-94966500D02*
X152421880Y-94966500D01*
X151568140Y-95820240D02*
X151568140Y-97678240D01*
X152421880Y-94966500D02*
X151568140Y-95820240D01*
X151441140Y-80406240D02*
X150345140Y-80406240D01*
X146658780Y-79266600D02*
X146658780Y-86516500D01*
X147297140Y-78628240D02*
X146658780Y-79266600D01*
X149710140Y-78628240D02*
X147297140Y-78628240D01*
X150091140Y-79009240D02*
X149710140Y-78628240D01*
X150091140Y-80152240D02*
X150091140Y-79009240D01*
X150345140Y-80406240D02*
X150091140Y-80152240D01*
X151441140Y-80406240D02*
X151441140Y-75025240D01*
X151441140Y-75025240D02*
X153807140Y-72659240D01*
X151441140Y-79089240D02*
X151441140Y-80406240D01*
X162791140Y-72024240D02*
X162791140Y-70500240D01*
X162156140Y-72659240D02*
X162791140Y-72024240D01*
X153807140Y-72659240D02*
X162156140Y-72659240D01*
X165331140Y-72532240D02*
X165331140Y-70500240D01*
X164569140Y-73294240D02*
X165331140Y-72532240D01*
X154155140Y-73294240D02*
X164569140Y-73294240D01*
X153139140Y-74310240D02*
X154155140Y-73294240D01*
X153139140Y-82819240D02*
X153139140Y-74310240D01*
X151441140Y-83200240D02*
X152758140Y-83200240D01*
X152758140Y-83200240D02*
X153139140Y-82819240D01*
X153858780Y-86516500D02*
X152137400Y-86516500D01*
X151441140Y-85820240D02*
X151441140Y-83200240D01*
X152137400Y-86516500D02*
X151441140Y-85820240D01*
X167871140Y-70500240D02*
X167871140Y-72405240D01*
X156254880Y-88466500D02*
X153858780Y-88466500D01*
X159362140Y-85359240D02*
X156254880Y-88466500D01*
X159362140Y-82438240D02*
X159362140Y-85359240D01*
X155298140Y-78374240D02*
X159362140Y-82438240D01*
X155298140Y-76342240D02*
X155298140Y-78374240D01*
X156187140Y-75453240D02*
X155298140Y-76342240D01*
X166728140Y-75453240D02*
X156187140Y-75453240D01*
X167871140Y-74310240D02*
X166728140Y-75453240D01*
X167871140Y-72405240D02*
X167871140Y-74310240D01*
X167871140Y-72405240D02*
X167871140Y-72405240D01*
X153858780Y-88466500D02*
X151555880Y-88466500D01*
X150345140Y-98868240D02*
X151568140Y-100091240D01*
X150345140Y-89677240D02*
X150345140Y-98868240D01*
X151555880Y-88466500D02*
X150345140Y-89677240D01*
X159667780Y-93016500D02*
X161307780Y-91376500D01*
X161307780Y-91376500D02*
X161307780Y-82046701D01*
X161307780Y-82046701D02*
X157151979Y-77890900D01*
X153858780Y-93016500D02*
X159667780Y-93016500D01*
X153858780Y-93666500D02*
X160541780Y-93666500D01*
X162866979Y-91341301D02*
X162866979Y-83454240D01*
X162866979Y-83454240D02*
X162866979Y-83453500D01*
X160541780Y-93666500D02*
X162866979Y-91341301D01*
X161325779Y-94316500D02*
X164848179Y-90794100D01*
X153858780Y-94316500D02*
X161325779Y-94316500D01*
X162791140Y-98059240D02*
X162283140Y-97551240D01*
X147984400Y-93666500D02*
X148186140Y-93868240D01*
X148186140Y-93868240D02*
X148186140Y-95646240D01*
X148186140Y-95646240D02*
X147043140Y-96789240D01*
X147043140Y-96789240D02*
X147043140Y-101107240D01*
X147043140Y-101107240D02*
X147551140Y-101615240D01*
X146658780Y-93666500D02*
X147984400Y-93666500D01*
X153012140Y-101615240D02*
X147551140Y-101615240D01*
X157076140Y-97551240D02*
X153012140Y-101615240D01*
X162283140Y-97551240D02*
X157076140Y-97551240D01*
X146658780Y-93016500D02*
X145062780Y-93016500D01*
X146602980Y-103595700D02*
X157393640Y-103595700D01*
X157393640Y-103595700D02*
X157431379Y-103595700D01*
X144924780Y-101917500D02*
X146602980Y-103595700D01*
X144924780Y-93154500D02*
X144924780Y-101917500D01*
X145062780Y-93016500D02*
X144924780Y-93154500D01*
X146658780Y-92366500D02*
X144696780Y-92366500D01*
X147085580Y-105602300D02*
X150027640Y-105602300D01*
X150027640Y-105602300D02*
X150090779Y-105602300D01*
X144162780Y-102679500D02*
X147085580Y-105602300D01*
X144162780Y-92900500D02*
X144162780Y-102679500D01*
X144696780Y-92366500D02*
X144162780Y-92900500D01*
X143400780Y-102696901D02*
X143400780Y-103249899D01*
X144330780Y-91716500D02*
X146658780Y-91716500D01*
X143400780Y-92646500D02*
X143400780Y-102696901D01*
X144330780Y-91716500D02*
X143400780Y-92646500D01*
X143400780Y-103249899D02*
X142978779Y-103671900D01*
X146658780Y-91066500D02*
X143748880Y-91066500D01*
X143748880Y-91066500D02*
X137264140Y-97551240D01*
X146658780Y-90416500D02*
X143128880Y-90416500D01*
X143128880Y-90416500D02*
X139628880Y-93916500D01*
X139628880Y-93916500D02*
X137431780Y-93916500D01*
X137431780Y-93916500D02*
X135358779Y-91843499D01*
X135358779Y-91843499D02*
X135358779Y-90820240D01*
X135358779Y-90820240D02*
X135358779Y-90794100D01*
X146658780Y-88466500D02*
X144427780Y-88466500D01*
X139262380Y-83301100D02*
X137454640Y-83301100D01*
X137454640Y-83301100D02*
X137416179Y-83301100D01*
X142765780Y-86804500D02*
X139262380Y-83301100D01*
X142765780Y-86804500D02*
X142765780Y-86804500D01*
X144427780Y-88466500D02*
X142765780Y-86804500D01*
X144674400Y-87816500D02*
X143868140Y-87010240D01*
X143868140Y-87010240D02*
X143868140Y-78983461D01*
X143868140Y-78983461D02*
X142902579Y-78017900D01*
X146658780Y-87816500D02*
X144674400Y-87816500D01*
X153858780Y-92366500D02*
X157179779Y-92366500D01*
X157179779Y-92366500D02*
X158726589Y-90819690D01*
X158726589Y-90819690D02*
X158726779Y-90819500D01*
X146658780Y-87166500D02*
X145159780Y-87166500D01*
X147132780Y-76087500D02*
X150027640Y-76087500D01*
X150027640Y-76087500D02*
X150090779Y-76087500D01*
X144924780Y-78295500D02*
X147132780Y-76087500D01*
X144924780Y-86931500D02*
X144924780Y-78295500D01*
X145159780Y-87166500D02*
X144924780Y-86931500D01*
D20*
X160251140Y-69484240D02*
X139169140Y-69484240D01*
X138106140Y-70547240D02*
X136248140Y-70547240D01*
X139169140Y-69484240D02*
X138106140Y-70547240D01*
X146658780Y-89766500D02*
X148830400Y-89766500D01*
X148830400Y-89766500D02*
X148868140Y-89804240D01*
X130787140Y-87284240D02*
X129079940Y-87284240D01*
X129079940Y-87284240D02*
X127739140Y-85943440D01*
X127739140Y-85943440D02*
X127739140Y-84216240D01*
X127739140Y-80914240D02*
X127739140Y-69738240D01*
X127739140Y-69738240D02*
X129263140Y-68214240D01*
X129263140Y-68214240D02*
X135359140Y-68214240D01*
X135359140Y-68214240D02*
X136248140Y-69103240D01*
X136248140Y-69103240D02*
X136248140Y-70547240D01*
X127739140Y-84216240D02*
X127739140Y-80914240D01*
X141181140Y-89804240D02*
X141181140Y-88463440D01*
X141181140Y-88463440D02*
X140001940Y-87284240D01*
X140001940Y-87284240D02*
X130787140Y-87284240D01*
X136475140Y-70774240D02*
X136248140Y-70547240D01*
X148868140Y-97678240D02*
X148868140Y-100091240D01*
X148741140Y-83200240D02*
X148741140Y-80406240D01*
D21*
X146696520Y-89804240D02*
X146658780Y-89766500D01*
D20*
X148868140Y-97678240D02*
X148868140Y-89804240D01*
X148868140Y-89804240D02*
X148868140Y-83327240D01*
X148868140Y-83327240D02*
X148741140Y-83200240D01*
X146658780Y-89766500D02*
X141218880Y-89766500D01*
X141218880Y-89766500D02*
X141181140Y-89804240D01*
D22*
G36*
X174548640Y-115031740D02*
X125968640Y-115031740D01*
X125968640Y-90069990D01*
X129527140Y-90069990D01*
X129527140Y-90660549D01*
X129623813Y-90893938D01*
X129802441Y-91072567D01*
X130035830Y-91169240D01*
X130501390Y-91169240D01*
X130660140Y-91010490D01*
X130660140Y-89911240D01*
X130914140Y-89911240D01*
X130914140Y-91010490D01*
X131072890Y-91169240D01*
X131538450Y-91169240D01*
X131771839Y-91072567D01*
X131950467Y-90893938D01*
X132047140Y-90660549D01*
X132047140Y-90069990D01*
X131888390Y-89911240D01*
X130914140Y-89911240D01*
X130660140Y-89911240D01*
X129685890Y-89911240D01*
X129527140Y-90069990D01*
X125968640Y-90069990D01*
X125968640Y-69738240D01*
X126901140Y-69738240D01*
X126901140Y-85943440D01*
X126964929Y-86264129D01*
X127107440Y-86477410D01*
X127146585Y-86535995D01*
X128487385Y-87876796D01*
X128759252Y-88058452D01*
X129079940Y-88122240D01*
X129531258Y-88122240D01*
X129558978Y-88269557D01*
X129698050Y-88485681D01*
X129766146Y-88532209D01*
X129623813Y-88674542D01*
X129527140Y-88907931D01*
X129527140Y-89498490D01*
X129685890Y-89657240D01*
X130660140Y-89657240D01*
X130660140Y-89637240D01*
X130914140Y-89637240D01*
X130914140Y-89657240D01*
X131888390Y-89657240D01*
X132047140Y-89498490D01*
X132047140Y-89052930D01*
X137296140Y-89052930D01*
X137296140Y-89518490D01*
X137454890Y-89677240D01*
X138554140Y-89677240D01*
X138554140Y-88702990D01*
X138395390Y-88544240D01*
X137804831Y-88544240D01*
X137571442Y-88640913D01*
X137392813Y-88819541D01*
X137296140Y-89052930D01*
X132047140Y-89052930D01*
X132047140Y-88907931D01*
X131950467Y-88674542D01*
X131809230Y-88533304D01*
X131863581Y-88498330D01*
X132008571Y-88286130D01*
X132041760Y-88122240D01*
X139654830Y-88122240D01*
X140142792Y-88610203D01*
X139979699Y-88715150D01*
X139933171Y-88783246D01*
X139790838Y-88640913D01*
X139557449Y-88544240D01*
X138966890Y-88544240D01*
X138808140Y-88702990D01*
X138808140Y-89677240D01*
X138828140Y-89677240D01*
X138828140Y-89931240D01*
X138808140Y-89931240D01*
X138808140Y-90905490D01*
X138966890Y-91064240D01*
X139557449Y-91064240D01*
X139790838Y-90967567D01*
X139932076Y-90826330D01*
X139967050Y-90880681D01*
X140179250Y-91025671D01*
X140431140Y-91076680D01*
X141355007Y-91076680D01*
X139302686Y-93129000D01*
X137757973Y-93129000D01*
X136146279Y-91517305D01*
X136146279Y-91461224D01*
X136214516Y-91393106D01*
X136368603Y-91022023D01*
X136368954Y-90620220D01*
X136215515Y-90248868D01*
X136056914Y-90089990D01*
X137296140Y-90089990D01*
X137296140Y-90555550D01*
X137392813Y-90788939D01*
X137571442Y-90967567D01*
X137804831Y-91064240D01*
X138395390Y-91064240D01*
X138554140Y-90905490D01*
X138554140Y-89931240D01*
X137454890Y-89931240D01*
X137296140Y-90089990D01*
X136056914Y-90089990D01*
X135931645Y-89964503D01*
X135560562Y-89810416D01*
X135158759Y-89810065D01*
X134787407Y-89963504D01*
X134503042Y-90247374D01*
X134348955Y-90618457D01*
X134348604Y-91020260D01*
X134502043Y-91391612D01*
X134571279Y-91460969D01*
X134571279Y-91843494D01*
X134571278Y-91843499D01*
X134631224Y-92144862D01*
X134801932Y-92400346D01*
X136874931Y-94473344D01*
X136874933Y-94473347D01*
X137091218Y-94617863D01*
X137130417Y-94644055D01*
X137431780Y-94704000D01*
X138997686Y-94704000D01*
X137160537Y-96541149D01*
X137064120Y-96541065D01*
X136692768Y-96694504D01*
X136408403Y-96978374D01*
X136254316Y-97349457D01*
X136253965Y-97751260D01*
X136407404Y-98122612D01*
X136691274Y-98406977D01*
X137062357Y-98561064D01*
X137464160Y-98561415D01*
X137835512Y-98407976D01*
X138119877Y-98124106D01*
X138273964Y-97753023D01*
X138274050Y-97655024D01*
X142613280Y-93315793D01*
X142613280Y-102730099D01*
X142407407Y-102815164D01*
X142123042Y-103099034D01*
X141968955Y-103470117D01*
X141968604Y-103871920D01*
X142122043Y-104243272D01*
X142405913Y-104527637D01*
X142776996Y-104681724D01*
X143178799Y-104682075D01*
X143550151Y-104528636D01*
X143834516Y-104244766D01*
X143988603Y-103873683D01*
X143988702Y-103760239D01*
X144045228Y-103675642D01*
X146528731Y-106159144D01*
X146528733Y-106159147D01*
X146681884Y-106261479D01*
X146784216Y-106329855D01*
X147085580Y-106389800D01*
X149386656Y-106389800D01*
X149454774Y-106458037D01*
X149825857Y-106612124D01*
X150227660Y-106612475D01*
X150599012Y-106459036D01*
X150883377Y-106175166D01*
X151037464Y-105804083D01*
X151037815Y-105402280D01*
X150884376Y-105030928D01*
X150600506Y-104746563D01*
X150229423Y-104592476D01*
X149827620Y-104592125D01*
X149456268Y-104745564D01*
X149386911Y-104814800D01*
X147411773Y-104814800D01*
X146980173Y-104383200D01*
X156752656Y-104383200D01*
X156820774Y-104451437D01*
X157191857Y-104605524D01*
X157593660Y-104605875D01*
X157965012Y-104452436D01*
X158249377Y-104168566D01*
X158403464Y-103797483D01*
X158403815Y-103395680D01*
X158250376Y-103024328D01*
X157966506Y-102739963D01*
X157595423Y-102585876D01*
X157193620Y-102585525D01*
X156822268Y-102738964D01*
X156752911Y-102808200D01*
X146929173Y-102808200D01*
X145712280Y-101591306D01*
X145712280Y-95824461D01*
X145783780Y-95838940D01*
X146879746Y-95838940D01*
X146486293Y-96232393D01*
X146315585Y-96487877D01*
X146255639Y-96789240D01*
X146255640Y-96789245D01*
X146255640Y-101107235D01*
X146255639Y-101107240D01*
X146315585Y-101408603D01*
X146486293Y-101664087D01*
X146994291Y-102172084D01*
X146994293Y-102172087D01*
X147064299Y-102218863D01*
X147249776Y-102342795D01*
X147551140Y-102402740D01*
X153012135Y-102402740D01*
X153012140Y-102402741D01*
X153313503Y-102342795D01*
X153568987Y-102172087D01*
X157402334Y-98338740D01*
X161813805Y-98338740D01*
X161934404Y-98630612D01*
X162218274Y-98914977D01*
X162589357Y-99069064D01*
X162991160Y-99069415D01*
X163362512Y-98915976D01*
X163646877Y-98632106D01*
X163800964Y-98261023D01*
X163801315Y-97859220D01*
X163647876Y-97487868D01*
X163364006Y-97203503D01*
X162992923Y-97049416D01*
X162894924Y-97049330D01*
X162839987Y-96994393D01*
X162584503Y-96823685D01*
X162283140Y-96763739D01*
X162283135Y-96763740D01*
X157076145Y-96763740D01*
X157076140Y-96763739D01*
X156774777Y-96823685D01*
X156519293Y-96994393D01*
X153077125Y-100436561D01*
X153092580Y-100360240D01*
X153092580Y-99060240D01*
X153048302Y-98824923D01*
X152909230Y-98608799D01*
X152849981Y-98568316D01*
X152896581Y-98538330D01*
X153041571Y-98326130D01*
X153092580Y-98074240D01*
X153092580Y-96774240D01*
X153048302Y-96538923D01*
X152909230Y-96322799D01*
X152697030Y-96177809D01*
X152445140Y-96126800D01*
X152375274Y-96126800D01*
X152721346Y-95780727D01*
X152731890Y-95787931D01*
X152983780Y-95838940D01*
X154733780Y-95838940D01*
X154969097Y-95794662D01*
X155185221Y-95655590D01*
X155330211Y-95443390D01*
X155381220Y-95191500D01*
X155381220Y-95104000D01*
X161325774Y-95104000D01*
X161325779Y-95104001D01*
X161627142Y-95044055D01*
X161882626Y-94873347D01*
X164951781Y-91804191D01*
X165048199Y-91804275D01*
X165419551Y-91650836D01*
X165703916Y-91366966D01*
X165858003Y-90995883D01*
X165858354Y-90594080D01*
X165704915Y-90222728D01*
X165421045Y-89938363D01*
X165049962Y-89784276D01*
X164648159Y-89783925D01*
X164276807Y-89937364D01*
X163992442Y-90221234D01*
X163838355Y-90592317D01*
X163838269Y-90690316D01*
X163654479Y-90874107D01*
X163654479Y-84095224D01*
X163722716Y-84027106D01*
X163876803Y-83656023D01*
X163877154Y-83254220D01*
X163723715Y-82882868D01*
X163439845Y-82598503D01*
X163068762Y-82444416D01*
X162666959Y-82444065D01*
X162295607Y-82597504D01*
X162095280Y-82797482D01*
X162095280Y-82046701D01*
X162035335Y-81745338D01*
X161864627Y-81489854D01*
X161864624Y-81489852D01*
X158162070Y-77787297D01*
X158162154Y-77690880D01*
X158008715Y-77319528D01*
X157724845Y-77035163D01*
X157353762Y-76881076D01*
X156951959Y-76880725D01*
X156580607Y-77034164D01*
X156296242Y-77318034D01*
X156142155Y-77689117D01*
X156141804Y-78090920D01*
X156151162Y-78113568D01*
X156085640Y-78048046D01*
X156085640Y-76668434D01*
X156513333Y-76240740D01*
X166728135Y-76240740D01*
X166728140Y-76240741D01*
X167029503Y-76180795D01*
X167284987Y-76010087D01*
X168427987Y-74867087D01*
X168598695Y-74611603D01*
X168658641Y-74310240D01*
X168658640Y-74310235D01*
X168658640Y-71946418D01*
X168930810Y-71764560D01*
X169149766Y-71436870D01*
X169441272Y-71802113D01*
X169954983Y-72085767D01*
X170052114Y-72107598D01*
X170284140Y-71986457D01*
X170284140Y-69611240D01*
X170538140Y-69611240D01*
X170538140Y-71986457D01*
X170770166Y-72107598D01*
X170867297Y-72085767D01*
X171381008Y-71802113D01*
X171747065Y-71343462D01*
X171909740Y-70779640D01*
X171909740Y-69611240D01*
X170538140Y-69611240D01*
X170284140Y-69611240D01*
X170264140Y-69611240D01*
X170264140Y-69357240D01*
X170284140Y-69357240D01*
X170284140Y-66982023D01*
X170538140Y-66982023D01*
X170538140Y-69357240D01*
X171909740Y-69357240D01*
X171909740Y-68188840D01*
X171747065Y-67625018D01*
X171381008Y-67166367D01*
X170867297Y-66882713D01*
X170770166Y-66860882D01*
X170538140Y-66982023D01*
X170284140Y-66982023D01*
X170052114Y-66860882D01*
X169954983Y-66882713D01*
X169441272Y-67166367D01*
X169149766Y-67531610D01*
X168930810Y-67203920D01*
X168444629Y-66879064D01*
X167871140Y-66764990D01*
X167297651Y-66879064D01*
X166811470Y-67203920D01*
X166601140Y-67518701D01*
X166390810Y-67203920D01*
X165904629Y-66879064D01*
X165331140Y-66764990D01*
X164757651Y-66879064D01*
X164271470Y-67203920D01*
X164061140Y-67518701D01*
X163850810Y-67203920D01*
X163364629Y-66879064D01*
X162791140Y-66764990D01*
X162217651Y-66879064D01*
X161731470Y-67203920D01*
X161718974Y-67222621D01*
X161717902Y-67216923D01*
X161578830Y-67000799D01*
X161366630Y-66855809D01*
X161114740Y-66804800D01*
X159387540Y-66804800D01*
X159152223Y-66849078D01*
X158936099Y-66988150D01*
X158791109Y-67200350D01*
X158740100Y-67452240D01*
X158740100Y-68646240D01*
X139169140Y-68646240D01*
X138848451Y-68710029D01*
X138703630Y-68806796D01*
X138576585Y-68891685D01*
X137759030Y-69709240D01*
X137529022Y-69709240D01*
X137501302Y-69561923D01*
X137362230Y-69345799D01*
X137150030Y-69200809D01*
X137086140Y-69187871D01*
X137086140Y-69103240D01*
X137022351Y-68782551D01*
X136931271Y-68646241D01*
X136840696Y-68510685D01*
X135951695Y-67621685D01*
X135679829Y-67440029D01*
X135359140Y-67376240D01*
X129263140Y-67376240D01*
X128942451Y-67440029D01*
X128670584Y-67621685D01*
X127146585Y-69145685D01*
X126964929Y-69417551D01*
X126901140Y-69738240D01*
X125968640Y-69738240D01*
X125968640Y-66451740D01*
X174548640Y-66451740D01*
X174548640Y-115031740D01*
X174548640Y-115031740D01*
G37*
X174548640Y-115031740D02*
X125968640Y-115031740D01*
X125968640Y-90069990D01*
X129527140Y-90069990D01*
X129527140Y-90660549D01*
X129623813Y-90893938D01*
X129802441Y-91072567D01*
X130035830Y-91169240D01*
X130501390Y-91169240D01*
X130660140Y-91010490D01*
X130660140Y-89911240D01*
X130914140Y-89911240D01*
X130914140Y-91010490D01*
X131072890Y-91169240D01*
X131538450Y-91169240D01*
X131771839Y-91072567D01*
X131950467Y-90893938D01*
X132047140Y-90660549D01*
X132047140Y-90069990D01*
X131888390Y-89911240D01*
X130914140Y-89911240D01*
X130660140Y-89911240D01*
X129685890Y-89911240D01*
X129527140Y-90069990D01*
X125968640Y-90069990D01*
X125968640Y-69738240D01*
X126901140Y-69738240D01*
X126901140Y-85943440D01*
X126964929Y-86264129D01*
X127107440Y-86477410D01*
X127146585Y-86535995D01*
X128487385Y-87876796D01*
X128759252Y-88058452D01*
X129079940Y-88122240D01*
X129531258Y-88122240D01*
X129558978Y-88269557D01*
X129698050Y-88485681D01*
X129766146Y-88532209D01*
X129623813Y-88674542D01*
X129527140Y-88907931D01*
X129527140Y-89498490D01*
X129685890Y-89657240D01*
X130660140Y-89657240D01*
X130660140Y-89637240D01*
X130914140Y-89637240D01*
X130914140Y-89657240D01*
X131888390Y-89657240D01*
X132047140Y-89498490D01*
X132047140Y-89052930D01*
X137296140Y-89052930D01*
X137296140Y-89518490D01*
X137454890Y-89677240D01*
X138554140Y-89677240D01*
X138554140Y-88702990D01*
X138395390Y-88544240D01*
X137804831Y-88544240D01*
X137571442Y-88640913D01*
X137392813Y-88819541D01*
X137296140Y-89052930D01*
X132047140Y-89052930D01*
X132047140Y-88907931D01*
X131950467Y-88674542D01*
X131809230Y-88533304D01*
X131863581Y-88498330D01*
X132008571Y-88286130D01*
X132041760Y-88122240D01*
X139654830Y-88122240D01*
X140142792Y-88610203D01*
X139979699Y-88715150D01*
X139933171Y-88783246D01*
X139790838Y-88640913D01*
X139557449Y-88544240D01*
X138966890Y-88544240D01*
X138808140Y-88702990D01*
X138808140Y-89677240D01*
X138828140Y-89677240D01*
X138828140Y-89931240D01*
X138808140Y-89931240D01*
X138808140Y-90905490D01*
X138966890Y-91064240D01*
X139557449Y-91064240D01*
X139790838Y-90967567D01*
X139932076Y-90826330D01*
X139967050Y-90880681D01*
X140179250Y-91025671D01*
X140431140Y-91076680D01*
X141355007Y-91076680D01*
X139302686Y-93129000D01*
X137757973Y-93129000D01*
X136146279Y-91517305D01*
X136146279Y-91461224D01*
X136214516Y-91393106D01*
X136368603Y-91022023D01*
X136368954Y-90620220D01*
X136215515Y-90248868D01*
X136056914Y-90089990D01*
X137296140Y-90089990D01*
X137296140Y-90555550D01*
X137392813Y-90788939D01*
X137571442Y-90967567D01*
X137804831Y-91064240D01*
X138395390Y-91064240D01*
X138554140Y-90905490D01*
X138554140Y-89931240D01*
X137454890Y-89931240D01*
X137296140Y-90089990D01*
X136056914Y-90089990D01*
X135931645Y-89964503D01*
X135560562Y-89810416D01*
X135158759Y-89810065D01*
X134787407Y-89963504D01*
X134503042Y-90247374D01*
X134348955Y-90618457D01*
X134348604Y-91020260D01*
X134502043Y-91391612D01*
X134571279Y-91460969D01*
X134571279Y-91843494D01*
X134571278Y-91843499D01*
X134631224Y-92144862D01*
X134801932Y-92400346D01*
X136874931Y-94473344D01*
X136874933Y-94473347D01*
X137091218Y-94617863D01*
X137130417Y-94644055D01*
X137431780Y-94704000D01*
X138997686Y-94704000D01*
X137160537Y-96541149D01*
X137064120Y-96541065D01*
X136692768Y-96694504D01*
X136408403Y-96978374D01*
X136254316Y-97349457D01*
X136253965Y-97751260D01*
X136407404Y-98122612D01*
X136691274Y-98406977D01*
X137062357Y-98561064D01*
X137464160Y-98561415D01*
X137835512Y-98407976D01*
X138119877Y-98124106D01*
X138273964Y-97753023D01*
X138274050Y-97655024D01*
X142613280Y-93315793D01*
X142613280Y-102730099D01*
X142407407Y-102815164D01*
X142123042Y-103099034D01*
X141968955Y-103470117D01*
X141968604Y-103871920D01*
X142122043Y-104243272D01*
X142405913Y-104527637D01*
X142776996Y-104681724D01*
X143178799Y-104682075D01*
X143550151Y-104528636D01*
X143834516Y-104244766D01*
X143988603Y-103873683D01*
X143988702Y-103760239D01*
X144045228Y-103675642D01*
X146528731Y-106159144D01*
X146528733Y-106159147D01*
X146681884Y-106261479D01*
X146784216Y-106329855D01*
X147085580Y-106389800D01*
X149386656Y-106389800D01*
X149454774Y-106458037D01*
X149825857Y-106612124D01*
X150227660Y-106612475D01*
X150599012Y-106459036D01*
X150883377Y-106175166D01*
X151037464Y-105804083D01*
X151037815Y-105402280D01*
X150884376Y-105030928D01*
X150600506Y-104746563D01*
X150229423Y-104592476D01*
X149827620Y-104592125D01*
X149456268Y-104745564D01*
X149386911Y-104814800D01*
X147411773Y-104814800D01*
X146980173Y-104383200D01*
X156752656Y-104383200D01*
X156820774Y-104451437D01*
X157191857Y-104605524D01*
X157593660Y-104605875D01*
X157965012Y-104452436D01*
X158249377Y-104168566D01*
X158403464Y-103797483D01*
X158403815Y-103395680D01*
X158250376Y-103024328D01*
X157966506Y-102739963D01*
X157595423Y-102585876D01*
X157193620Y-102585525D01*
X156822268Y-102738964D01*
X156752911Y-102808200D01*
X146929173Y-102808200D01*
X145712280Y-101591306D01*
X145712280Y-95824461D01*
X145783780Y-95838940D01*
X146879746Y-95838940D01*
X146486293Y-96232393D01*
X146315585Y-96487877D01*
X146255639Y-96789240D01*
X146255640Y-96789245D01*
X146255640Y-101107235D01*
X146255639Y-101107240D01*
X146315585Y-101408603D01*
X146486293Y-101664087D01*
X146994291Y-102172084D01*
X146994293Y-102172087D01*
X147064299Y-102218863D01*
X147249776Y-102342795D01*
X147551140Y-102402740D01*
X153012135Y-102402740D01*
X153012140Y-102402741D01*
X153313503Y-102342795D01*
X153568987Y-102172087D01*
X157402334Y-98338740D01*
X161813805Y-98338740D01*
X161934404Y-98630612D01*
X162218274Y-98914977D01*
X162589357Y-99069064D01*
X162991160Y-99069415D01*
X163362512Y-98915976D01*
X163646877Y-98632106D01*
X163800964Y-98261023D01*
X163801315Y-97859220D01*
X163647876Y-97487868D01*
X163364006Y-97203503D01*
X162992923Y-97049416D01*
X162894924Y-97049330D01*
X162839987Y-96994393D01*
X162584503Y-96823685D01*
X162283140Y-96763739D01*
X162283135Y-96763740D01*
X157076145Y-96763740D01*
X157076140Y-96763739D01*
X156774777Y-96823685D01*
X156519293Y-96994393D01*
X153077125Y-100436561D01*
X153092580Y-100360240D01*
X153092580Y-99060240D01*
X153048302Y-98824923D01*
X152909230Y-98608799D01*
X152849981Y-98568316D01*
X152896581Y-98538330D01*
X153041571Y-98326130D01*
X153092580Y-98074240D01*
X153092580Y-96774240D01*
X153048302Y-96538923D01*
X152909230Y-96322799D01*
X152697030Y-96177809D01*
X152445140Y-96126800D01*
X152375274Y-96126800D01*
X152721346Y-95780727D01*
X152731890Y-95787931D01*
X152983780Y-95838940D01*
X154733780Y-95838940D01*
X154969097Y-95794662D01*
X155185221Y-95655590D01*
X155330211Y-95443390D01*
X155381220Y-95191500D01*
X155381220Y-95104000D01*
X161325774Y-95104000D01*
X161325779Y-95104001D01*
X161627142Y-95044055D01*
X161882626Y-94873347D01*
X164951781Y-91804191D01*
X165048199Y-91804275D01*
X165419551Y-91650836D01*
X165703916Y-91366966D01*
X165858003Y-90995883D01*
X165858354Y-90594080D01*
X165704915Y-90222728D01*
X165421045Y-89938363D01*
X165049962Y-89784276D01*
X164648159Y-89783925D01*
X164276807Y-89937364D01*
X163992442Y-90221234D01*
X163838355Y-90592317D01*
X163838269Y-90690316D01*
X163654479Y-90874107D01*
X163654479Y-84095224D01*
X163722716Y-84027106D01*
X163876803Y-83656023D01*
X163877154Y-83254220D01*
X163723715Y-82882868D01*
X163439845Y-82598503D01*
X163068762Y-82444416D01*
X162666959Y-82444065D01*
X162295607Y-82597504D01*
X162095280Y-82797482D01*
X162095280Y-82046701D01*
X162035335Y-81745338D01*
X161864627Y-81489854D01*
X161864624Y-81489852D01*
X158162070Y-77787297D01*
X158162154Y-77690880D01*
X158008715Y-77319528D01*
X157724845Y-77035163D01*
X157353762Y-76881076D01*
X156951959Y-76880725D01*
X156580607Y-77034164D01*
X156296242Y-77318034D01*
X156142155Y-77689117D01*
X156141804Y-78090920D01*
X156151162Y-78113568D01*
X156085640Y-78048046D01*
X156085640Y-76668434D01*
X156513333Y-76240740D01*
X166728135Y-76240740D01*
X166728140Y-76240741D01*
X167029503Y-76180795D01*
X167284987Y-76010087D01*
X168427987Y-74867087D01*
X168598695Y-74611603D01*
X168658641Y-74310240D01*
X168658640Y-74310235D01*
X168658640Y-71946418D01*
X168930810Y-71764560D01*
X169149766Y-71436870D01*
X169441272Y-71802113D01*
X169954983Y-72085767D01*
X170052114Y-72107598D01*
X170284140Y-71986457D01*
X170284140Y-69611240D01*
X170538140Y-69611240D01*
X170538140Y-71986457D01*
X170770166Y-72107598D01*
X170867297Y-72085767D01*
X171381008Y-71802113D01*
X171747065Y-71343462D01*
X171909740Y-70779640D01*
X171909740Y-69611240D01*
X170538140Y-69611240D01*
X170284140Y-69611240D01*
X170264140Y-69611240D01*
X170264140Y-69357240D01*
X170284140Y-69357240D01*
X170284140Y-66982023D01*
X170538140Y-66982023D01*
X170538140Y-69357240D01*
X171909740Y-69357240D01*
X171909740Y-68188840D01*
X171747065Y-67625018D01*
X171381008Y-67166367D01*
X170867297Y-66882713D01*
X170770166Y-66860882D01*
X170538140Y-66982023D01*
X170284140Y-66982023D01*
X170052114Y-66860882D01*
X169954983Y-66882713D01*
X169441272Y-67166367D01*
X169149766Y-67531610D01*
X168930810Y-67203920D01*
X168444629Y-66879064D01*
X167871140Y-66764990D01*
X167297651Y-66879064D01*
X166811470Y-67203920D01*
X166601140Y-67518701D01*
X166390810Y-67203920D01*
X165904629Y-66879064D01*
X165331140Y-66764990D01*
X164757651Y-66879064D01*
X164271470Y-67203920D01*
X164061140Y-67518701D01*
X163850810Y-67203920D01*
X163364629Y-66879064D01*
X162791140Y-66764990D01*
X162217651Y-66879064D01*
X161731470Y-67203920D01*
X161718974Y-67222621D01*
X161717902Y-67216923D01*
X161578830Y-67000799D01*
X161366630Y-66855809D01*
X161114740Y-66804800D01*
X159387540Y-66804800D01*
X159152223Y-66849078D01*
X158936099Y-66988150D01*
X158791109Y-67200350D01*
X158740100Y-67452240D01*
X158740100Y-68646240D01*
X139169140Y-68646240D01*
X138848451Y-68710029D01*
X138703630Y-68806796D01*
X138576585Y-68891685D01*
X137759030Y-69709240D01*
X137529022Y-69709240D01*
X137501302Y-69561923D01*
X137362230Y-69345799D01*
X137150030Y-69200809D01*
X137086140Y-69187871D01*
X137086140Y-69103240D01*
X137022351Y-68782551D01*
X136931271Y-68646241D01*
X136840696Y-68510685D01*
X135951695Y-67621685D01*
X135679829Y-67440029D01*
X135359140Y-67376240D01*
X129263140Y-67376240D01*
X128942451Y-67440029D01*
X128670584Y-67621685D01*
X127146585Y-69145685D01*
X126964929Y-69417551D01*
X126901140Y-69738240D01*
X125968640Y-69738240D01*
X125968640Y-66451740D01*
X174548640Y-66451740D01*
X174548640Y-115031740D01*
G36*
X156950196Y-78900724D02*
X157048195Y-78900810D01*
X160520280Y-82372894D01*
X160520280Y-91050307D01*
X159341586Y-92229000D01*
X158430973Y-92229000D01*
X158830192Y-91829781D01*
X158926609Y-91829865D01*
X159297961Y-91676426D01*
X159582326Y-91392556D01*
X159736413Y-91021473D01*
X159736764Y-90619670D01*
X159583325Y-90248318D01*
X159299455Y-89963953D01*
X158928372Y-89809866D01*
X158526569Y-89809515D01*
X158155217Y-89962954D01*
X157870852Y-90246824D01*
X157716765Y-90617907D01*
X157716679Y-90715906D01*
X156853585Y-91579000D01*
X155381220Y-91579000D01*
X155381220Y-91491500D01*
X155367800Y-91420177D01*
X155368780Y-91417810D01*
X155368780Y-91337750D01*
X155348468Y-91317438D01*
X155336942Y-91256183D01*
X155211721Y-91061584D01*
X155272107Y-91001199D01*
X155349377Y-90814653D01*
X155368780Y-90795250D01*
X155368780Y-90687750D01*
X155349377Y-90668347D01*
X155272107Y-90481801D01*
X155209850Y-90419544D01*
X155330211Y-90243390D01*
X155345338Y-90168692D01*
X155368780Y-90145250D01*
X155368780Y-90065190D01*
X155367113Y-90061165D01*
X155381220Y-89991500D01*
X155381220Y-89541500D01*
X155361713Y-89437829D01*
X155381220Y-89341500D01*
X155381220Y-89254000D01*
X156254875Y-89254000D01*
X156254880Y-89254001D01*
X156556243Y-89194055D01*
X156811727Y-89023347D01*
X159918984Y-85916089D01*
X159918987Y-85916087D01*
X160089695Y-85660603D01*
X160149640Y-85359240D01*
X160149640Y-82438245D01*
X160149641Y-82438240D01*
X160089695Y-82136877D01*
X159918987Y-81881393D01*
X156929884Y-78892290D01*
X156950196Y-78900724D01*
X156950196Y-78900724D01*
G37*
X156950196Y-78900724D02*
X157048195Y-78900810D01*
X160520280Y-82372894D01*
X160520280Y-91050307D01*
X159341586Y-92229000D01*
X158430973Y-92229000D01*
X158830192Y-91829781D01*
X158926609Y-91829865D01*
X159297961Y-91676426D01*
X159582326Y-91392556D01*
X159736413Y-91021473D01*
X159736764Y-90619670D01*
X159583325Y-90248318D01*
X159299455Y-89963953D01*
X158928372Y-89809866D01*
X158526569Y-89809515D01*
X158155217Y-89962954D01*
X157870852Y-90246824D01*
X157716765Y-90617907D01*
X157716679Y-90715906D01*
X156853585Y-91579000D01*
X155381220Y-91579000D01*
X155381220Y-91491500D01*
X155367800Y-91420177D01*
X155368780Y-91417810D01*
X155368780Y-91337750D01*
X155348468Y-91317438D01*
X155336942Y-91256183D01*
X155211721Y-91061584D01*
X155272107Y-91001199D01*
X155349377Y-90814653D01*
X155368780Y-90795250D01*
X155368780Y-90687750D01*
X155349377Y-90668347D01*
X155272107Y-90481801D01*
X155209850Y-90419544D01*
X155330211Y-90243390D01*
X155345338Y-90168692D01*
X155368780Y-90145250D01*
X155368780Y-90065190D01*
X155367113Y-90061165D01*
X155381220Y-89991500D01*
X155381220Y-89541500D01*
X155361713Y-89437829D01*
X155381220Y-89341500D01*
X155381220Y-89254000D01*
X156254875Y-89254000D01*
X156254880Y-89254001D01*
X156556243Y-89194055D01*
X156811727Y-89023347D01*
X159918984Y-85916089D01*
X159918987Y-85916087D01*
X160089695Y-85660603D01*
X160149640Y-85359240D01*
X160149640Y-82438245D01*
X160149641Y-82438240D01*
X160089695Y-82136877D01*
X159918987Y-81881393D01*
X156929884Y-78892290D01*
X156950196Y-78900724D01*
G36*
X135235681Y-69275892D02*
X135146699Y-69333150D01*
X135001709Y-69545350D01*
X134950700Y-69797240D01*
X134950700Y-71297240D01*
X134994978Y-71532557D01*
X135134050Y-71748681D01*
X135346250Y-71893671D01*
X135359337Y-71896321D01*
X135146699Y-72033150D01*
X135018447Y-72220853D01*
X133972040Y-71174446D01*
X133972040Y-71043800D01*
X133927762Y-70808483D01*
X133788690Y-70592359D01*
X133576490Y-70447369D01*
X133324600Y-70396360D01*
X132125720Y-70396360D01*
X131890403Y-70440638D01*
X131674279Y-70579710D01*
X131668684Y-70587899D01*
X131586258Y-70505473D01*
X131352869Y-70408800D01*
X130912870Y-70408800D01*
X130754120Y-70567550D01*
X130754120Y-71516240D01*
X130774120Y-71516240D01*
X130774120Y-71770240D01*
X130754120Y-71770240D01*
X130754120Y-72718930D01*
X130912870Y-72877680D01*
X131352869Y-72877680D01*
X131586258Y-72781007D01*
X131668471Y-72698795D01*
X131873830Y-72839111D01*
X132125720Y-72890120D01*
X133324600Y-72890120D01*
X133438832Y-72868626D01*
X134374291Y-73804084D01*
X134374293Y-73804087D01*
X134629777Y-73974795D01*
X134931140Y-74034741D01*
X134931145Y-74034740D01*
X134957756Y-74034740D01*
X134994978Y-74232557D01*
X135134050Y-74448681D01*
X135346250Y-74593671D01*
X135598140Y-74644680D01*
X136898140Y-74644680D01*
X137133457Y-74600402D01*
X137349581Y-74461330D01*
X137494571Y-74249130D01*
X137545580Y-73997240D01*
X137545580Y-72497240D01*
X137501302Y-72261923D01*
X137362230Y-72045799D01*
X137150030Y-71900809D01*
X137136943Y-71898159D01*
X137349581Y-71761330D01*
X137494571Y-71549130D01*
X137527760Y-71385240D01*
X138106140Y-71385240D01*
X138426829Y-71321451D01*
X138698695Y-71139795D01*
X139516250Y-70322240D01*
X158740100Y-70322240D01*
X158740100Y-71516240D01*
X158784378Y-71751557D01*
X158861714Y-71871740D01*
X153807140Y-71871740D01*
X153505777Y-71931685D01*
X153250293Y-72102393D01*
X153250291Y-72102396D01*
X150884293Y-74468393D01*
X150713585Y-74723877D01*
X150653639Y-75025240D01*
X150653640Y-75025245D01*
X150653640Y-75284990D01*
X150600506Y-75231763D01*
X150229423Y-75077676D01*
X149827620Y-75077325D01*
X149456268Y-75230764D01*
X149386911Y-75300000D01*
X147132785Y-75300000D01*
X147132780Y-75299999D01*
X146831417Y-75359945D01*
X146575933Y-75530653D01*
X146575931Y-75530656D01*
X144367933Y-77738653D01*
X144197225Y-77994137D01*
X144163260Y-78164888D01*
X143912670Y-77914297D01*
X143912754Y-77817880D01*
X143759315Y-77446528D01*
X143475445Y-77162163D01*
X143104362Y-77008076D01*
X142702559Y-77007725D01*
X142331207Y-77161164D01*
X142046842Y-77445034D01*
X141892755Y-77816117D01*
X141892404Y-78217920D01*
X142045843Y-78589272D01*
X142329713Y-78873637D01*
X142700796Y-79027724D01*
X142798795Y-79027810D01*
X143080640Y-79309654D01*
X143080640Y-86005667D01*
X139819227Y-82744253D01*
X139563743Y-82573545D01*
X139262380Y-82513599D01*
X139262375Y-82513600D01*
X138095624Y-82513600D01*
X138027506Y-82445363D01*
X137656423Y-82291276D01*
X137254620Y-82290925D01*
X136883268Y-82444364D01*
X136598903Y-82728234D01*
X136444816Y-83099317D01*
X136444465Y-83501120D01*
X136597904Y-83872472D01*
X136881774Y-84156837D01*
X137252857Y-84310924D01*
X137654660Y-84311275D01*
X138026012Y-84157836D01*
X138095369Y-84088600D01*
X138936186Y-84088600D01*
X142208931Y-87361344D01*
X142208933Y-87361347D01*
X143776086Y-88928500D01*
X142524378Y-88928500D01*
X142395230Y-88727799D01*
X142183030Y-88582809D01*
X142019140Y-88549620D01*
X142019140Y-88463440D01*
X141955351Y-88142751D01*
X141829231Y-87954000D01*
X141773696Y-87870885D01*
X140594495Y-86691685D01*
X140468863Y-86607740D01*
X140322629Y-86510029D01*
X140001940Y-86446240D01*
X132043022Y-86446240D01*
X132015302Y-86298923D01*
X131876230Y-86082799D01*
X131664030Y-85937809D01*
X131412140Y-85886800D01*
X130162140Y-85886800D01*
X129926823Y-85931078D01*
X129710699Y-86070150D01*
X129565709Y-86282350D01*
X129532520Y-86446240D01*
X129427051Y-86446240D01*
X128577140Y-85596330D01*
X128577140Y-71928990D01*
X129392680Y-71928990D01*
X129392680Y-72368990D01*
X129489353Y-72602379D01*
X129667982Y-72781007D01*
X129901371Y-72877680D01*
X130341370Y-72877680D01*
X130500120Y-72718930D01*
X130500120Y-71770240D01*
X129551430Y-71770240D01*
X129392680Y-71928990D01*
X128577140Y-71928990D01*
X128577140Y-70917490D01*
X129392680Y-70917490D01*
X129392680Y-71357490D01*
X129551430Y-71516240D01*
X130500120Y-71516240D01*
X130500120Y-70567550D01*
X130341370Y-70408800D01*
X129901371Y-70408800D01*
X129667982Y-70505473D01*
X129489353Y-70684101D01*
X129392680Y-70917490D01*
X128577140Y-70917490D01*
X128577140Y-70085350D01*
X129610251Y-69052240D01*
X135012030Y-69052240D01*
X135235681Y-69275892D01*
X135235681Y-69275892D01*
G37*
X135235681Y-69275892D02*
X135146699Y-69333150D01*
X135001709Y-69545350D01*
X134950700Y-69797240D01*
X134950700Y-71297240D01*
X134994978Y-71532557D01*
X135134050Y-71748681D01*
X135346250Y-71893671D01*
X135359337Y-71896321D01*
X135146699Y-72033150D01*
X135018447Y-72220853D01*
X133972040Y-71174446D01*
X133972040Y-71043800D01*
X133927762Y-70808483D01*
X133788690Y-70592359D01*
X133576490Y-70447369D01*
X133324600Y-70396360D01*
X132125720Y-70396360D01*
X131890403Y-70440638D01*
X131674279Y-70579710D01*
X131668684Y-70587899D01*
X131586258Y-70505473D01*
X131352869Y-70408800D01*
X130912870Y-70408800D01*
X130754120Y-70567550D01*
X130754120Y-71516240D01*
X130774120Y-71516240D01*
X130774120Y-71770240D01*
X130754120Y-71770240D01*
X130754120Y-72718930D01*
X130912870Y-72877680D01*
X131352869Y-72877680D01*
X131586258Y-72781007D01*
X131668471Y-72698795D01*
X131873830Y-72839111D01*
X132125720Y-72890120D01*
X133324600Y-72890120D01*
X133438832Y-72868626D01*
X134374291Y-73804084D01*
X134374293Y-73804087D01*
X134629777Y-73974795D01*
X134931140Y-74034741D01*
X134931145Y-74034740D01*
X134957756Y-74034740D01*
X134994978Y-74232557D01*
X135134050Y-74448681D01*
X135346250Y-74593671D01*
X135598140Y-74644680D01*
X136898140Y-74644680D01*
X137133457Y-74600402D01*
X137349581Y-74461330D01*
X137494571Y-74249130D01*
X137545580Y-73997240D01*
X137545580Y-72497240D01*
X137501302Y-72261923D01*
X137362230Y-72045799D01*
X137150030Y-71900809D01*
X137136943Y-71898159D01*
X137349581Y-71761330D01*
X137494571Y-71549130D01*
X137527760Y-71385240D01*
X138106140Y-71385240D01*
X138426829Y-71321451D01*
X138698695Y-71139795D01*
X139516250Y-70322240D01*
X158740100Y-70322240D01*
X158740100Y-71516240D01*
X158784378Y-71751557D01*
X158861714Y-71871740D01*
X153807140Y-71871740D01*
X153505777Y-71931685D01*
X153250293Y-72102393D01*
X153250291Y-72102396D01*
X150884293Y-74468393D01*
X150713585Y-74723877D01*
X150653639Y-75025240D01*
X150653640Y-75025245D01*
X150653640Y-75284990D01*
X150600506Y-75231763D01*
X150229423Y-75077676D01*
X149827620Y-75077325D01*
X149456268Y-75230764D01*
X149386911Y-75300000D01*
X147132785Y-75300000D01*
X147132780Y-75299999D01*
X146831417Y-75359945D01*
X146575933Y-75530653D01*
X146575931Y-75530656D01*
X144367933Y-77738653D01*
X144197225Y-77994137D01*
X144163260Y-78164888D01*
X143912670Y-77914297D01*
X143912754Y-77817880D01*
X143759315Y-77446528D01*
X143475445Y-77162163D01*
X143104362Y-77008076D01*
X142702559Y-77007725D01*
X142331207Y-77161164D01*
X142046842Y-77445034D01*
X141892755Y-77816117D01*
X141892404Y-78217920D01*
X142045843Y-78589272D01*
X142329713Y-78873637D01*
X142700796Y-79027724D01*
X142798795Y-79027810D01*
X143080640Y-79309654D01*
X143080640Y-86005667D01*
X139819227Y-82744253D01*
X139563743Y-82573545D01*
X139262380Y-82513599D01*
X139262375Y-82513600D01*
X138095624Y-82513600D01*
X138027506Y-82445363D01*
X137656423Y-82291276D01*
X137254620Y-82290925D01*
X136883268Y-82444364D01*
X136598903Y-82728234D01*
X136444816Y-83099317D01*
X136444465Y-83501120D01*
X136597904Y-83872472D01*
X136881774Y-84156837D01*
X137252857Y-84310924D01*
X137654660Y-84311275D01*
X138026012Y-84157836D01*
X138095369Y-84088600D01*
X138936186Y-84088600D01*
X142208931Y-87361344D01*
X142208933Y-87361347D01*
X143776086Y-88928500D01*
X142524378Y-88928500D01*
X142395230Y-88727799D01*
X142183030Y-88582809D01*
X142019140Y-88549620D01*
X142019140Y-88463440D01*
X141955351Y-88142751D01*
X141829231Y-87954000D01*
X141773696Y-87870885D01*
X140594495Y-86691685D01*
X140468863Y-86607740D01*
X140322629Y-86510029D01*
X140001940Y-86446240D01*
X132043022Y-86446240D01*
X132015302Y-86298923D01*
X131876230Y-86082799D01*
X131664030Y-85937809D01*
X131412140Y-85886800D01*
X130162140Y-85886800D01*
X129926823Y-85931078D01*
X129710699Y-86070150D01*
X129565709Y-86282350D01*
X129532520Y-86446240D01*
X129427051Y-86446240D01*
X128577140Y-85596330D01*
X128577140Y-71928990D01*
X129392680Y-71928990D01*
X129392680Y-72368990D01*
X129489353Y-72602379D01*
X129667982Y-72781007D01*
X129901371Y-72877680D01*
X130341370Y-72877680D01*
X130500120Y-72718930D01*
X130500120Y-71770240D01*
X129551430Y-71770240D01*
X129392680Y-71928990D01*
X128577140Y-71928990D01*
X128577140Y-70917490D01*
X129392680Y-70917490D01*
X129392680Y-71357490D01*
X129551430Y-71516240D01*
X130500120Y-71516240D01*
X130500120Y-70567550D01*
X130341370Y-70408800D01*
X129901371Y-70408800D01*
X129667982Y-70505473D01*
X129489353Y-70684101D01*
X129392680Y-70917490D01*
X128577140Y-70917490D01*
X128577140Y-70085350D01*
X129610251Y-69052240D01*
X135012030Y-69052240D01*
X135235681Y-69275892D01*
G36*
X166811470Y-71764560D02*
X167083640Y-71946418D01*
X167083640Y-73984046D01*
X166401946Y-74665740D01*
X156187145Y-74665740D01*
X156187140Y-74665739D01*
X155894866Y-74723877D01*
X155885777Y-74725685D01*
X155630293Y-74896393D01*
X155630291Y-74896396D01*
X154741293Y-75785393D01*
X154570585Y-76040877D01*
X154510639Y-76342240D01*
X154510640Y-76342245D01*
X154510640Y-78374235D01*
X154510639Y-78374240D01*
X154570585Y-78675603D01*
X154741293Y-78931087D01*
X158574640Y-82764434D01*
X158574640Y-85033047D01*
X155928686Y-87679000D01*
X155381220Y-87679000D01*
X155381220Y-87591500D01*
X155367800Y-87520177D01*
X155368780Y-87517810D01*
X155368780Y-87437750D01*
X155348468Y-87417438D01*
X155336942Y-87356183D01*
X155213451Y-87164273D01*
X155330211Y-86993390D01*
X155345338Y-86918692D01*
X155368780Y-86895250D01*
X155368780Y-86815190D01*
X155367113Y-86811165D01*
X155381220Y-86741500D01*
X155381220Y-86291500D01*
X155336942Y-86056183D01*
X155197870Y-85840059D01*
X154985670Y-85695069D01*
X154733780Y-85644060D01*
X152983780Y-85644060D01*
X152748463Y-85688338D01*
X152685272Y-85729000D01*
X152463593Y-85729000D01*
X152228640Y-85494046D01*
X152228640Y-84490624D01*
X152426457Y-84453402D01*
X152642581Y-84314330D01*
X152787571Y-84102130D01*
X152812943Y-83976840D01*
X153059503Y-83927795D01*
X153314987Y-83757087D01*
X153695984Y-83376089D01*
X153695987Y-83376087D01*
X153836499Y-83165795D01*
X153866695Y-83120604D01*
X153926640Y-82819240D01*
X153926640Y-74636434D01*
X154481334Y-74081740D01*
X164569135Y-74081740D01*
X164569140Y-74081741D01*
X164870503Y-74021795D01*
X165125987Y-73851087D01*
X165887984Y-73089089D01*
X165887987Y-73089087D01*
X166058695Y-72833603D01*
X166074968Y-72751795D01*
X166118641Y-72532240D01*
X166118640Y-72532235D01*
X166118640Y-71946418D01*
X166390810Y-71764560D01*
X166601140Y-71449779D01*
X166811470Y-71764560D01*
X166811470Y-71764560D01*
G37*
X166811470Y-71764560D02*
X167083640Y-71946418D01*
X167083640Y-73984046D01*
X166401946Y-74665740D01*
X156187145Y-74665740D01*
X156187140Y-74665739D01*
X155894866Y-74723877D01*
X155885777Y-74725685D01*
X155630293Y-74896393D01*
X155630291Y-74896396D01*
X154741293Y-75785393D01*
X154570585Y-76040877D01*
X154510639Y-76342240D01*
X154510640Y-76342245D01*
X154510640Y-78374235D01*
X154510639Y-78374240D01*
X154570585Y-78675603D01*
X154741293Y-78931087D01*
X158574640Y-82764434D01*
X158574640Y-85033047D01*
X155928686Y-87679000D01*
X155381220Y-87679000D01*
X155381220Y-87591500D01*
X155367800Y-87520177D01*
X155368780Y-87517810D01*
X155368780Y-87437750D01*
X155348468Y-87417438D01*
X155336942Y-87356183D01*
X155213451Y-87164273D01*
X155330211Y-86993390D01*
X155345338Y-86918692D01*
X155368780Y-86895250D01*
X155368780Y-86815190D01*
X155367113Y-86811165D01*
X155381220Y-86741500D01*
X155381220Y-86291500D01*
X155336942Y-86056183D01*
X155197870Y-85840059D01*
X154985670Y-85695069D01*
X154733780Y-85644060D01*
X152983780Y-85644060D01*
X152748463Y-85688338D01*
X152685272Y-85729000D01*
X152463593Y-85729000D01*
X152228640Y-85494046D01*
X152228640Y-84490624D01*
X152426457Y-84453402D01*
X152642581Y-84314330D01*
X152787571Y-84102130D01*
X152812943Y-83976840D01*
X153059503Y-83927795D01*
X153314987Y-83757087D01*
X153695984Y-83376089D01*
X153695987Y-83376087D01*
X153836499Y-83165795D01*
X153866695Y-83120604D01*
X153926640Y-82819240D01*
X153926640Y-74636434D01*
X154481334Y-74081740D01*
X164569135Y-74081740D01*
X164569140Y-74081741D01*
X164870503Y-74021795D01*
X165125987Y-73851087D01*
X165887984Y-73089089D01*
X165887987Y-73089087D01*
X166058695Y-72833603D01*
X166074968Y-72751795D01*
X166118641Y-72532240D01*
X166118640Y-72532235D01*
X166118640Y-71946418D01*
X166390810Y-71764560D01*
X166601140Y-71449779D01*
X166811470Y-71764560D01*
M02*
